/* XPM */
static char * autumn_xpm[] = {
"16 16 4 1",
" 	c #986900",
".	c #989706",
"+	c #D4EF00",
"@	c #A7F070",
"   .  +++ . @.. ",
"+++  +..    ..  ",
" ..+ ..  .. .   ",
"  .. . .       .",
"   .       +++  ",
".      @++  ..+ ",
" @++  @..  . .. ",
"@..   ..      . ",
"..  . .  @++    ",
".       @..    .",
"   @++  ..  ++@ ",
"  @..   .    ..@",
"  ..      .   ..",
"  .  . ++@  .  .",
".       ..@     ",
"  ..     ..  @++"};
