/* XPM */
static char * grass_xpm[] = {
"32 32 4 1",
" 	c #38B764",
".	c #A7F070",
"+	c #EF7D57",
"@	c #FFCD75",
" .     +         .     +        ",
"           .               .    ",
"                                ",
"               +               +",
"+    ..       +@+    ..       +@",
"      ..  ..   +      ..  ..   +",
"       . ..            . ..     ",
".        .      .        .      ",
"                                ",
"    @               @           ",
"      .    @          .    @    ",
"      .       .       .       . ",
"      ..              ..        ",
"              .               . ",
"  .    +      ..  .    +      ..",
" ..   +@+      . ..   +@+      .",
" .     +         .     +        ",
"           .               .    ",
"                                ",
"               +               +",
"+    ..       +@+    ..       +@",
"      ..  ..   +      ..  ..   +",
"       . ..            . ..     ",
".        .      .        .      ",
"                                ",
"    @               @           ",
"      .    @          .    @    ",
"      .       .       .       . ",
"      ..              ..        ",
"              .               . ",
"  .    +      ..  .    +      ..",
" ..   +@+      . ..   +@+      ."};
