/* XPM */
static char * summer_xpm[] = {
"32 32 4 1",
" 	c #5D275D",
".	c #EF7D57",
"+	c #FFCD75",
"@	c #B13E53",
" .+...++++....@  .+...++++....@ ",
".+..@.....+..@  .+..@.....+..@  ",
".+.@@@@...+.    .+.@@@@...+.    ",
".++..@@@@@+.++. .++..@@@@@+.++. ",
"+..+.@  @@@+..+++..+.@  @@@+..++",
".++..  @@++@.....++..  @@++@....",
"..+.@ @@+@@ @@....+.@ @@+@@ @@..",
" .+.@@@+..@@   . .+.@@@+..@@   .",
" .++.@.+...@ @@@ .++.@.+...@ @@@",
"..++++++....@ ....++++++....@ ..",
".+.+....++.......+.+....++......",
"++...@@..@+..+++++...@@..@+..+++",
"..+@@@@   .++.....+@@@@   .++...",
" .+  .     .+..  .+  .     .+.. ",
" ..+..@   .++..@ ..+..@   .++..@",
"@@.+++++..++...@@@.+++++..++...@",
" .+...++++....@  .+...++++....@ ",
".+..@.....+..@  .+..@.....+..@  ",
".+.@@@@...+.    .+.@@@@...+.    ",
".++..@@@@@+.++. .++..@@@@@+.++. ",
"+..+.@  @@@+..+++..+.@  @@@+..++",
".++..  @@++@.....++..  @@++@....",
"..+.@ @@+@@ @@....+.@ @@+@@ @@..",
" .+.@@@+..@@   . .+.@@@+..@@   .",
" .++.@.+...@ @@@ .++.@.+...@ @@@",
"..++++++....@ ....++++++....@ ..",
".+.+....++.......+.+....++......",
"++...@@..@+..+++++...@@..@+..+++",
"..+@@@@   .++.....+@@@@   .++...",
" .+  .     .+..  .+  .     .+.. ",
" ..+..@   .++..@ ..+..@   .++..@",
"@@.+++++..++...@@@.+++++..++...@"};
