/* XPM */
static char * winter_xpm[] = {
"32 32 3 1",
" 	c #41A6F6",
".	c #73EFF7",
"+	c #F4F4F4",
"    .      + .      .      + .  ",
"     .        +      .        + ",
"      .   +   .+      .   +   .+",
"++     .     . +++     .     . +",
"+..... + ....   +..... + ....   ",
".     +++    +  .     +++    +  ",
".  +    +  .    .  +    +  .    ",
".       +.      .       +.      ",
".+   .   +.     .+   .   +.     ",
" .+     + ...    .+     + ...   ",
"  .+      .  ...  .+      .  ...",
"..++ +    +    +..++ +    +    +",
".  ++...+++     .  ++...+++     ",
"    .     ++        .     ++    ",
"    .  .   +   +    .  .   +   +",
" +  .       .    +  .       .   ",
"    .      + .      .      + .  ",
"     .        +      .        + ",
"      .   +   .+      .   +   .+",
"++     .     . +++     .     . +",
"+..... + ....   +..... + ....   ",
".     +++    +  .     +++    +  ",
".  +    +  .    .  +    +  .    ",
".       +.      .       +.      ",
".+   .   +.     .+   .   +.     ",
" .+     + ...    .+     + ...   ",
"  .+      .  ...  .+      .  ...",
"..++ +    +    +..++ +    +    +",
".  ++...+++     .  ++...+++     ",
"    .     ++        .     ++    ",
"    .  .   +   +    .  .   +   +",
" +  .       .    +  .       .   "};
