/* XPM */
static char *_s1739225519[] = {
/* columns rows colors chars-per-pixel */
"128 128 3 1 ",
"  c #573D2C",
". c #75533B",
"X c #8B6346",
/* pixels */
"  XXXX       XXXX...   XX......   XXXX       XXXX...   XX......   XXXX       XXXX...   XX......   XXXX       XXXX...   XX...... ",
"  XXXX    .XXXX....     XX .      XXXX    .XXXX....     XX .      XXXX    .XXXX....     XX .      XXXX    .XXXX....     XX .    ",
" XXXX.......XX...      XXX       XXXX.......XX...      XXX       XXXX.......XX...      XXX       XXXX.......XX...      XXX      ",
"XXX..... ...XX..    XXXXXXX     XXX..... ...XX..    XXXXXXX     XXX..... ...XX..    XXXXXXX     XXX..... ...XX..    XXXXXXX     ",
"X......   ...      .XXXXX.XXXXXXX......   ...      .XXXXX.XXXXXXX......   ...      .XXXXX.XXXXXXX......   ...      .XXXXX.XXXXXX",
" .....    XXX    ..XXXX.. X  XX  .....    XXX    ..XXXX.. X  XX  .....    XXX    ..XXXX.. X  XX  .....    XXX    ..XXXX.. X  XX ",
"   .   XXXXXXX XXX..XX..           .   XXXXXXX XXX..XX..           .   XXXXXXX XXX..XX..           .   XXXXXXX XXX..XX..        ",
"     X.XXXXX.. .XXX.....  ...        X.XXXXX.. .XXX.....  ...        X.XXXXX.. .XXX.....  ...        X.XXXXX.. .XXX.....  ...   ",
"XXXXXX.XXXX..   .....    XXX.XXXXXXXXX.XXXX..   .....    XXX.XXXXXXXXX.XXXX..   .....    XXX.XXXXXXXXX.XXXX..   .....    XXX.XXX",
"XXXXX.......      ...   XXXX..XXXXXXX.......      ...   XXXX..XXXXXXX.......      ...   XXXX..XXXXXXX.......      ...   XXXX..XX",
"XXXX.   ....  XXX       XXXX..X.XXXX.   ....  XXX       XXXX..X.XXXX.   ....  XXX       XXXX..X.XXXX.   ....  XXX       XXXX..X.",
".....   ...   XXXXXX    XXXX.........   ...   XXXXXX    XXXX.........   ...   XXXXXX    XXXX.........   ...   XXXXXX    XXXX....",
".....        XXXXXXX..XXXXXX.........        XXXXXXX..XXXXXX.........        XXXXXXX..XXXXXX.........        XXXXXXX..XXXXXX....",
"...   XX   XXXXXXX... XXXXX... ....   XX   XXXXXXX... XXXXX... ....   XX   XXXXXXX... XXXXX... ....   XX   XXXXXXX... XXXXX... .",
"    XX.. X X....... . XXXX..        XX.. X X....... . XXXX..        XX.. X X....... . XXXX..        XX.. X X....... . XXXX..    ",
"XXXXX..  X  .......   XX...   XXXXXXX..  X  .......   XX...   XXXXXXX..  X  .......   XX...   XXXXXXX..  X  .......   XX...   XX",
"XXX... XXXX           ....    ..XXX... XXXX           ....    ..XXX... XXXX           ....    ..XXX... XXXX           ....    ..",
"....   XXXXX        XXXX.. .. X.....   XXXXX        XXXX.. .. X.....   XXXXX        XXXX.. .. X.....   XXXXX        XXXX.. .. X.",
"      XXXXX...X   XXXXXXX.... XX      XXXXX...X   XXXXXXX.... XX      XXXXX...X   XXXXXXX.... XX      XXXXX...X   XXXXXXX.... XX",
"      XXXXXX...  XXXXXXXX...  XX      XXXXXX...  XXXXXXXX...  XX      XXXXXX...  XXXXXXXX...  XX      XXXXXX...  XXXXXXXX...  XX",
" XXXXXXXXXX...  XXXXXXXX....  .X XXXXXXXXXX...  XXXXXXXX....  .X XXXXXXXXXX...  XXXXXXXX....  .X XXXXXXXXXX...  XXXXXXXX....  .X",
" XXXXXXXXX.... ..XXXXXX...       XXXXXXXXX.... ..XXXXXX...       XXXXXXXXX.... ..XXXXXX...       XXXXXXXXX.... ..XXXXXX...      ",
" XXX........   ...XXX....   XX   XXX........   ...XXX....   XX   XXX........   ...XXX....   XX   XXX........   ...XXX....   XX  ",
". XX   ....     ........   XXXX.. XX   ....     ........   XXXX.. XX   ....     ........   XXXX.. XX   ....     ........   XXXX.",
". XX           ..  X...    XXXXX. XX           ..  X...    XXXXX. XX           ..  X...    XXXXX. XX           ..  X...    XXXXX",
". ...X        ...         XXXXX.. ...X        ...         XXXXX.. ...X        ...         XXXXX.. ...X        ...         XXXXX.",
". ...XXXXXXXXX...        XXXXXX.. ...XXXXXXXXX...        XXXXXX.. ...XXXXXXXXX...        XXXXXX.. ...XXXXXXXXX...        XXXXXX.",
".  ...XXXXXXXX.  X      XXXXXX...  ...XXXXXXXX.  X      XXXXXX...  ...XXXXXXXX.  X      XXXXXX...  ...XXXXXXXX.  X      XXXXXX..",
".  . ...XXXXX..  XXXX.  XXXXXX...  . ...XXXXX..  XXXX.  XXXXXX...  . ...XXXXX..  XXXX.  XXXXXX...  . ...XXXXX..  XXXX.  XXXXXX..",
"   .   ..XXXX.   XXXX. XXXXXX...   .   ..XXXX.   XXXX. XXXXXX...   .   ..XXXX.   XXXX. XXXXXX...   .   ..XXXX.   XXXX. XXXXXX...",
"   .X   .....   XXXX.. .XXX....    .X   .....   XXXX.. .XXX....    .X   .....   XXXX.. .XXX....    .X   .....   XXXX.. .XXX.... ",
"   X            XXX... ........    X            XXX... ........    X            XXX... ........    X            XXX... ........ ",
"  XXXX       XXXX...   XX......   XXXX       XXXX...   XX......   XXXX       XXXX...   XX......   XXXX       XXXX...   XX...... ",
"  XXXX    .XXXX....     XX .      XXXX    .XXXX....     XX .      XXXX    .XXXX....     XX .      XXXX    .XXXX....     XX .    ",
" XXXX.......XX...      XXX       XXXX.......XX...      XXX       XXXX.......XX...      XXX       XXXX.......XX...      XXX      ",
"XXX..... ...XX..    XXXXXXX     XXX..... ...XX..    XXXXXXX     XXX..... ...XX..    XXXXXXX     XXX..... ...XX..    XXXXXXX     ",
"X......   ...      .XXXXX.XXXXXXX......   ...      .XXXXX.XXXXXXX......   ...      .XXXXX.XXXXXXX......   ...      .XXXXX.XXXXXX",
" .....    XXX    ..XXXX.. X  XX  .....    XXX    ..XXXX.. X  XX  .....    XXX    ..XXXX.. X  XX  .....    XXX    ..XXXX.. X  XX ",
"   .   XXXXXXX XXX..XX..           .   XXXXXXX XXX..XX..           .   XXXXXXX XXX..XX..           .   XXXXXXX XXX..XX..        ",
"     X.XXXXX.. .XXX.....  ...        X.XXXXX.. .XXX.....  ...        X.XXXXX.. .XXX.....  ...        X.XXXXX.. .XXX.....  ...   ",
"XXXXXX.XXXX..   .....    XXX.XXXXXXXXX.XXXX..   .....    XXX.XXXXXXXXX.XXXX..   .....    XXX.XXXXXXXXX.XXXX..   .....    XXX.XXX",
"XXXXX.......      ...   XXXX..XXXXXXX.......      ...   XXXX..XXXXXXX.......      ...   XXXX..XXXXXXX.......      ...   XXXX..XX",
"XXXX.   ....  XXX       XXXX..X.XXXX.   ....  XXX       XXXX..X.XXXX.   ....  XXX       XXXX..X.XXXX.   ....  XXX       XXXX..X.",
".....   ...   XXXXXX    XXXX.........   ...   XXXXXX    XXXX.........   ...   XXXXXX    XXXX.........   ...   XXXXXX    XXXX....",
".....        XXXXXXX..XXXXXX.........        XXXXXXX..XXXXXX.........        XXXXXXX..XXXXXX.........        XXXXXXX..XXXXXX....",
"...   XX   XXXXXXX... XXXXX... ....   XX   XXXXXXX... XXXXX... ....   XX   XXXXXXX... XXXXX... ....   XX   XXXXXXX... XXXXX... .",
"    XX.. X X....... . XXXX..        XX.. X X....... . XXXX..        XX.. X X....... . XXXX..        XX.. X X....... . XXXX..    ",
"XXXXX..  X  .......   XX...   XXXXXXX..  X  .......   XX...   XXXXXXX..  X  .......   XX...   XXXXXXX..  X  .......   XX...   XX",
"XXX... XXXX           ....    ..XXX... XXXX           ....    ..XXX... XXXX           ....    ..XXX... XXXX           ....    ..",
"....   XXXXX        XXXX.. .. X.....   XXXXX        XXXX.. .. X.....   XXXXX        XXXX.. .. X.....   XXXXX        XXXX.. .. X.",
"      XXXXX...X   XXXXXXX.... XX      XXXXX...X   XXXXXXX.... XX      XXXXX...X   XXXXXXX.... XX      XXXXX...X   XXXXXXX.... XX",
"      XXXXXX...  XXXXXXXX...  XX      XXXXXX...  XXXXXXXX...  XX      XXXXXX...  XXXXXXXX...  XX      XXXXXX...  XXXXXXXX...  XX",
" XXXXXXXXXX...  XXXXXXXX....  .X XXXXXXXXXX...  XXXXXXXX....  .X XXXXXXXXXX...  XXXXXXXX....  .X XXXXXXXXXX...  XXXXXXXX....  .X",
" XXXXXXXXX.... ..XXXXXX...       XXXXXXXXX.... ..XXXXXX...       XXXXXXXXX.... ..XXXXXX...       XXXXXXXXX.... ..XXXXXX...      ",
" XXX........   ...XXX....   XX   XXX........   ...XXX....   XX   XXX........   ...XXX....   XX   XXX........   ...XXX....   XX  ",
". XX   ....     ........   XXXX.. XX   ....     ........   XXXX.. XX   ....     ........   XXXX.. XX   ....     ........   XXXX.",
". XX           ..  X...    XXXXX. XX           ..  X...    XXXXX. XX           ..  X...    XXXXX. XX           ..  X...    XXXXX",
". ...X        ...         XXXXX.. ...X        ...         XXXXX.. ...X        ...         XXXXX.. ...X        ...         XXXXX.",
". ...XXXXXXXXX...        XXXXXX.. ...XXXXXXXXX...        XXXXXX.. ...XXXXXXXXX...        XXXXXX.. ...XXXXXXXXX...        XXXXXX.",
".  ...XXXXXXXX.  X      XXXXXX...  ...XXXXXXXX.  X      XXXXXX...  ...XXXXXXXX.  X      XXXXXX...  ...XXXXXXXX.  X      XXXXXX..",
".  . ...XXXXX..  XXXX.  XXXXXX...  . ...XXXXX..  XXXX.  XXXXXX...  . ...XXXXX..  XXXX.  XXXXXX...  . ...XXXXX..  XXXX.  XXXXXX..",
"   .   ..XXXX.   XXXX. XXXXXX...   .   ..XXXX.   XXXX. XXXXXX...   .   ..XXXX.   XXXX. XXXXXX...   .   ..XXXX.   XXXX. XXXXXX...",
"   .X   .....   XXXX.. .XXX....    .X   .....   XXXX.. .XXX....    .X   .....   XXXX.. .XXX....    .X   .....   XXXX.. .XXX.... ",
"   X            XXX... ........    X            XXX... ........    X            XXX... ........    X            XXX... ........ ",
"  XXXX       XXXX...   XX......   XXXX       XXXX...   XX......   XXXX       XXXX...   XX......   XXXX       XXXX...   XX...... ",
"  XXXX    .XXXX....     XX .      XXXX    .XXXX....     XX .      XXXX    .XXXX....     XX .      XXXX    .XXXX....     XX .    ",
" XXXX.......XX...      XXX       XXXX.......XX...      XXX       XXXX.......XX...      XXX       XXXX.......XX...      XXX      ",
"XXX..... ...XX..    XXXXXXX     XXX..... ...XX..    XXXXXXX     XXX..... ...XX..    XXXXXXX     XXX..... ...XX..    XXXXXXX     ",
"X......   ...      .XXXXX.XXXXXXX......   ...      .XXXXX.XXXXXXX......   ...      .XXXXX.XXXXXXX......   ...      .XXXXX.XXXXXX",
" .....    XXX    ..XXXX.. X  XX  .....    XXX    ..XXXX.. X  XX  .....    XXX    ..XXXX.. X  XX  .....    XXX    ..XXXX.. X  XX ",
"   .   XXXXXXX XXX..XX..           .   XXXXXXX XXX..XX..           .   XXXXXXX XXX..XX..           .   XXXXXXX XXX..XX..        ",
"     X.XXXXX.. .XXX.....  ...        X.XXXXX.. .XXX.....  ...        X.XXXXX.. .XXX.....  ...        X.XXXXX.. .XXX.....  ...   ",
"XXXXXX.XXXX..   .....    XXX.XXXXXXXXX.XXXX..   .....    XXX.XXXXXXXXX.XXXX..   .....    XXX.XXXXXXXXX.XXXX..   .....    XXX.XXX",
"XXXXX.......      ...   XXXX..XXXXXXX.......      ...   XXXX..XXXXXXX.......      ...   XXXX..XXXXXXX.......      ...   XXXX..XX",
"XXXX.   ....  XXX       XXXX..X.XXXX.   ....  XXX       XXXX..X.XXXX.   ....  XXX       XXXX..X.XXXX.   ....  XXX       XXXX..X.",
".....   ...   XXXXXX    XXXX.........   ...   XXXXXX    XXXX.........   ...   XXXXXX    XXXX.........   ...   XXXXXX    XXXX....",
".....        XXXXXXX..XXXXXX.........        XXXXXXX..XXXXXX.........        XXXXXXX..XXXXXX.........        XXXXXXX..XXXXXX....",
"...   XX   XXXXXXX... XXXXX... ....   XX   XXXXXXX... XXXXX... ....   XX   XXXXXXX... XXXXX... ....   XX   XXXXXXX... XXXXX... .",
"    XX.. X X....... . XXXX..        XX.. X X....... . XXXX..        XX.. X X....... . XXXX..        XX.. X X....... . XXXX..    ",
"XXXXX..  X  .......   XX...   XXXXXXX..  X  .......   XX...   XXXXXXX..  X  .......   XX...   XXXXXXX..  X  .......   XX...   XX",
"XXX... XXXX           ....    ..XXX... XXXX           ....    ..XXX... XXXX           ....    ..XXX... XXXX           ....    ..",
"....   XXXXX        XXXX.. .. X.....   XXXXX        XXXX.. .. X.....   XXXXX        XXXX.. .. X.....   XXXXX        XXXX.. .. X.",
"      XXXXX...X   XXXXXXX.... XX      XXXXX...X   XXXXXXX.... XX      XXXXX...X   XXXXXXX.... XX      XXXXX...X   XXXXXXX.... XX",
"      XXXXXX...  XXXXXXXX...  XX      XXXXXX...  XXXXXXXX...  XX      XXXXXX...  XXXXXXXX...  XX      XXXXXX...  XXXXXXXX...  XX",
" XXXXXXXXXX...  XXXXXXXX....  .X XXXXXXXXXX...  XXXXXXXX....  .X XXXXXXXXXX...  XXXXXXXX....  .X XXXXXXXXXX...  XXXXXXXX....  .X",
" XXXXXXXXX.... ..XXXXXX...       XXXXXXXXX.... ..XXXXXX...       XXXXXXXXX.... ..XXXXXX...       XXXXXXXXX.... ..XXXXXX...      ",
" XXX........   ...XXX....   XX   XXX........   ...XXX....   XX   XXX........   ...XXX....   XX   XXX........   ...XXX....   XX  ",
". XX   ....     ........   XXXX.. XX   ....     ........   XXXX.. XX   ....     ........   XXXX.. XX   ....     ........   XXXX.",
". XX           ..  X...    XXXXX. XX           ..  X...    XXXXX. XX           ..  X...    XXXXX. XX           ..  X...    XXXXX",
". ...X        ...         XXXXX.. ...X        ...         XXXXX.. ...X        ...         XXXXX.. ...X        ...         XXXXX.",
". ...XXXXXXXXX...        XXXXXX.. ...XXXXXXXXX...        XXXXXX.. ...XXXXXXXXX...        XXXXXX.. ...XXXXXXXXX...        XXXXXX.",
".  ...XXXXXXXX.  X      XXXXXX...  ...XXXXXXXX.  X      XXXXXX...  ...XXXXXXXX.  X      XXXXXX...  ...XXXXXXXX.  X      XXXXXX..",
".  . ...XXXXX..  XXXX.  XXXXXX...  . ...XXXXX..  XXXX.  XXXXXX...  . ...XXXXX..  XXXX.  XXXXXX...  . ...XXXXX..  XXXX.  XXXXXX..",
"   .   ..XXXX.   XXXX. XXXXXX...   .   ..XXXX.   XXXX. XXXXXX...   .   ..XXXX.   XXXX. XXXXXX...   .   ..XXXX.   XXXX. XXXXXX...",
"   .X   .....   XXXX.. .XXX....    .X   .....   XXXX.. .XXX....    .X   .....   XXXX.. .XXX....    .X   .....   XXXX.. .XXX.... ",
"   X            XXX... ........    X            XXX... ........    X            XXX... ........    X            XXX... ........ ",
"  XXXX       XXXX...   XX......   XXXX       XXXX...   XX......   XXXX       XXXX...   XX......   XXXX       XXXX...   XX...... ",
"  XXXX    .XXXX....     XX .      XXXX    .XXXX....     XX .      XXXX    .XXXX....     XX .      XXXX    .XXXX....     XX .    ",
" XXXX.......XX...      XXX       XXXX.......XX...      XXX       XXXX.......XX...      XXX       XXXX.......XX...      XXX      ",
"XXX..... ...XX..    XXXXXXX     XXX..... ...XX..    XXXXXXX     XXX..... ...XX..    XXXXXXX     XXX..... ...XX..    XXXXXXX     ",
"X......   ...      .XXXXX.XXXXXXX......   ...      .XXXXX.XXXXXXX......   ...      .XXXXX.XXXXXXX......   ...      .XXXXX.XXXXXX",
" .....    XXX    ..XXXX.. X  XX  .....    XXX    ..XXXX.. X  XX  .....    XXX    ..XXXX.. X  XX  .....    XXX    ..XXXX.. X  XX ",
"   .   XXXXXXX XXX..XX..           .   XXXXXXX XXX..XX..           .   XXXXXXX XXX..XX..           .   XXXXXXX XXX..XX..        ",
"     X.XXXXX.. .XXX.....  ...        X.XXXXX.. .XXX.....  ...        X.XXXXX.. .XXX.....  ...        X.XXXXX.. .XXX.....  ...   ",
"XXXXXX.XXXX..   .....    XXX.XXXXXXXXX.XXXX..   .....    XXX.XXXXXXXXX.XXXX..   .....    XXX.XXXXXXXXX.XXXX..   .....    XXX.XXX",
"XXXXX.......      ...   XXXX..XXXXXXX.......      ...   XXXX..XXXXXXX.......      ...   XXXX..XXXXXXX.......      ...   XXXX..XX",
"XXXX.   ....  XXX       XXXX..X.XXXX.   ....  XXX       XXXX..X.XXXX.   ....  XXX       XXXX..X.XXXX.   ....  XXX       XXXX..X.",
".....   ...   XXXXXX    XXXX.........   ...   XXXXXX    XXXX.........   ...   XXXXXX    XXXX.........   ...   XXXXXX    XXXX....",
".....        XXXXXXX..XXXXXX.........        XXXXXXX..XXXXXX.........        XXXXXXX..XXXXXX.........        XXXXXXX..XXXXXX....",
"...   XX   XXXXXXX... XXXXX... ....   XX   XXXXXXX... XXXXX... ....   XX   XXXXXXX... XXXXX... ....   XX   XXXXXXX... XXXXX... .",
"    XX.. X X....... . XXXX..        XX.. X X....... . XXXX..        XX.. X X....... . XXXX..        XX.. X X....... . XXXX..    ",
"XXXXX..  X  .......   XX...   XXXXXXX..  X  .......   XX...   XXXXXXX..  X  .......   XX...   XXXXXXX..  X  .......   XX...   XX",
"XXX... XXXX           ....    ..XXX... XXXX           ....    ..XXX... XXXX           ....    ..XXX... XXXX           ....    ..",
"....   XXXXX        XXXX.. .. X.....   XXXXX        XXXX.. .. X.....   XXXXX        XXXX.. .. X.....   XXXXX        XXXX.. .. X.",
"      XXXXX...X   XXXXXXX.... XX      XXXXX...X   XXXXXXX.... XX      XXXXX...X   XXXXXXX.... XX      XXXXX...X   XXXXXXX.... XX",
"      XXXXXX...  XXXXXXXX...  XX      XXXXXX...  XXXXXXXX...  XX      XXXXXX...  XXXXXXXX...  XX      XXXXXX...  XXXXXXXX...  XX",
" XXXXXXXXXX...  XXXXXXXX....  .X XXXXXXXXXX...  XXXXXXXX....  .X XXXXXXXXXX...  XXXXXXXX....  .X XXXXXXXXXX...  XXXXXXXX....  .X",
" XXXXXXXXX.... ..XXXXXX...       XXXXXXXXX.... ..XXXXXX...       XXXXXXXXX.... ..XXXXXX...       XXXXXXXXX.... ..XXXXXX...      ",
" XXX........   ...XXX....   XX   XXX........   ...XXX....   XX   XXX........   ...XXX....   XX   XXX........   ...XXX....   XX  ",
". XX   ....     ........   XXXX.. XX   ....     ........   XXXX.. XX   ....     ........   XXXX.. XX   ....     ........   XXXX.",
". XX           ..  X...    XXXXX. XX           ..  X...    XXXXX. XX           ..  X...    XXXXX. XX           ..  X...    XXXXX",
". ...X        ...         XXXXX.. ...X        ...         XXXXX.. ...X        ...         XXXXX.. ...X        ...         XXXXX.",
". ...XXXXXXXXX...        XXXXXX.. ...XXXXXXXXX...        XXXXXX.. ...XXXXXXXXX...        XXXXXX.. ...XXXXXXXXX...        XXXXXX.",
".  ...XXXXXXXX.  X      XXXXXX...  ...XXXXXXXX.  X      XXXXXX...  ...XXXXXXXX.  X      XXXXXX...  ...XXXXXXXX.  X      XXXXXX..",
".  . ...XXXXX..  XXXX.  XXXXXX...  . ...XXXXX..  XXXX.  XXXXXX...  . ...XXXXX..  XXXX.  XXXXXX...  . ...XXXXX..  XXXX.  XXXXXX..",
"   .   ..XXXX.   XXXX. XXXXXX...   .   ..XXXX.   XXXX. XXXXXX...   .   ..XXXX.   XXXX. XXXXXX...   .   ..XXXX.   XXXX. XXXXXX...",
"   .X   .....   XXXX.. .XXX....    .X   .....   XXXX.. .XXX....    .X   .....   XXXX.. .XXX....    .X   .....   XXXX.. .XXX.... ",
"   X            XXX... ........    X            XXX... ........    X            XXX... ........    X            XXX... ........ "
};
