/* XPM */
static char *_4f87e23fc944ad8b0e87689d15d6956fBGSP4FTuAePnQBm[] = {
/* columns rows colors chars-per-pixel */
"128 128 4 1 ",
"  c #413D2A",
". c #514D35",
"X c #767256",
"o c #908E78",
/* pixels */
"XX X  ..XX .....  ..XXXXooo  .XXXX X  ..XX .....  ..XXXXooo  .XXXX X  ..XX .....  ..XXXXooo  .XXXX X  ..XX .....  ..XXXXooo  .XX",
"XX X ..XXX ..   X ...XXXXoo  .XXXX X ..XXX ..   X ...XXXXoo  .XXXX X ..XXX ..   X ...XXXXoo  .XXXX X ..XXX ..   X ...XXXXoo  .XX",
"XX   .XXXX  . oo  .......o   ...XX   .XXXX  . oo  .......o   ...XX   .XXXX  . oo  .......o   ...XX   .XXXX  . oo  .......o   ...",
"..X ...XXX  Xooooo .....   .  ....X ...XXX  Xooooo .....   .  ....X ...XXX  Xooooo .....   .  ....X ...XXX  Xooooo .....   .  ..",
"...    ..X XXXXooX       X...  ....    ..X XXXXooX       X...  ....    ..X XXXXooX       X...  ....    ..X XXXXooX       X...  .",
"  ..oo  .. XXXXo        ......o   ..oo  .. XXXXo        ......o   ..oo  .. XXXXo        ......o   ..oo  .. XXXXo        ......o ",
"...Xooo       XX ooooo ....ooooo...Xooo       XX ooooo ....ooooo...Xooo       XX ooooo ....ooooo...Xooo       XX ooooo ....ooooo",
"..XXoo  ....ooo ..XXoo ...XXXXo ..XXoo  ....ooo ..XXoo ...XXXXo ..XXoo  ....ooo ..XXoo ...XXXXo ..XXoo  ....ooo ..XXoo ...XXXXo ",
"..XXX   ..XoXoo .XXXoo ...XXX   ..XXX   ..XoXoo .XXXoo ...XXX   ..XXX   ..XoXoo .XXXoo ...XXX   ..XXX   ..XoXoo .XXXoo ...XXX   ",
" ....  ..XXXXoo .XX     ....     ....  ..XXXXoo .XX     ....     ....  ..XXXXoo .XX     ....     ....  ..XXXXoo .XX     ....    ",
"o ..   ...XXXo ..X  ...      .ooo ..   ...XXXo ..X  ...      .ooo ..   ...XXXo ..X  ...      .ooo ..   ...XXXo ..X  ...      .oo",
"oo   .  ..... ...  ..Xoooo  ..Xooo   .  ..... ...  ..Xoooo  ..Xooo   .  ..... ...  ..Xoooo  ..Xooo   .  ..... ...  ..Xoooo  ..Xo",
"oo  ..o  ...  ... ..XXXXXo ..XXXoo  ..o  ...  ... ..XXXXXo ..XXXoo  ..o  ...  ... ..XXXXXo ..XXXoo  ..o  ...  ... ..XXXXXo ..XXX",
"oo ...ooo      .. .......o ..XXXoo ...ooo      .. .......o ..XXXoo ...ooo      .. .......o ..XXXoo ...ooo      .. .......o ..XXX",
"X  ...Xooo .oo  .    .  .  ...XXX  ...Xooo .oo  .    .  .  ...XXX  ...Xooo .oo  .    .  .  ...XXX  ...Xooo .oo  .    .  .  ...XX",
". ...XXXo ..Xoo  ..XX ooooo ..... ...XXXo ..Xoo  ..XX ooooo ..... ...XXXo ..Xoo  ..XX ooooo ..... ...XXXo ..Xoo  ..XX ooooo ....",
"  ..XXXXo .XXXo  .XX ..XXoo       ..XXXXo .XXXo  .XX ..XXoo       ..XXXXo .XXXo  .XX ..XXoo       ..XXXXo .XXXo  .XX ..XXoo     ",
"o  ..XX.  ...Xoo .X  ..XXoo .Xooo  ..XX.  ...Xoo .X  ..XXoo .Xooo  ..XX.  ...Xoo .X  ..XXoo .Xooo  ..XX.  ...Xoo .X  ..XXoo .Xoo",
"oo  .... ......o .X ....XX  .XXXoo  .... ......o .X ....XX  .XXXoo  .... ......o .X ....XX  .XXXoo  .... ......o .X ....XX  .XXX",
"Xoo           X  .. ...XX. ..XXXXoo           X  .. ...XX. ..XXXXoo           X  .. ...XX. ..XXXXoo           X  .. ...XX. ..XXX",
"XXo .....oooo X      ....  ...XXXXo .....oooo X      ....  ...XXXXo .....oooo X      ....  ...XXXXo .....oooo X      ....  ...XX",
".Xo ..XXXXooo    oo         .....Xo ..XXXXooo    oo         .....Xo ..XXXXooo    oo         .....Xo ..XXXXooo    oo         ....",
"..  ..XXXXXoo  .XXooooX ... ......  ..XXXXXoo  .XXooooX ... ......  ..XXXXXoo  .XXooooX ... ......  ..XXXXXoo  .XXooooX ... ....",
"    ....XXXo   .XXXXoo ...oo        ....XXXo   .XXXXoo ...oo        ....XXXo   .XXXXoo ...oo        ....XXXo   .XXXXoo ...oo    ",
" oo   ......  ..XXXXXo ..XXoooo  oo   ......  ..XXXXXo ..XXoooo  oo   ......  ..XXXXXo ..XXoooo  oo   ......  ..XXXXXo ..XXoooo ",
" Xooo      XX ...XXXXo ..XXXXXoo Xooo      XX ...XXXXo ..XXXXXoo Xooo      XX ...XXXXo ..XXXXXoo Xooo      XX ...XXXXo ..XXXXXoo",
" XXo  oooo     ...XXoo ...XXXooo XXo  oooo     ...XXoo ...XXXooo XXo  oooo     ...XXoo ...XXXooo XXo  oooo     ...XXoo ...XXXooo",
"XXX  Xooo ..oo ......o   ...oo  XXX  Xooo ..oo ......o   ...oo  XXX  Xooo ..oo ......o   ...oo  XXX  Xooo ..oo ......o   ...oo  ",
"    XXXXo .XXXo ..    ..   ..       XXXXo .XXXo ..    ..   ..       XXXXo .XXXo ..    ..   ..       XXXXo .XXXo ..    ..   ..   ",
"XX XXXXoo .XXXoo   .oooo       XXX XXXXoo .XXXoo   .oooo       XXX XXXXoo .XXXoo   .oooo       XXX XXXXoo .XXXoo   .oooo       X",
"XX XX     ..XXoo  ..XXoooo o  .XXX XX     ..XXoo  ..XXoooo o  .XXX XX     ..XXoo  ..XXoooo o  .XXX XX     ..XXoo  ..XXoooo o  .X",
"XX XX ...  ..Xoo ...XXXXooo  ..XXX XX ...  ..Xoo ...XXXXooo  ..XXX XX ...  ..Xoo ...XXXXooo  ..XXX XX ...  ..Xoo ...XXXXooo  ..X",
"XX X  ..XX .....  ..XXXXooo  .XXXX X  ..XX .....  ..XXXXooo  .XXXX X  ..XX .....  ..XXXXooo  .XXXX X  ..XX .....  ..XXXXooo  .XX",
"XX X ..XXX ..   X ...XXXXoo  .XXXX X ..XXX ..   X ...XXXXoo  .XXXX X ..XXX ..   X ...XXXXoo  .XXXX X ..XXX ..   X ...XXXXoo  .XX",
"XX   .XXXX  . oo  .......o   ...XX   .XXXX  . oo  .......o   ...XX   .XXXX  . oo  .......o   ...XX   .XXXX  . oo  .......o   ...",
"..X ...XXX  Xooooo .....   .  ....X ...XXX  Xooooo .....   .  ....X ...XXX  Xooooo .....   .  ....X ...XXX  Xooooo .....   .  ..",
"...    ..X XXXXooX       X...  ....    ..X XXXXooX       X...  ....    ..X XXXXooX       X...  ....    ..X XXXXooX       X...  .",
"  ..oo  .. XXXXo        ......o   ..oo  .. XXXXo        ......o   ..oo  .. XXXXo        ......o   ..oo  .. XXXXo        ......o ",
"...Xooo       XX ooooo ....ooooo...Xooo       XX ooooo ....ooooo...Xooo       XX ooooo ....ooooo...Xooo       XX ooooo ....ooooo",
"..XXoo  ....ooo ..XXoo ...XXXXo ..XXoo  ....ooo ..XXoo ...XXXXo ..XXoo  ....ooo ..XXoo ...XXXXo ..XXoo  ....ooo ..XXoo ...XXXXo ",
"..XXX   ..XoXoo .XXXoo ...XXX   ..XXX   ..XoXoo .XXXoo ...XXX   ..XXX   ..XoXoo .XXXoo ...XXX   ..XXX   ..XoXoo .XXXoo ...XXX   ",
" ....  ..XXXXoo .XX     ....     ....  ..XXXXoo .XX     ....     ....  ..XXXXoo .XX     ....     ....  ..XXXXoo .XX     ....    ",
"o ..   ...XXXo ..X  ...      .ooo ..   ...XXXo ..X  ...      .ooo ..   ...XXXo ..X  ...      .ooo ..   ...XXXo ..X  ...      .oo",
"oo   .  ..... ...  ..Xoooo  ..Xooo   .  ..... ...  ..Xoooo  ..Xooo   .  ..... ...  ..Xoooo  ..Xooo   .  ..... ...  ..Xoooo  ..Xo",
"oo  ..o  ...  ... ..XXXXXo ..XXXoo  ..o  ...  ... ..XXXXXo ..XXXoo  ..o  ...  ... ..XXXXXo ..XXXoo  ..o  ...  ... ..XXXXXo ..XXX",
"oo ...ooo      .. .......o ..XXXoo ...ooo      .. .......o ..XXXoo ...ooo      .. .......o ..XXXoo ...ooo      .. .......o ..XXX",
"X  ...Xooo .oo  .    .  .  ...XXX  ...Xooo .oo  .    .  .  ...XXX  ...Xooo .oo  .    .  .  ...XXX  ...Xooo .oo  .    .  .  ...XX",
". ...XXXo ..Xoo  ..XX ooooo ..... ...XXXo ..Xoo  ..XX ooooo ..... ...XXXo ..Xoo  ..XX ooooo ..... ...XXXo ..Xoo  ..XX ooooo ....",
"  ..XXXXo .XXXo  .XX ..XXoo       ..XXXXo .XXXo  .XX ..XXoo       ..XXXXo .XXXo  .XX ..XXoo       ..XXXXo .XXXo  .XX ..XXoo     ",
"o  ..XX.  ...Xoo .X  ..XXoo .Xooo  ..XX.  ...Xoo .X  ..XXoo .Xooo  ..XX.  ...Xoo .X  ..XXoo .Xooo  ..XX.  ...Xoo .X  ..XXoo .Xoo",
"oo  .... ......o .X ....XX  .XXXoo  .... ......o .X ....XX  .XXXoo  .... ......o .X ....XX  .XXXoo  .... ......o .X ....XX  .XXX",
"Xoo           X  .. ...XX. ..XXXXoo           X  .. ...XX. ..XXXXoo           X  .. ...XX. ..XXXXoo           X  .. ...XX. ..XXX",
"XXo .....oooo X      ....  ...XXXXo .....oooo X      ....  ...XXXXo .....oooo X      ....  ...XXXXo .....oooo X      ....  ...XX",
".Xo ..XXXXooo    oo         .....Xo ..XXXXooo    oo         .....Xo ..XXXXooo    oo         .....Xo ..XXXXooo    oo         ....",
"..  ..XXXXXoo  .XXooooX ... ......  ..XXXXXoo  .XXooooX ... ......  ..XXXXXoo  .XXooooX ... ......  ..XXXXXoo  .XXooooX ... ....",
"    ....XXXo   .XXXXoo ...oo        ....XXXo   .XXXXoo ...oo        ....XXXo   .XXXXoo ...oo        ....XXXo   .XXXXoo ...oo    ",
" oo   ......  ..XXXXXo ..XXoooo  oo   ......  ..XXXXXo ..XXoooo  oo   ......  ..XXXXXo ..XXoooo  oo   ......  ..XXXXXo ..XXoooo ",
" Xooo      XX ...XXXXo ..XXXXXoo Xooo      XX ...XXXXo ..XXXXXoo Xooo      XX ...XXXXo ..XXXXXoo Xooo      XX ...XXXXo ..XXXXXoo",
" XXo  oooo     ...XXoo ...XXXooo XXo  oooo     ...XXoo ...XXXooo XXo  oooo     ...XXoo ...XXXooo XXo  oooo     ...XXoo ...XXXooo",
"XXX  Xooo ..oo ......o   ...oo  XXX  Xooo ..oo ......o   ...oo  XXX  Xooo ..oo ......o   ...oo  XXX  Xooo ..oo ......o   ...oo  ",
"    XXXXo .XXXo ..    ..   ..       XXXXo .XXXo ..    ..   ..       XXXXo .XXXo ..    ..   ..       XXXXo .XXXo ..    ..   ..   ",
"XX XXXXoo .XXXoo   .oooo       XXX XXXXoo .XXXoo   .oooo       XXX XXXXoo .XXXoo   .oooo       XXX XXXXoo .XXXoo   .oooo       X",
"XX XX     ..XXoo  ..XXoooo o  .XXX XX     ..XXoo  ..XXoooo o  .XXX XX     ..XXoo  ..XXoooo o  .XXX XX     ..XXoo  ..XXoooo o  .X",
"XX XX ...  ..Xoo ...XXXXooo  ..XXX XX ...  ..Xoo ...XXXXooo  ..XXX XX ...  ..Xoo ...XXXXooo  ..XXX XX ...  ..Xoo ...XXXXooo  ..X",
"XX X  ..XX .....  ..XXXXooo  .XXXX X  ..XX .....  ..XXXXooo  .XXXX X  ..XX .....  ..XXXXooo  .XXXX X  ..XX .....  ..XXXXooo  .XX",
"XX X ..XXX ..   X ...XXXXoo  .XXXX X ..XXX ..   X ...XXXXoo  .XXXX X ..XXX ..   X ...XXXXoo  .XXXX X ..XXX ..   X ...XXXXoo  .XX",
"XX   .XXXX  . oo  .......o   ...XX   .XXXX  . oo  .......o   ...XX   .XXXX  . oo  .......o   ...XX   .XXXX  . oo  .......o   ...",
"..X ...XXX  Xooooo .....   .  ....X ...XXX  Xooooo .....   .  ....X ...XXX  Xooooo .....   .  ....X ...XXX  Xooooo .....   .  ..",
"...    ..X XXXXooX       X...  ....    ..X XXXXooX       X...  ....    ..X XXXXooX       X...  ....    ..X XXXXooX       X...  .",
"  ..oo  .. XXXXo        ......o   ..oo  .. XXXXo        ......o   ..oo  .. XXXXo        ......o   ..oo  .. XXXXo        ......o ",
"...Xooo       XX ooooo ....ooooo...Xooo       XX ooooo ....ooooo...Xooo       XX ooooo ....ooooo...Xooo       XX ooooo ....ooooo",
"..XXoo  ....ooo ..XXoo ...XXXXo ..XXoo  ....ooo ..XXoo ...XXXXo ..XXoo  ....ooo ..XXoo ...XXXXo ..XXoo  ....ooo ..XXoo ...XXXXo ",
"..XXX   ..XoXoo .XXXoo ...XXX   ..XXX   ..XoXoo .XXXoo ...XXX   ..XXX   ..XoXoo .XXXoo ...XXX   ..XXX   ..XoXoo .XXXoo ...XXX   ",
" ....  ..XXXXoo .XX     ....     ....  ..XXXXoo .XX     ....     ....  ..XXXXoo .XX     ....     ....  ..XXXXoo .XX     ....    ",
"o ..   ...XXXo ..X  ...      .ooo ..   ...XXXo ..X  ...      .ooo ..   ...XXXo ..X  ...      .ooo ..   ...XXXo ..X  ...      .oo",
"oo   .  ..... ...  ..Xoooo  ..Xooo   .  ..... ...  ..Xoooo  ..Xooo   .  ..... ...  ..Xoooo  ..Xooo   .  ..... ...  ..Xoooo  ..Xo",
"oo  ..o  ...  ... ..XXXXXo ..XXXoo  ..o  ...  ... ..XXXXXo ..XXXoo  ..o  ...  ... ..XXXXXo ..XXXoo  ..o  ...  ... ..XXXXXo ..XXX",
"oo ...ooo      .. .......o ..XXXoo ...ooo      .. .......o ..XXXoo ...ooo      .. .......o ..XXXoo ...ooo      .. .......o ..XXX",
"X  ...Xooo .oo  .    .  .  ...XXX  ...Xooo .oo  .    .  .  ...XXX  ...Xooo .oo  .    .  .  ...XXX  ...Xooo .oo  .    .  .  ...XX",
". ...XXXo ..Xoo  ..XX ooooo ..... ...XXXo ..Xoo  ..XX ooooo ..... ...XXXo ..Xoo  ..XX ooooo ..... ...XXXo ..Xoo  ..XX ooooo ....",
"  ..XXXXo .XXXo  .XX ..XXoo       ..XXXXo .XXXo  .XX ..XXoo       ..XXXXo .XXXo  .XX ..XXoo       ..XXXXo .XXXo  .XX ..XXoo     ",
"o  ..XX.  ...Xoo .X  ..XXoo .Xooo  ..XX.  ...Xoo .X  ..XXoo .Xooo  ..XX.  ...Xoo .X  ..XXoo .Xooo  ..XX.  ...Xoo .X  ..XXoo .Xoo",
"oo  .... ......o .X ....XX  .XXXoo  .... ......o .X ....XX  .XXXoo  .... ......o .X ....XX  .XXXoo  .... ......o .X ....XX  .XXX",
"Xoo           X  .. ...XX. ..XXXXoo           X  .. ...XX. ..XXXXoo           X  .. ...XX. ..XXXXoo           X  .. ...XX. ..XXX",
"XXo .....oooo X      ....  ...XXXXo .....oooo X      ....  ...XXXXo .....oooo X      ....  ...XXXXo .....oooo X      ....  ...XX",
".Xo ..XXXXooo    oo         .....Xo ..XXXXooo    oo         .....Xo ..XXXXooo    oo         .....Xo ..XXXXooo    oo         ....",
"..  ..XXXXXoo  .XXooooX ... ......  ..XXXXXoo  .XXooooX ... ......  ..XXXXXoo  .XXooooX ... ......  ..XXXXXoo  .XXooooX ... ....",
"    ....XXXo   .XXXXoo ...oo        ....XXXo   .XXXXoo ...oo        ....XXXo   .XXXXoo ...oo        ....XXXo   .XXXXoo ...oo    ",
" oo   ......  ..XXXXXo ..XXoooo  oo   ......  ..XXXXXo ..XXoooo  oo   ......  ..XXXXXo ..XXoooo  oo   ......  ..XXXXXo ..XXoooo ",
" Xooo      XX ...XXXXo ..XXXXXoo Xooo      XX ...XXXXo ..XXXXXoo Xooo      XX ...XXXXo ..XXXXXoo Xooo      XX ...XXXXo ..XXXXXoo",
" XXo  oooo     ...XXoo ...XXXooo XXo  oooo     ...XXoo ...XXXooo XXo  oooo     ...XXoo ...XXXooo XXo  oooo     ...XXoo ...XXXooo",
"XXX  Xooo ..oo ......o   ...oo  XXX  Xooo ..oo ......o   ...oo  XXX  Xooo ..oo ......o   ...oo  XXX  Xooo ..oo ......o   ...oo  ",
"    XXXXo .XXXo ..    ..   ..       XXXXo .XXXo ..    ..   ..       XXXXo .XXXo ..    ..   ..       XXXXo .XXXo ..    ..   ..   ",
"XX XXXXoo .XXXoo   .oooo       XXX XXXXoo .XXXoo   .oooo       XXX XXXXoo .XXXoo   .oooo       XXX XXXXoo .XXXoo   .oooo       X",
"XX XX     ..XXoo  ..XXoooo o  .XXX XX     ..XXoo  ..XXoooo o  .XXX XX     ..XXoo  ..XXoooo o  .XXX XX     ..XXoo  ..XXoooo o  .X",
"XX XX ...  ..Xoo ...XXXXooo  ..XXX XX ...  ..Xoo ...XXXXooo  ..XXX XX ...  ..Xoo ...XXXXooo  ..XXX XX ...  ..Xoo ...XXXXooo  ..X",
"XX X  ..XX .....  ..XXXXooo  .XXXX X  ..XX .....  ..XXXXooo  .XXXX X  ..XX .....  ..XXXXooo  .XXXX X  ..XX .....  ..XXXXooo  .XX",
"XX X ..XXX ..   X ...XXXXoo  .XXXX X ..XXX ..   X ...XXXXoo  .XXXX X ..XXX ..   X ...XXXXoo  .XXXX X ..XXX ..   X ...XXXXoo  .XX",
"XX   .XXXX  . oo  .......o   ...XX   .XXXX  . oo  .......o   ...XX   .XXXX  . oo  .......o   ...XX   .XXXX  . oo  .......o   ...",
"..X ...XXX  Xooooo .....   .  ....X ...XXX  Xooooo .....   .  ....X ...XXX  Xooooo .....   .  ....X ...XXX  Xooooo .....   .  ..",
"...    ..X XXXXooX       X...  ....    ..X XXXXooX       X...  ....    ..X XXXXooX       X...  ....    ..X XXXXooX       X...  .",
"  ..oo  .. XXXXo        ......o   ..oo  .. XXXXo        ......o   ..oo  .. XXXXo        ......o   ..oo  .. XXXXo        ......o ",
"...Xooo       XX ooooo ....ooooo...Xooo       XX ooooo ....ooooo...Xooo       XX ooooo ....ooooo...Xooo       XX ooooo ....ooooo",
"..XXoo  ....ooo ..XXoo ...XXXXo ..XXoo  ....ooo ..XXoo ...XXXXo ..XXoo  ....ooo ..XXoo ...XXXXo ..XXoo  ....ooo ..XXoo ...XXXXo ",
"..XXX   ..XoXoo .XXXoo ...XXX   ..XXX   ..XoXoo .XXXoo ...XXX   ..XXX   ..XoXoo .XXXoo ...XXX   ..XXX   ..XoXoo .XXXoo ...XXX   ",
" ....  ..XXXXoo .XX     ....     ....  ..XXXXoo .XX     ....     ....  ..XXXXoo .XX     ....     ....  ..XXXXoo .XX     ....    ",
"o ..   ...XXXo ..X  ...      .ooo ..   ...XXXo ..X  ...      .ooo ..   ...XXXo ..X  ...      .ooo ..   ...XXXo ..X  ...      .oo",
"oo   .  ..... ...  ..Xoooo  ..Xooo   .  ..... ...  ..Xoooo  ..Xooo   .  ..... ...  ..Xoooo  ..Xooo   .  ..... ...  ..Xoooo  ..Xo",
"oo  ..o  ...  ... ..XXXXXo ..XXXoo  ..o  ...  ... ..XXXXXo ..XXXoo  ..o  ...  ... ..XXXXXo ..XXXoo  ..o  ...  ... ..XXXXXo ..XXX",
"oo ...ooo      .. .......o ..XXXoo ...ooo      .. .......o ..XXXoo ...ooo      .. .......o ..XXXoo ...ooo      .. .......o ..XXX",
"X  ...Xooo .oo  .    .  .  ...XXX  ...Xooo .oo  .    .  .  ...XXX  ...Xooo .oo  .    .  .  ...XXX  ...Xooo .oo  .    .  .  ...XX",
". ...XXXo ..Xoo  ..XX ooooo ..... ...XXXo ..Xoo  ..XX ooooo ..... ...XXXo ..Xoo  ..XX ooooo ..... ...XXXo ..Xoo  ..XX ooooo ....",
"  ..XXXXo .XXXo  .XX ..XXoo       ..XXXXo .XXXo  .XX ..XXoo       ..XXXXo .XXXo  .XX ..XXoo       ..XXXXo .XXXo  .XX ..XXoo     ",
"o  ..XX.  ...Xoo .X  ..XXoo .Xooo  ..XX.  ...Xoo .X  ..XXoo .Xooo  ..XX.  ...Xoo .X  ..XXoo .Xooo  ..XX.  ...Xoo .X  ..XXoo .Xoo",
"oo  .... ......o .X ....XX  .XXXoo  .... ......o .X ....XX  .XXXoo  .... ......o .X ....XX  .XXXoo  .... ......o .X ....XX  .XXX",
"Xoo           X  .. ...XX. ..XXXXoo           X  .. ...XX. ..XXXXoo           X  .. ...XX. ..XXXXoo           X  .. ...XX. ..XXX",
"XXo .....oooo X      ....  ...XXXXo .....oooo X      ....  ...XXXXo .....oooo X      ....  ...XXXXo .....oooo X      ....  ...XX",
".Xo ..XXXXooo    oo         .....Xo ..XXXXooo    oo         .....Xo ..XXXXooo    oo         .....Xo ..XXXXooo    oo         ....",
"..  ..XXXXXoo  .XXooooX ... ......  ..XXXXXoo  .XXooooX ... ......  ..XXXXXoo  .XXooooX ... ......  ..XXXXXoo  .XXooooX ... ....",
"    ....XXXo   .XXXXoo ...oo        ....XXXo   .XXXXoo ...oo        ....XXXo   .XXXXoo ...oo        ....XXXo   .XXXXoo ...oo    ",
" oo   ......  ..XXXXXo ..XXoooo  oo   ......  ..XXXXXo ..XXoooo  oo   ......  ..XXXXXo ..XXoooo  oo   ......  ..XXXXXo ..XXoooo ",
" Xooo      XX ...XXXXo ..XXXXXoo Xooo      XX ...XXXXo ..XXXXXoo Xooo      XX ...XXXXo ..XXXXXoo Xooo      XX ...XXXXo ..XXXXXoo",
" XXo  oooo     ...XXoo ...XXXooo XXo  oooo     ...XXoo ...XXXooo XXo  oooo     ...XXoo ...XXXooo XXo  oooo     ...XXoo ...XXXooo",
"XXX  Xooo ..oo ......o   ...oo  XXX  Xooo ..oo ......o   ...oo  XXX  Xooo ..oo ......o   ...oo  XXX  Xooo ..oo ......o   ...oo  ",
"    XXXXo .XXXo ..    ..   ..       XXXXo .XXXo ..    ..   ..       XXXXo .XXXo ..    ..   ..       XXXXo .XXXo ..    ..   ..   ",
"XX XXXXoo .XXXoo   .oooo       XXX XXXXoo .XXXoo   .oooo       XXX XXXXoo .XXXoo   .oooo       XXX XXXXoo .XXXoo   .oooo       X",
"XX XX     ..XXoo  ..XXoooo o  .XXX XX     ..XXoo  ..XXoooo o  .XXX XX     ..XXoo  ..XXoooo o  .XXX XX     ..XXoo  ..XXoooo o  .X",
"XX XX ...  ..Xoo ...XXXXooo  ..XXX XX ...  ..Xoo ...XXXXooo  ..XXX XX ...  ..Xoo ...XXXXooo  ..XXX XX ...  ..Xoo ...XXXXooo  ..X"
};
