/* XPM */
static char *_sdarker1739225582[] = {
/* columns rows colors chars-per-pixel */
"128 128 6 1 ",
"  c #131313",
". c #181919",
"X c #222222",
"o c gray15",
"O c #313131",
"+ c #373838",
/* pixels */
"++XXXXXXOOOOOOOOOO++++++++        ......        XX  XX++++OOOOOO++XXXXXXOOOOOOOOOO++++++++        ......        XX  XX++++OOOOOO",
"++XXXXXXOOOOOOOOOO++++++++        ......        XX  XX++++OOOOOO++XXXXXXOOOOOOOOOO++++++++        ......        XX  XX++++OOOOOO",
"++XXXXOOOOOOOOOOOOOOOOOO++++++    ..          XXXX  ..XX++++++++++XXXXOOOOOOOOOOOOOOOOOO++++++    ..          XXXX  ..XX++++++++",
"++XXXXOOOOOOOOOOOOOOOOOO++++++    ..          XXXX  ..XX++++++++++XXXXOOOOOOOOOOOOOOOOOO++++++    ..          XXXX  ..XX++++++++",
"XXXXOOOOOOOOOOOOOOOOOOOOOO++++              XXXX    ..XXXXXXOOOOXXXXOOOOOOOOOOOOOOOOOOOOOO++++              XXXX    ..XXXXXXOOOO",
"XXXXOOOOOOOOOOOOOOOOOOOOOO++++              XXXX    ..XXXXXXOOOOXXXXOOOOOOOOOOOOOOOOOOOOOO++++              XXXX    ..XXXXXXOOOO",
"XXOOOOOOOOOOOOOOOO++++++++++OO    XXXXXXOOOOOOOO    ....XXXX....XXOOOOOOOOOOOOOOOO++++++++++OO    XXXXXXOOOOOOOO    ....XXXX....",
"XXOOOOOOOOOOOOOOOO++++++++++OO    XXXXXXOOOOOOOO    ....XXXX....XXOOOOOOOOOOOOOOOO++++++++++OO    XXXXXXOOOOOOOO    ....XXXX....",
"XX++++++++++++++++++  ....      XXXXXXXX++OOOOOOOO    ........  XX++++++++++++++++++  ....      XXXXXXXX++OOOOOOOO    ........  ",
"XX++++++++++++++++++  ....      XXXXXXXX++OOOOOOOO    ........  XX++++++++++++++++++  ....      XXXXXXXX++OOOOOOOO    ........  ",
"  XXXXXXXXXXXXXXXXXX..      OOOOOO++XXXX++OOOOOOOO                XXXXXXXXXXXXXXXXXX..      OOOOOO++XXXX++OOOOOOOO              ",
"  XXXXXXXXXXXXXXXXXX..      OOOOOO++XXXX++OOOOOOOO                XXXXXXXXXXXXXXXXXX..      OOOOOO++XXXX++OOOOOOOO              ",
"  ......XXXX..........  OOOOOOOO++++XXXX  ++++OOOOOO        OO    ......XXXX..........  OOOOOOOO++++XXXX  ++++OOOOOO        OO  ",
"  ......XXXX..........  OOOOOOOO++++XXXX  ++++OOOOOO        OO    ......XXXX..........  OOOOOOOO++++XXXX  ++++OOOOOO        OO  ",
"      ....          OOOOOOOOOO++++XXoo  ..XX++++OOOOOOOOOOOOOOOO      ....          OOOOOOOOOO++++XXoo  ..XX++++OOOOOOOOOOOOOOOO",
"      ....          OOOOOOOOOO++++XXoo  ..XX++++OOOOOOOOOOOOOOOO      ....          OOOOOOOOOO++++XXoo  ..XX++++OOOOOOOOOOOOOOOO",
"++            ++++OOOOOOOO++++++XX........XXXX++++OOOOOOOOOOOOOO++            ++++OOOOOOOO++++++XX........XXXX++++OOOOOOOOOOOOOO",
"++            ++++OOOOOOOO++++++XX........XXXX++++OOOOOOOOOOOOOO++            ++++OOOOOOOO++++++XX........XXXX++++OOOOOOOOOOOOOO",
"++OO      OOXX++++OOOOOOOO++XXXX....    ......XX++++++OOOOOOOOOO++OO      OOXX++++OOOOOOOO++XXXX....    ......XX++++++OOOOOOOOOO",
"++OO      OOXX++++OOOOOOOO++XXXX....    ......XX++++++OOOOOOOOOO++OO      OOXX++++OOOOOOOO++XXXX....    ......XX++++++OOOOOOOOOO",
"++XX    OOOO    ++++OOOO++++XXXX..          ........++++++++++++++XX    OOOO    ++++OOOO++++XXXX..          ........++++++++++++",
"++XX    OOOO    ++++OOOO++++XXXX..          ........++++++++++++++XX    OOOO    ++++OOOO++++XXXX..          ........++++++++++++",
"....  OOOOOOOO    ++++++++XX  ..      OO              ....XXXX......  OOOOOOOO    ++++++++XX  ..      OO              ....XXXX..",
"....  OOOOOOOO    ++++++++XX  ..      OO              ....XXXX......  OOOOOOOO    ++++++++XX  ..      OO              ....XXXX..",
"    OOOOOOOOOOOO    OOOOXXXX....    OOOOOOOOOOOO            ....    OOOOOOOOOOOO    OOOOXXXX....    OOOOOOOOOOOO            ....",
"    OOOOOOOOOOOO    OOOOXXXX....    OOOOOOOOOOOO            ....    OOOOOOOOOOOO    OOOOXXXX....    OOOOOOOOOOOO            ....",
"OOOOOOOOOOOOOOOOOO    XXXX..      OOOOOOOOOOOOOOOOOO++..  XX++++OOOOOOOOOOOOOOOOOO    XXXX..      OOOOOOOOOOOOOOOOOO++..  XX++++",
"OOOOOOOOOOOOOOOOOO    XXXX..      OOOOOOOOOOOOOOOOOO++..  XX++++OOOOOOOOOOOOOOOOOO    XXXX..      OOOOOOOOOOOOOOOOOO++..  XX++++",
"++++++OOOOOOOOOO++++  ....      OOOOOOOOOOOOOOOOOOOO++..  XXXX++++++++OOOOOOOOOO++++  ....      OOOOOOOOOOOOOOOOOOOO++..  XXXX++",
"++++++OOOOOOOOOO++++  ....      OOOOOOOOOOOOOOOOOOOO++..  XXXX++++++++OOOOOOOOOO++++  ....      OOOOOOOOOOOOOOOOOOOO++..  XXXX++",
"XXOO++++++++OO++++  ..      XXXXOOOOOOOOOOOOOOOO++++++..  XXXXXXXXOO++++++++OO++++  ..      XXXXOOOOOOOOOOOOOOOO++++++..  XXXXXX",
"XXOO++++++++OO++++  ..      XXXXOOOOOOOOOOOOOOOO++++++..  XXXXXXXXOO++++++++OO++++  ..      XXXXOOOOOOOOOOOOOOOO++++++..  XXXXXX",
"XXXXXXOOOO++++++XX..    XXXXXXOO++++OOOOOOOO++++++  ....    XXXXXXXXXXOOOO++++++XX..    XXXXXXOO++++OOOOOOOO++++++  ....    XXXX",
"XXXXXXOOOO++++++XX..    XXXXXXOO++++OOOOOOOO++++++  ....    XXXXXXXXXXOOOO++++++XX..    XXXXXXOO++++OOOOOOOO++++++  ....    XXXX",
"XXXXXXXXXXXX........      XXXXXXXX++++++++++++XXXX....    OO....XXXXXXXXXXXX........      XXXXXXXX++++++++++++XXXX....    OO....",
"XXXXXXXXXXXX........      XXXXXXXX++++++++++++XXXX....    OO....XXXXXXXXXXXX........      XXXXXXXX++++++++++++XXXX....    OO....",
"  ............OOOOXXXX    ....XXXXXXXXXXXXXXXXXX....  OOOO++++    ............OOOOXXXX    ....XXXXXXXXXXXXXXXXXX....  OOOO++++  ",
"  ............OOOOXXXX    ....XXXXXXXXXXXXXXXXXX....  OOOO++++    ............OOOOXXXX    ....XXXXXXXXXXXXXXXXXX....  OOOO++++  ",
"              OOOOOOOOOO    ........XXXXXXXXXX  ..XXOOOOOOOO++++              OOOOOOOOOO    ........XXXXXXXXXX  ..XXOOOOOOOO++++",
"              OOOOOOOOOO    ........XXXXXXXXXX  ..XXOOOOOOOO++++              OOOOOOOOOO    ........XXXXXXXXXX  ..XXOOOOOOOO++++",
"OOXXXXOOOOOOOOOOOOOOOOOOOOOO      ..........    XXOOOOOOOOOOOO++OOXXXXOOOOOOOOOOOOOOOOOOOOOO      ..........    XXOOOOOOOOOOOO++",
"OOXXXXOOOOOOOOOOOOOOOOOOOOOO      ..........    XXOOOOOOOOOOOO++OOXXXXOOOOOOOOOOOOOOOOOOOOOO      ..........    XXOOOOOOOOOOOO++",
"XXXXXXOOOOOOOOOOOOOOOO++++XXXX          ......OOOOOOOOOOOOOOOO++XXXXXXOOOOOOOOOOOOOOOO++++XXXX          ......OOOOOOOOOOOOOOOO++",
"XXXXXXOOOOOOOOOOOOOOOO++++XXXX          ......OOOOOOOOOOOOOOOO++XXXXXXOOOOOOOOOOOOOOOO++++XXXX          ......OOOOOOOOOOOOOOOO++",
"XXXXOOOOOOOOOOOOOOOO++++XXXX..                OOOOOOOOOOOOOO++++XXXXOOOOOOOOOOOOOOOO++++XXXX..                OOOOOOOOOOOOOO++++",
"XXXXOOOOOOOOOOOOOOOO++++XXXX..                OOOOOOOOOOOOOO++++XXXXOOOOOOOOOOOOOOOO++++XXXX..                OOOOOOOOOOOOOO++++",
"XXXXOOOOOO++++OO++++++XX  ....  OOOO          OOOOOOOOOOOOOO++XXXXXXOOOOOO++++OO++++++XX  ....  OOOO          OOOOOOOOOOOOOO++XX",
"XXXXOOOOOO++++OO++++++XX  ....  OOOO          OOOOOOOOOOOOOO++XXXXXXOOOOOO++++OO++++++XX  ....  OOOO          OOOOOOOOOOOOOO++XX",
"XXXXOOOO++++XX++++XXXX....    OOOOOOOOOOOOOO    ++++++OOOO++++XXXXXXOOOO++++XX++++XXXX....    OOOOOOOOOOOOOO    ++++++OOOO++++XX",
"XXXXOOOO++++XX++++XXXX....    OOOOOOOOOOOOOO    ++++++OOOO++++XXXXXXOOOO++++XX++++XXXX....    OOOOOOOOOOOOOO    ++++++OOOO++++XX",
"    OOOO++XXXXXXXXXX....    OOOOOOOOOOOOOOOOOO....  ++++++++XXXX    OOOO++XXXXXXXXXX....    OOOOOOOOOOOOOOOOOO....  ++++++++XXXX",
"    OOOO++XXXXXXXXXX....    OOOOOOOOOOOOOOOOOO....  ++++++++XXXX    OOOO++XXXXXXXXXX....    OOOOOOOOOOOOOOOOOO....  ++++++++XXXX",
"      OOXXXXXXXX..XX..    OOOOOOOOOOOOOOOOOOOO++....  XXXXXXXXXX      OOXXXXXXXX..XX..    OOOOOOOOOOOOOOOOOOOO++....  XXXXXXXXXX",
"      OOXXXXXXXX..XX..    OOOOOOOOOOOOOOOOOOOO++....  XXXXXXXXXX      OOXXXXXXXX..XX..    OOOOOOOOOOOOOOOOOOOO++....  XXXXXXXXXX",
"  OO    ..........      OOOOOOOOOOOOOOOOOOOOOO++........XX......  OO    ..........      OOOOOOOOOOOOOOOOOOOOOO++........XX......",
"  OO    ..........      OOOOOOOOOOOOOOOOOOOOOO++........XX......  OO    ..........      OOOOOOOOOOOOOOOOOOOOOO++........XX......",
"OOOO++      ..        OOOOOOOOOOOOOOOOOOOOOO++++..              OOOO++      ..        OOOOOOOOOOOOOOOOOOOOOO++++..              ",
"OOOO++      ..        OOOOOOOOOOOOOOOOOOOOOO++++..              OOOO++      ..        OOOOOOOOOOOOOOOOOOOOOO++++..              ",
"OOOO++            OO++++++++++++++++++OO++++++..    OO      OOOOOOOO++            OO++++++++++++++++++OO++++++..    OO      OOOO",
"OOOO++            OO++++++++++++++++++OO++++++..    OO      OOOOOOOO++            OO++++++++++++++++++OO++++++..    OO      OOOO",
"OO++++XXXX  XXOOOO  ..XXXXXXXXXXXXXX++++++XXXX..  XX  OOOOOOOOOOOO++++XXXX  XXOOOO  ..XXXXXXXXXXXXXX++++++XXXX..  XX  OOOOOOOOOO",
"OO++++XXXX  XXOOOO  ..XXXXXXXXXXXXXX++++++XXXX..  XX  OOOOOOOOOOOO++++XXXX  XXOOOO  ..XXXXXXXXXXXXXX++++++XXXX..  XX  OOOOOOOOOO",
"++++++XXXXXXOOOOOO        ........XXXXXX......    XX  ++OOOOOOOO++++++XXXXXXOOOOOO        ........XXXXXX......    XX  ++OOOOOOOO",
"++++++XXXXXXOOOOOO        ........XXXXXX......    XX  ++OOOOOOOO++++++XXXXXXOOOOOO        ........XXXXXX......    XX  ++OOOOOOOO",
"++XXXXXXOOOOOOOOOO++++++++        ......        XX  XX++++OOOOOO++XXXXXXOOOOOOOOOO++++++++        ......        XX  XX++++OOOOOO",
"++XXXXXXOOOOOOOOOO++++++++        ......        XX  XX++++OOOOOO++XXXXXXOOOOOOOOOO++++++++        ......        XX  XX++++OOOOOO",
"++XXXXOOOOOOOOOOOOOOOOOO++++++    ..          XXXX  ..XX++++++++++XXXXOOOOOOOOOOOOOOOOOO++++++    ..          XXXX  ..XX++++++++",
"++XXXXOOOOOOOOOOOOOOOOOO++++++    ..          XXXX  ..XX++++++++++XXXXOOOOOOOOOOOOOOOOOO++++++    ..          XXXX  ..XX++++++++",
"XXXXOOOOOOOOOOOOOOOOOOOOOO++++              XXXX    ..XXXXXXOOOOXXXXOOOOOOOOOOOOOOOOOOOOOO++++              XXXX    ..XXXXXXOOOO",
"XXXXOOOOOOOOOOOOOOOOOOOOOO++++              XXXX    ..XXXXXXOOOOXXXXOOOOOOOOOOOOOOOOOOOOOO++++              XXXX    ..XXXXXXOOOO",
"XXOOOOOOOOOOOOOOOO++++++++++OO    XXXXXXOOOOOOOO    ....XXXX....XXOOOOOOOOOOOOOOOO++++++++++OO    XXXXXXOOOOOOOO    ....XXXX....",
"XXOOOOOOOOOOOOOOOO++++++++++OO    XXXXXXOOOOOOOO    ....XXXX....XXOOOOOOOOOOOOOOOO++++++++++OO    XXXXXXOOOOOOOO    ....XXXX....",
"XX++++++++++++++++++  ....      XXXXXXXX++OOOOOOOO    ........  XX++++++++++++++++++  ....      XXXXXXXX++OOOOOOOO    ........  ",
"XX++++++++++++++++++  ....      XXXXXXXX++OOOOOOOO    ........  XX++++++++++++++++++  ....      XXXXXXXX++OOOOOOOO    ........  ",
"  XXXXXXXXXXXXXXXXXX..      OOOOOO++XXXX++OOOOOOOO                XXXXXXXXXXXXXXXXXX..      OOOOOO++XXXX++OOOOOOOO              ",
"  XXXXXXXXXXXXXXXXXX..      OOOOOO++XXXX++OOOOOOOO                XXXXXXXXXXXXXXXXXX..      OOOOOO++XXXX++OOOOOOOO              ",
"  ......XXXX..........  OOOOOOOO++++XXXX  ++++OOOOOO        OO    ......XXXX..........  OOOOOOOO++++XXXX  ++++OOOOOO        OO  ",
"  ......XXXX..........  OOOOOOOO++++XXXX  ++++OOOOOO        OO    ......XXXX..........  OOOOOOOO++++XXXX  ++++OOOOOO        OO  ",
"      ....          OOOOOOOOOO++++XXoo  ..XX++++OOOOOOOOOOOOOOOO      ....          OOOOOOOOOO++++XXoo  ..XX++++OOOOOOOOOOOOOOOO",
"      ....          OOOOOOOOOO++++XXoo  ..XX++++OOOOOOOOOOOOOOOO      ....          OOOOOOOOOO++++XXoo  ..XX++++OOOOOOOOOOOOOOOO",
"++            ++++OOOOOOOO++++++XX........XXXX++++OOOOOOOOOOOOOO++            ++++OOOOOOOO++++++XX........XXXX++++OOOOOOOOOOOOOO",
"++            ++++OOOOOOOO++++++XX........XXXX++++OOOOOOOOOOOOOO++            ++++OOOOOOOO++++++XX........XXXX++++OOOOOOOOOOOOOO",
"++OO      OOXX++++OOOOOOOO++XXXX....    ......XX++++++OOOOOOOOOO++OO      OOXX++++OOOOOOOO++XXXX....    ......XX++++++OOOOOOOOOO",
"++OO      OOXX++++OOOOOOOO++XXXX....    ......XX++++++OOOOOOOOOO++OO      OOXX++++OOOOOOOO++XXXX....    ......XX++++++OOOOOOOOOO",
"++XX    OOOO    ++++OOOO++++XXXX..          ........++++++++++++++XX    OOOO    ++++OOOO++++XXXX..          ........++++++++++++",
"++XX    OOOO    ++++OOOO++++XXXX..          ........++++++++++++++XX    OOOO    ++++OOOO++++XXXX..          ........++++++++++++",
"....  OOOOOOOO    ++++++++XX  ..      OO              ....XXXX......  OOOOOOOO    ++++++++XX  ..      OO              ....XXXX..",
"....  OOOOOOOO    ++++++++XX  ..      OO              ....XXXX......  OOOOOOOO    ++++++++XX  ..      OO              ....XXXX..",
"    OOOOOOOOOOOO    OOOOXXXX....    OOOOOOOOOOOO            ....    OOOOOOOOOOOO    OOOOXXXX....    OOOOOOOOOOOO            ....",
"    OOOOOOOOOOOO    OOOOXXXX....    OOOOOOOOOOOO            ....    OOOOOOOOOOOO    OOOOXXXX....    OOOOOOOOOOOO            ....",
"OOOOOOOOOOOOOOOOOO    XXXX..      OOOOOOOOOOOOOOOOOO++..  XX++++OOOOOOOOOOOOOOOOOO    XXXX..      OOOOOOOOOOOOOOOOOO++..  XX++++",
"OOOOOOOOOOOOOOOOOO    XXXX..      OOOOOOOOOOOOOOOOOO++..  XX++++OOOOOOOOOOOOOOOOOO    XXXX..      OOOOOOOOOOOOOOOOOO++..  XX++++",
"++++++OOOOOOOOOO++++  ....      OOOOOOOOOOOOOOOOOOOO++..  XXXX++++++++OOOOOOOOOO++++  ....      OOOOOOOOOOOOOOOOOOOO++..  XXXX++",
"++++++OOOOOOOOOO++++  ....      OOOOOOOOOOOOOOOOOOOO++..  XXXX++++++++OOOOOOOOOO++++  ....      OOOOOOOOOOOOOOOOOOOO++..  XXXX++",
"XXOO++++++++OO++++  ..      XXXXOOOOOOOOOOOOOOOO++++++..  XXXXXXXXOO++++++++OO++++  ..      XXXXOOOOOOOOOOOOOOOO++++++..  XXXXXX",
"XXOO++++++++OO++++  ..      XXXXOOOOOOOOOOOOOOOO++++++..  XXXXXXXXOO++++++++OO++++  ..      XXXXOOOOOOOOOOOOOOOO++++++..  XXXXXX",
"XXXXXXOOOO++++++XX..    XXXXXXOO++++OOOOOOOO++++++  ....    XXXXXXXXXXOOOO++++++XX..    XXXXXXOO++++OOOOOOOO++++++  ....    XXXX",
"XXXXXXOOOO++++++XX..    XXXXXXOO++++OOOOOOOO++++++  ....    XXXXXXXXXXOOOO++++++XX..    XXXXXXOO++++OOOOOOOO++++++  ....    XXXX",
"XXXXXXXXXXXX........      XXXXXXXX++++++++++++XXXX....    OO....XXXXXXXXXXXX........      XXXXXXXX++++++++++++XXXX....    OO....",
"XXXXXXXXXXXX........      XXXXXXXX++++++++++++XXXX....    OO....XXXXXXXXXXXX........      XXXXXXXX++++++++++++XXXX....    OO....",
"  ............OOOOXXXX    ....XXXXXXXXXXXXXXXXXX....  OOOO++++    ............OOOOXXXX    ....XXXXXXXXXXXXXXXXXX....  OOOO++++  ",
"  ............OOOOXXXX    ....XXXXXXXXXXXXXXXXXX....  OOOO++++    ............OOOOXXXX    ....XXXXXXXXXXXXXXXXXX....  OOOO++++  ",
"              OOOOOOOOOO    ........XXXXXXXXXX  ..XXOOOOOOOO++++              OOOOOOOOOO    ........XXXXXXXXXX  ..XXOOOOOOOO++++",
"              OOOOOOOOOO    ........XXXXXXXXXX  ..XXOOOOOOOO++++              OOOOOOOOOO    ........XXXXXXXXXX  ..XXOOOOOOOO++++",
"OOXXXXOOOOOOOOOOOOOOOOOOOOOO      ..........    XXOOOOOOOOOOOO++OOXXXXOOOOOOOOOOOOOOOOOOOOOO      ..........    XXOOOOOOOOOOOO++",
"OOXXXXOOOOOOOOOOOOOOOOOOOOOO      ..........    XXOOOOOOOOOOOO++OOXXXXOOOOOOOOOOOOOOOOOOOOOO      ..........    XXOOOOOOOOOOOO++",
"XXXXXXOOOOOOOOOOOOOOOO++++XXXX          ......OOOOOOOOOOOOOOOO++XXXXXXOOOOOOOOOOOOOOOO++++XXXX          ......OOOOOOOOOOOOOOOO++",
"XXXXXXOOOOOOOOOOOOOOOO++++XXXX          ......OOOOOOOOOOOOOOOO++XXXXXXOOOOOOOOOOOOOOOO++++XXXX          ......OOOOOOOOOOOOOOOO++",
"XXXXOOOOOOOOOOOOOOOO++++XXXX..                OOOOOOOOOOOOOO++++XXXXOOOOOOOOOOOOOOOO++++XXXX..                OOOOOOOOOOOOOO++++",
"XXXXOOOOOOOOOOOOOOOO++++XXXX..                OOOOOOOOOOOOOO++++XXXXOOOOOOOOOOOOOOOO++++XXXX..                OOOOOOOOOOOOOO++++",
"XXXXOOOOOO++++OO++++++XX  ....  OOOO          OOOOOOOOOOOOOO++XXXXXXOOOOOO++++OO++++++XX  ....  OOOO          OOOOOOOOOOOOOO++XX",
"XXXXOOOOOO++++OO++++++XX  ....  OOOO          OOOOOOOOOOOOOO++XXXXXXOOOOOO++++OO++++++XX  ....  OOOO          OOOOOOOOOOOOOO++XX",
"XXXXOOOO++++XX++++XXXX....    OOOOOOOOOOOOOO    ++++++OOOO++++XXXXXXOOOO++++XX++++XXXX....    OOOOOOOOOOOOOO    ++++++OOOO++++XX",
"XXXXOOOO++++XX++++XXXX....    OOOOOOOOOOOOOO    ++++++OOOO++++XXXXXXOOOO++++XX++++XXXX....    OOOOOOOOOOOOOO    ++++++OOOO++++XX",
"    OOOO++XXXXXXXXXX....    OOOOOOOOOOOOOOOOOO....  ++++++++XXXX    OOOO++XXXXXXXXXX....    OOOOOOOOOOOOOOOOOO....  ++++++++XXXX",
"    OOOO++XXXXXXXXXX....    OOOOOOOOOOOOOOOOOO....  ++++++++XXXX    OOOO++XXXXXXXXXX....    OOOOOOOOOOOOOOOOOO....  ++++++++XXXX",
"      OOXXXXXXXX..XX..    OOOOOOOOOOOOOOOOOOOO++....  XXXXXXXXXX      OOXXXXXXXX..XX..    OOOOOOOOOOOOOOOOOOOO++....  XXXXXXXXXX",
"      OOXXXXXXXX..XX..    OOOOOOOOOOOOOOOOOOOO++....  XXXXXXXXXX      OOXXXXXXXX..XX..    OOOOOOOOOOOOOOOOOOOO++....  XXXXXXXXXX",
"  OO    ..........      OOOOOOOOOOOOOOOOOOOOOO++........XX......  OO    ..........      OOOOOOOOOOOOOOOOOOOOOO++........XX......",
"  OO    ..........      OOOOOOOOOOOOOOOOOOOOOO++........XX......  OO    ..........      OOOOOOOOOOOOOOOOOOOOOO++........XX......",
"OOOO++      ..        OOOOOOOOOOOOOOOOOOOOOO++++..              OOOO++      ..        OOOOOOOOOOOOOOOOOOOOOO++++..              ",
"OOOO++      ..        OOOOOOOOOOOOOOOOOOOOOO++++..              OOOO++      ..        OOOOOOOOOOOOOOOOOOOOOO++++..              ",
"OOOO++            OO++++++++++++++++++OO++++++..    OO      OOOOOOOO++            OO++++++++++++++++++OO++++++..    OO      OOOO",
"OOOO++            OO++++++++++++++++++OO++++++..    OO      OOOOOOOO++            OO++++++++++++++++++OO++++++..    OO      OOOO",
"OO++++XXXX  XXOOOO  ..XXXXXXXXXXXXXX++++++XXXX..  XX  OOOOOOOOOOOO++++XXXX  XXOOOO  ..XXXXXXXXXXXXXX++++++XXXX..  XX  OOOOOOOOOO",
"OO++++XXXX  XXOOOO  ..XXXXXXXXXXXXXX++++++XXXX..  XX  OOOOOOOOOOOO++++XXXX  XXOOOO  ..XXXXXXXXXXXXXX++++++XXXX..  XX  OOOOOOOOOO",
"++++++XXXXXXOOOOOO        ........XXXXXX......    XX  ++OOOOOOOO++++++XXXXXXOOOOOO        ........XXXXXX......    XX  ++OOOOOOOO",
"++++++XXXXXXOOOOOO        ........XXXXXX......    XX  ++OOOOOOOO++++++XXXXXXOOOOOO        ........XXXXXX......    XX  ++OOOOOOOO"
};
