/* XPM */
static char * autumn_dark_xpm[] = {
"32 32 9 1",
" 	c #BD8400",
".	c #6C4B00",
"+	c #250B12",
"@	c #240000",
"#	c #271400",
"$	c #1C0000",
"%	c #110000",
"&	c #000000",
"*	c #230004",
"   ..   .+@+.      ..   .+@+.   ",
"#.## ###$ +  $. #.## ###$ +  $. ",
"$$$$$.#..$+$$ $.$$$$$.#..$+$$ $.",
"#$$$$#$##$+$$.$$#$$$$#$##$+$$.$$",
"#$$$$#%$#$+$$.$$#$$$$#%$#$+$$.$$",
"$$$$$$%$$&+&$$$$$$$$$$%$$&+&$$$$",
"&$$$&&$&&#+#&&$$&$$$&&$&&#+#&&$$",
"##########+###############+#####",
".+++.      ..   .+++.      ..   ",
" .+#$.# ##%#$.## .+#$.# ##%#$.##",
"$$+$ $..$$$$ $$#$$+$ $..$$$$ $$#",
"$&+$#$.$$$$$ $$.$&+$#$.$$$$$ $$.",
"$$+&$$$#$$$$.$$$$$+&$$$#$$$$.$$$",
"$&+&$$$$$$$$#$$$$&+&$$$$$$$$#$$$",
"&*+*&$$&&$$$&$&$&*+*&$$&&$$$&$&$",
"**+***************+*************",
"   ..   .+@+.      ..   .+@+.   ",
"#.## ###$ +  $. #.## ###$ +  $. ",
"$$$$$.#..$+$$ $.$$$$$.#..$+$$ $.",
"#$$$$#$##$+$$.$$#$$$$#$##$+$$.$$",
"#$$$$#%$#$+$$.$$#$$$$#%$#$+$$.$$",
"$$$$$$%$$&+&$$$$$$$$$$%$$&+&$$$$",
"&$$$&&$&&#+#&&$$&$$$&&$&&#+#&&$$",
"##########+###############+#####",
".+++.      ..   .+++.      ..   ",
" .+#$.# ##%#$.## .+#$.# ##%#$.##",
"$$+$ $..$$$$ $$#$$+$ $..$$$$ $$#",
"$&+$#$.$$$$$ $$.$&+$#$.$$$$$ $$.",
"$$+&$$$#$$$$.$$$$$+&$$$#$$$$.$$$",
"$&+&$$$$$$$$#$$$$&+&$$$$$$$$#$$$",
"&*+*&$$&&$$$&$&$&*+*&$$&&$$$&$&$",
"**+***************+*************"};
