/* XPM */
static char *bricks11739225950[] = {
/* columns rows colors chars-per-pixel */
"128 128 64 1 ",
"  c #342D25",
". c #382F27",
"X c #393027",
"o c #3D342B",
"O c #41362D",
"+ c #43382F",
"@ c #453A32",
"# c #4A3E35",
"$ c #4C3F39",
"% c #4E4137",
"& c #4E423A",
"* c #514237",
"= c #53453C",
"- c #56493E",
"; c #5A493E",
": c #554741",
"> c #564941",
", c #5B4C44",
"< c #5D4F49",
"1 c #5E5046",
"2 c #5F514A",
"3 c #604F45",
"4 c #615146",
"5 c #63544C",
"6 c #68574D",
"7 c #66584E",
"8 c #69594E",
"9 c #655750",
"0 c #665952",
"q c #6B5C54",
"w c #6C5F58",
"e c #705F53",
"r c #705F58",
"t c #6E6056",
"y c #6E615A",
"u c #726156",
"i c #73655C",
"p c #78675B",
"a c #76685E",
"s c #7A6A5E",
"d c #746760",
"f c #766961",
"g c #7B6C63",
"h c #7B6F68",
"j c #7E7066",
"k c #7E7169",
"l c #816F5F",
"z c #816F62",
"x c #827166",
"c c #897667",
"v c #83746B",
"b c #88766A",
"n c #86786E",
"m c #8A796D",
"M c #867971",
"N c #8B7C72",
"B c #907F72",
"V c #8E8076",
"C c #8F8279",
"Z c #928276",
"A c #928479",
"S c #97887D",
"D c #9A8B7E",
"F c #998A80",
/* pixels */
"Xo5sjjvvnkgj0-&&o o<jvvj-2pajssai5,58qw7q8@wyMkvkASCnxjtaydit72+oo2fjjkknkdh0-&&o o1jknj=2gagsgsi5,48qq8t7%ttkkkjZSZMvjtaaiyy72o",
".xxvvvmmMMVVVVVCh>kkcvnnattpgpjphvzvxjgghfunMknnnnjjjknkhhhhhjy>XhVvvkVccVVVVVCCf,vvxvnnattpgpzuhvhbvxhgfhikVkVcVxjhkkkkkkjgjji>",
"1jnMMNmVMMNMMMknk7kkjjxxtijvvxxjhzhghsgggftjkkhkxjkhjjvkhhhfaga=1jjVVnnVVkVMMMkMj7jvvjxxqijvvvcgxkhghaggffyhkjhkkhkjhhkkkhghhfi=",
"yvvnnMnMMMMMMMMMj1jksjjg7isjjjxjvhfghzffff1fkhkhkkkhkkkkhhfhfad-ukkknnnVkVkVMMMMx4shjgjs7igjhjxgjgfhgjfahd<fkhhhkkhkkkkhhhfffff>",
"9vvkvvkkjknMMMknj1aaaapi,iggjghgsffghfidid2dhhhhkkhjhhfhhffdady=7kkkMkkkhnkVMMMMg5iffsis;ifgjgghfgfgffiidy2fhhfhkhhhhhfhfhffafd:",
"5fhkkvkvnkjkkMkkj1ittttu5uffagifffiidddiyy2dfdddddyidfhfdhddiay%7jhhkkjjkhhkkMkgz,iuuweu4iagijiaffiifffddy2dffdhhaydddhfdhdfiyy&",
",hhhkjgffaffhkkha;t88888>uiffuiuffiyiufyyy2ddy0ww0wwtwyddddyydt&1gggkkhagadghkhhf>q00q06;iiiayiiffirfuiyyy<ddy00tttyy0yidddydyt&",
">dfduwtuiyyyyyfht-712785,5iwwqqqq0099qq00y-09999200000y0yyyyyy2%-dddattiityyyyfhu=644665;7ity0tq00099qq00y&999002792t0ttyyyyyy7o",
"-qqwtt8t00tqtt0y5=2,<33<=37656962272022225o70950959077tttt20t01@=tttttttttttttty7=4,,<3,=39556965955722255@972705527t77e0070t01@",
"&800q8t80w077t0q4$::=:::$=>>>><61121522151o122222259712200222;-X=02tt7ee2t075000,&::=>;,$=,:>><545<<515<2,o,112022072177002222,.",
"&;,2444-&&&&=-111566089966=&=.oo%%%%1;,;-=--21%%,,:2q8e;2&&&%%&%&-;111;;&&&&&;11<559q85556===.oO@$@#1;,;-=::4;%&1,-1t7812&%&o%&%",
"cmnmVclcNx%2aagffgvvvbvvvNvmznN26eujjsxmcVZZVmeXuxvmSDDVVC=2jpsjxVncVjjcVj&1fsfjfgvvvvnvnmvNznN26esgxsxmmZZZVVqXijkVSDSVVC=2vppj",
"ggjxxvxlps1afhhhjkkvvxhvkhvxfs66jcxxcmmmmmxsusx8xnnVcVVcvx7iaiasggjjckcjpg2dghfjhxvxvvhvkvkvfs66zxcxvmmmmmjsusl8jcnVVVcccx2taipg",
"gjjjxxxvvx1afadhjgjkhghxhhgfgfq,jjcncvxmcncjxxj6jjvmncjVvx1eaagfggjjjjjckj1fffihhhhhhghxgggfgfe,zvvvccxmcccjlxj8jlkvkVjVvk7tifga",
"jjsxjvxvjx5ifddfdffhfgfghggfffi5jgjcjvxxjcjgsjj8sxvvkjjjjj7eiaafjsjjjcjcjj7iffifffffgffghfgfffp4hgxvjvxxxvxgsjs8gjckcjjxgj7tiaaa",
"gssjjjjxxj6iaiydfdhfgfgfifgfure,svvxsjxxxjjxxss8sjjjjgcgss78tiadjjssjjjxxj5yddydffhgfggfidgfrrq<svcjsxxxxjjxxjsqsjjkjgcgss2ttaaa",
"apspsfgjhf<wwwyyyddyffddddddrw9:uhggxsgxgssxssa7aggjgjjshf7tdtttppapaggjhs4wwywydddwhhydddifrw0:iggggxsjgsfxgsa7gggjgjjpjs8eittt",
"iiffsfit90,0wwwwydyddiwifwiq955$8spgsgsjgssauq84ussssgjatt17wytyipgaaaat09;9w0wwyyddyydyfriq954=8apgsgsgggspuq81tsssasjaut17ttti",
"tyytu05665&20000wwyywwwq04553,,$,qasgjssauqq87048iuusau777177ttttitti87765$500w0wwwwwwww055<<><$;tsagggspuqq87848tuispt87q179ttt",
"675555552<o::<552222<<<>><,>>>,@;84565885807878188t7777571-1711727277245<5O=:<5<2222<<<:>,,,><:+;6458588578885748qqq778712;12022",
"12521<55<,o=$:::::>>>>::::>=>:=@=545,5554528544o5757555511%%>1111151114134O=$:::>>>>:>:>:::=>:=O-446,54545,8454o1717477121@&-1;1",
"@5piqupppgj65:$oooooooo#>09rr9<#oo@=5853-=o#5pajahs7878uut7->--o%5pittppigg54:#OOoooooo$>97ie6<#oo@&5q54--o%5asgsga788q8tt7>>>-o",
"upsxzzxmNmnmNNmvfio,ibNNnbghzfgif&>eequsgz5pqpujsnAVVMCMCCCCMMM#tpsvljjmNNmmBNNxiiO,dvNNvvhhzghif%;uu8uslg5pqppxjjAVVVVVCCCCVnV%",
"8knnnmmmNvNNBNNbis0uisgvvxvhhxgff=effggggl4uvvnmVnVVCMVnVCCCMMM78kvnnnmmNvNBBNNbif9rufhkbvvhghgfi-qgfggggg5ukvvnVVVVVVVkVCCCMMn2",
"0kvnvvnvNNNNNnNzbi<zhhgghhhgdffii<eiiiffaj8ikkkVvvMMMCMnMNNNMMMw5knnvvNvNNmNNbNzbi,zhhzghghhfffdd2tpipfggj8ijvvnMvMMMVMkVMMVMMMt",
"2jkkknnxmmnxnnzghz-gghxxhfhfrifrw<qiffifgi7ajgkkvvvMMMkMVMMvMMh75kkkkvvvmNnxMMzgzh;gggxhhggfuidwy1wyififfp5ajfkvvvMMMMvMMMMnkMh7",
"2hjhkkvnvvbmbbxxzx-dffgfffridrwqw<9wrwifia1gjgkkkvvvkvnvkMkkMhh72hkjgkvnvnbcvxxxvz-fffgfffridywwy,0yyqyiia5fhhjvkvMkkvMMkMkkMvh7",
"2hihvkjkgvvhxxvfgg=ffffffddiwrw00:00w0qqti1agafkkjkkkkvkhvhkhhh72dihvxhvgkvvvxvggg=ffdfffiddwy000:70w0wwti,asafvhhkkkkvkhMhkhhh2",
"2iqiygagxhghzgger5$rdyifdwwywwww0><59w0wtt-idaffhhdkkfkkkhfhlpp62iyiygsghgghhhger5$riuifdwwrwi0w0:<50w0wyw=iaadhkkfkhhhkvhfhhfd5",
",wryuquqruuirrqqq5+909q0900wwq092:><595002=5ttttyyyyddfhhhhfape;,tyyyquqruiureqqq5O6q9q9990ww0095=:<555002=5tt0tyyttyyfhhdhfydy-",
"&qqqqqw00q0q0q655<O,955555<<<,<<,o:>,<,<1,@47257q70w7wtttttitte*&000qqq0qq9q0q6553O,995559<<<<<<>@::<<,<1,%1222tttt0ttttwttttyt&",
"o>4>,4,,,,,:===*$#o##$$$:&#:$:##@..#$$&&&@o@&---1--1-1---111-1*Xo>21,4,1<>,>==*=$#o###$==$$=$:$#@..##$&&&@ %=>&-->->>>-,-11111=O",
"0uullsplp64;=+8irrrrss<.4inNmNbNmmvvxxzfry05O O=4eu81%   %-1*;4;euusslpls85-$@6suuuqfs,o5pvNMMbNmmvbxxggquw5O O;4et71@   %-1-*44",
"mcBccxllllpll0aaxMnbbvN+euuughghzgvvxvgzxzfgi.6rpsuspus7%lclsVZVccmBcllzlsslz0ifxNcmvnNOrrrrgxgzhgxxvvgzzgsgi 6uppupppl7%lljVVVV",
"cccmccnczzhgs,ghvbvvnNgOugffzzsgffgggxxxggxzgOeeuuuuuuuu-llllVxVcccmcccxxxzss>ggvnvxmmzOrgggzzpgfgggfxxxzgxhfOeuuuuuuuuu-lcjllVp",
"cBccccbzzzzgp;iaxxvvxvg=ffigfppffgpggghfdffpf$erpuuuuuu1-llcsVjxlBmccccxzlzgp,ifgvvvvvg=ffrffpfffgpgggxfsffif&quseuuuuu1-llllZuV",
"xcxxzczzxggss=affxxgzvs3fffffiffzgdzfggpfiidi$0eu888e8e;-sssljxxccxxzczxxgzss$fffxxggnp3fffffufgfgfzfgfpfisii&6uue8ee881*ssslVlV",
"xxzzcxzzsgssi@iiifgfhhe3iiiffuiiffgfggffiifdp,68ueu8688-@usjlsxlxxxlcxgzssssp#ififgfhxr<iidifriifggfggffiiffp;68uee8888-*ssspplu",
"xxzlssspssipi@yyidggfp3<wiqwrriipipgfrpdrediu*8eue88e87=%ulssasszcllsssssgspr@wdrdggfp<,wiqwrwrifrfffrdiytiii=6tue88e88-+usspppl",
"eq8q666qppiuq@0yqidqq0=,qwrwqqiwrrqrqqwyiiiue#4qe787474&+4usuiaue6e66068piuyq+0rwidwq6=,qerwwwirrrwrwqrriiyut@4q8887444*+4psuuue",
"8866655566qq4o30ww0594$:5q904953443556550quw6+,8645,111+O;6866680q66654566qq3O3qqw0994$-5q504953533555599qrw5+,78111111@+;886888",
"3464;;344>3,=.=5<5<5>3@O=:,>>>3,4,33,,,5<4<9,o&41111;-1+ =35535,3444;333333,$.$5<5<5>3@O=:<:,:3,333333,3<<39<o=3111;1-;@ *44444;",
"@=@%#@@@4=;=@ oO@#$@o  o$$+@$$::::>=@@++OO@OX .=,;>2,=-=@$@%OO@+#=##@@@#3=3$@ oO+$$@.  o=#O@#=:::::$++@@++@+. .&;;-;--=&*+++o%%O",
"1lzxs5,tpxcNBvmZBNMNNBNBS$+zfzggznmmNi0&=# 5jAASANVZVcnmmmmf065=,zlzs6,epxvMBbNBBNMmNBBBA=@zpggzxmNmNd9&&@ 5xAAFAAVVVVcVVZZp874*",
"unvxggq6vxnnMnNNmmBBABBZN34gxvgvvnMvvsgvNx@vxvnMMNNAAFZABZZZmvhtunkvzgq7vxvMMMMBmNBNZBNSm,5gxvfbxMvMvdgxNx@vhMMNVVVACAZAVVAAVjgu",
"uvxjhf50hhhxnNNNNNNNNNmNB:rgkxvbhvMvvgxfgg&kNNVNCCFCANBBNBNnNNmquvjjjf58hgvxMNNNmNBNNNmNB-qgkxvvzvMvhgxghh$hNNNNAVZAVVVVVVVjVcV8",
"qvkjgg>5gfhbhMnmNNNNNMNNn>rghkhhvkvkkfhfkk-vvMnMFNBCNNNNNNNNnzv8tjkjhj>5gfhvxvMNNBNNMmNNn>ihhxhkxhvvxfhgvh>vvMbmVVVVVcVVVVVvVjj7",
"8jjffi>4gfhkkvvvmNbvxNNNm=igghghhhxhfghhhh>gnMvNNNNNNNnvbmMnmxx58jjfii>2gfhvhvvvMMmvxNNNM=ifghghhxvhgghhgg>gMMvMnVVVVVccxjcVjcj7",
"5fgsfa=7gihhhxvvvvxvxMMvn@qgiiighhxhgdffdd&pgkvvMMvvnbxxxvxxvzs52gfgaa&7gigkkkkvvvxvxMmvv#qgfiifghhggdhffd&pgxvvnVkkvvvjxvxzvzg5",
"1iaaai&-fghgfghvggznmvxga@5ifffffsiffdfidf&7yjvvvMvxvMMvzngxhxg31iaaai&,fggghfjkzzvnnvzgf+5iidfffsfdddfiif&6rhnMknkjnnnnhvgvhzg3",
"-7qtyy%%0ifffghghhhzvhwr8o;twiiyrrwwwwwiyy@=7qywqrirfhvhsiuqwrr<,7ttyi%%qiaffggghhgxvgqr6O>eqiyturwww0wyyy@=0quq8iatajkjsiuqrrr4",
"&8q555@@5q0quurqreqrq0697 %0wqq000qq592956XO4666qqqqqqrw06qqqqr<&8q155@@2w6wwyuqutqqqq006 $0wwwwq9qq995596oO35567qqetqtt67wqqqq,",
"@55211o.,5468q6658665465&Xo126823345<54<5=  ;536444580085546763$+471,,oX;558008548655457&XX,5674,,54,542<&  >555155488785556063%",
"&&--%   o#67qht0eqe3=OOOX #&1615o+O$$45906,#%$=$=OOOOO$4q8880q0,=---%   O@65qxu8ttu1-o+oX.#=,625o@O==556052#$$%&-+oo+o&180780q01",
"Nnvjggtq;=uquscZNZAABBOiNxsggpu5=4ppffgfssxnhpfrusvs<@bnvvNnmNnnMvnjgguq;=uepscVmZAAZAopNxsghpu5=5ipffgssgknzfsrusxs1%jVcvNnnNcn",
"nnnvcnjss@euupupegfsgb<ppgnjnkv6>wrffggghghxxgvxvbffk5vvvvvMvnnMMnnvvvjsa#qeuupiujspsv1sihnzvvv7:qwsffgghgxjxgxxvjggv5kkvbvMvMnn",
"vnjvbhhgf@qqeuuppppiau2svjjjxhh5>wiiddhdffgxxfxxhzhxi0kgkMnvvvvvvvhvbxhgf@q8uuuppippau1avzgxxhh5>wiifdfffpfxvggvkkjki0kghnnvvvvn",
"kkhkghfgs#e6reieuppupu,kkgxghgg4,wiwwdyfffffggfhhhhgu5jhkgggvzkvhvgxghgfi#e8quuuupiupt1kxgxghgf4,wiyyiuffffggfggggggi2hhvfgzvhhv",
"vkihigifq$66qeq8uuiuuu&fgggghhf<>w0qywwdddfgffgigfify7hgghfhhhzhvhfgigigu#768uq8epuiiu&ahggghgf5>w9wywydidfffffiggaft7ghghfhhhhh",
"ggsgifff6$666q8ettttut%pfgffigf5:000wwydrdiddddfriif05dfghfghffhhhfgidif6$788q8qeuquut%tdggfffd5=000wwwfidddffdfydya05fffghfhsfh",
"gffddfuw;@-66668qtequu+8fauiddi,:2500wwwrriywwiqqyqq65yyyiififfigffdffrw,@=688q8qqeqre@8ddrdddi<>2200w0ywwidwwiewtww62yyrifisfis",
"dddiw5<<&o=;45e68eq846o5yyiuy09,&<<920ww0w095554<<<<=%ww800wqieidffrq6<<$O*345888ee666o4wrdrrw9>&<9290ww9w095453<2,,=%yw000wqrqi",
"95252<,,$X===$*=;;1>;;+,2553<54:#:<>><<2<:<<,<,<,::,=X0955659060994544<<#.=*=*==;;3,-;O<444<<2<:$:<::<<5<<<3,<<,,>>,=X0955965690",
"=&=&=%=&o @@@@@@+++##+X@=%%=&*$o O+#$&&&$:&:$$$$$=$$# =>>>,,,3,===$=*$$$O @@@+@@@@O@$@ #==$=&&&o.o@@$&&$$$==$$$$$*$$# =:>:,,33,-",
"oo2sjjjvkkfht>&:o o1jvnj=5ifgggsi711qet2q7@qtnkMkASVVkkyaadty72o.o5fhxxvvkggt,&&o o,jkvj=2gasgssu5,4qqt8t7%ttkkkkVSVMjjtaiiti51o",
" jxvvnmmnMVCMCMVf>vvxvnmsrrpgpzijkjjjhhhggivVkMMVckghkMkhkhhhhy>.hxbvvmmnMCNMVCCg>kncvmmattpgpzpjvxvxjhgfhikVkVcVcjgkknkkkhjhji>",
"1xnMNNNVVnVMVMkMj8jxxxxx0pxvzvbgjjhgjafhjfthkhhkjhkhghkkhhgfgga-,hnMNNNNNnMNCMkMj7jxjjjjqijvvvcjkhkfhfggdfyhkjhkkhkjhhkkkhffhfa=",
"tnvnnnnMMMMMMkMMj2gjgjgh5pghhxzgjjgghjhiff1fhhhhkhjhkjhkhhhffdf>uvvnnMMMMMMMMMkMx4gjjjjg7igjhxhgkgfhgjgihd<dkhhhkkhkkkkkhhhffff>",
"5knknkvjjkMMMMMMj1iafsii1igghggzaaagffadad1fhhhhkhhhhhhhggffddy>9vvkvvvkkknMkMMMg5pasfip;pgfjhfjfgfgfffidy2hhhhhkhhhhhfhhfffafd:",
"5jhkkvkkkkkkkvkkj,ituqeu4uffshifgaaifddiyy2fdddfaaydihfddgdddiy&5ghkkkkvMkjkkMkkh,uyueer1iafajpfffiififiyy2dfddfhfyidhhfdhffiyy&",
",hhhkjjafifghkkki1t86qq6,uiffriraaiyiydywy1diy9tt0ttt0yddddyii0%,hghkkgffidfhkkha,q09qq6;taiitiyffirdudyyy<ddy0tttttt9yddddyiyt&",
",dfyyqtyayyyyydgt=725565>5iqr0wq00700t000t-000202909t0t0tyyyyy2%>fdiiwquiyyyyyfhu=6<5665;7ityqwq00099qq00y&9999027200ty0yyyyyy0o",
"-0qt0wqqw0tqqtqy7=11,,2,=4655695252202228;%7772t9228000tt770t01@=t0tttett0ywqtww6=,,,<4,=45555965955722255@972700577777e0050t02@",
"&708w0qq0t070qqq1%-,&,>,$=>>>,<62511525<4;O;211722775202772722- &80007e80w050qq04$>>=>>>$=:,,><545<<515<2,o<112022572277005222,.",
"&,11444;&&&&=-,41758085599:$=.Oo%&%%,,>>**-;7-%%>1=1t8t11&@%O&&%&111174-&&&&=-,4<559q85566==$.oO@$@#1;,;-=&>3;&&>1-2tt812&%&o%&%",
"cmnnVxlcmj%7sfggajjkvvnvvNvmznN45tpsxsxmVZZSVV8XiknVSDDCVC-5kssjxmmcVljcmc%2ssggfgvvvbnvbNnNznN26esgxsxmcZAZVVqXijjVSDDZVC&2xppj",
"gjjlxxxxps4iffghkkvvvkkvhvxxfs65jvxccmmmVVpsuuj8jVnkmVvmcj5uaiagjgjjxcxjpg2dfhfghxvvvxhvhkvhgs66zxcxvmmmmcjsppl8jcnVcVcjcj2iaipg",
"gjjjcxjcvj1fhddfhghhjgjjghhfgfq<jxxncvxmjjlslVg7sjkVnmcvcj7qafsfggjjxjjcvj1fgfdghhhhhhhxghhfffe,xxvvccxmnmcglxj5sxkcVVjVcj7tafga",
"jsjjjvjvjx5dfddddffgggfghggffsp5jjjvjcxxjVVssjj8scccvxjjjj7qiaffsjjjjcjvjj7yddiffffffgsghggfffp3hgxvjvxxxvxgsjsegjknjjjjjg7tyaaa",
"jjpgjjjxxj5yddddfffgffgfifgfreq<sxvxsjxxcssjcsg7sgjjjjxgss7qtiddjjpsjjjxxx5yddddffghffgfifgirer<svcjsxxxcgxxxjs8sjjjjjcgss2ttaaa",
"ppppagjjja1tyyywdddyffddddddrw0:ijggjsgxgpsxgsa5sggjjjjsgg7eyytyppaiaggjhs3wwwwwdddwfhddfidfww0:igggxggxgsgxjsi7sgjjgjjpjs7eittt",
"iisafait78;00wwywdwddddwiwiq954$8apgsgsxjssauq84tassagjsut17tttyipggaait09;90wwwwddddwywfwiq954=8spgpgsggsspuq81uasaasjate17ttti",
"tiieu87875&50w00wwwwwwww055<<,<=;qaiggsaputq87047itpsute1717ttttttttu87765$500w0wwwwwwww055<<><$;taagggspiqq67q18tuispt877170ttt",
"2721724512o-:<2<<5<4<<,>>><,>,:+;8178787577785747qe7777177-1222777257555<5o=:25<<222<<<:,><,><:+;6458588578667848qqq778717;22722",
"2211115111o=::::=::::>>::::=,==O;44714454518544O1777717117%%-;-11122114533o===:::>>>>>:::::=>:=O-446,54515,8444o1717477121@&-111",
"%7sueiupijx5<>&oOOOoOoo#:05ie6<#oo+&7871-=o&4psjaap8e8q0tq21---o%5spttupigx95:$ooOooooo$>96uu6<#oo%&5q51-=o%5asgsga788q8tt5>>>=o",
"tpgjjgjVmmnnNNkkiiO<rMNNmvghzfzig%-tt8psjg5uqpuxsVCVVVVnVCCCCnv&tpsxjjxmBmvmNNNxiiO,dvNNnvhzhfgif%-8t8psgx5iqppxjjAVVVVVCCCCVnn%",
"7kkVncVcVvNNVNVMis9rrpxvvvvhhhhfa-tfagfggl4ikvnNVkVnVVVVVVCVCMM58kvmvnmmNvNBBNNbis9qifkkvvvhhzhff=tgsggsgs4ikvvMVVVVVVVkVCCCMVk7",
"0hvMvvnvmVNmNmmxvu<zxhxfzhhhdffdf,riipfgsj8pkvvnnkVVMVVkNNMCMMMt5knnvnnvNNNmNmNzbu<zhhhghgxhfffdi2tiipaggh8pjkbnnkMMMVMkVMMCMMMt",
"9hxvvvvbmmvxmnzgxx>ggghxgfhfrrdyy<qrififgi5aggkvknvMMkkMMMMvvvh75kkkkvvvNnnxbMzghx;gggxxhfhdriiry1tiffufgi5ajfhvvMMMMMkMVMMnkMh7",
"5ghhhxvvvncnbbbhxz-fffgfffiwfww0w,0wrwrdii5fghhvknMkkMkMvMkkMMk72hkjgkvvvvcnvvvxvz=ffffgffridwwwy100ywydia5ghghvkvvkkMMMhMkkMvh7",
"<fffvhhbgvvkxxxggg=ffffffdddwrwwq>90wqwwui,fgffkhhkkkkMhhMhhhhj12dihvxhbgxvbvxxggh=fffffgrddwww00:70w0wwti;fgsfvkhkkkkvkhkhvhhh2",
"2iqidffghghzhhfrr5$rfwifiwwiwww00><50w0wwq=uiffghhfkhhhhhhfhjai72ityygshhhghhhfee5$riuiidwwwwww00:<99w0wyw-idyihkkfkkhhkkhfhhfd5",
",wiwuqrqriurweqqq4O009q099qww0092=:<5<20q5=5eeqwyyttyyhhhfhfiat;,tyyiqquurirreqqq5O9q9q0900wwq095=:>555902=4ttttyyttyyfhhdhfydy-",
"&0qqqqq0qq0q860653o<965595<<<<<<>+=><<<4<,#56559t70t7tytwtwyuie*&t00wqq0qq0q086553o,995559<<<<<<>O:>,<<<1,%2252tttt0ttttttttttt&",
"o><>,4,,<>,,===$=@o###$$=$#:$:$#@o.#$#$=$@.@=:=:,>-1--,>-111;4*+o>2,,1>1,,,:====*#o$##$=$=#:&:##@.o#$$$&&@X@=>&-->->>>>,>11111=O",
"quullluls85=*+7auuuqfs,X5inNnNnNmNxMzxzfryq5o o-4eu8;%   *;;;;;48uusllpsp65=&@6fuiuqfs,o4sbNNMbNMNvbxxgfwuq5O O-4eu71@   %-1--14",
"cccBcllllsslx0aajNcnvbNOtyupfzgzzsxvxvzgzgggp 7uppupspa5%VlllVZlccmBcllzllslz0ifzMcncvN+errrgxggzgxxvvzzzzfhu 6uppuppss7%llcVcVV",
"cmmmcccxvzzsp,ggvnvbcNgOugffgziggggggxxxzgxggouuupuuiuuu;lljllVVcBcmcccxxxzgs>ggvnbxmNgOrgfggzpgggggfvxxhsxhgOeupuuuuuuu-lclpVVl",
"cmmcccczzzzgp;pahkvvvbg=ffifgsffffpgggggpfgis%eupueuuut1;sscVlllccmccccxzxzgp;isgvvvvvf:dgrfgpffffpgggxfssfif&qupeuuuuu4-lljVpVs",
"zbbzzczczgzsi$ffixxgzvp3sffffrggggfgfgfpdpddr$8eu8e8t88;*pssjjVjxccxxczxzggss$fffhvggnp4fffffufgfgfgdgfpfiiii&8eeee8e881*ppeeVpV",
"xzzzcxgzsssgi#ififgfhxe<yfifirrpfggsggfffrddd368u8u8778;%usssppjlxzxxxzzsssss@ififgshze4ydfifuiifggfggffipffp;68u8u8888-#ppVlplu",
"xbzglssssgsii@eiifhgfp3<wiqwrriifisgfrfirrdir=6euu88e77-%essspsjxzllssspsgspi@wriiggfp<,wiqwrrirfrfgfrpdttyii=6tue88e84-#esspppl",
"rq866066siuuq@0wqiiqw9=,qwrewwrwrqqrwqwwirirw$3qe888484%%4psuupueeq66888piuiq+0rqidqq6=<qwewrwrqrrqrr0ryayiit@4qu784484*+4psuuue",
"6866854576qq5o<qww0565$:5w504963443555556quq6+,88111111+o;8877786q66544566qq3O<0ww9994$=6q90456<533555959qrw5O37855111;+O;888488",
"3464;;114;3,= =4<<45<3@O=:<>>>3:5,<,33<4<<57>o=,11;11--+ *17554;3464;333333,$.:5<5<5,3@O=:<:,><<33333,,33<39<o*311;;1;;+X*444443",
"@=##%++%4=;=@ oO+#$+.  o$$++$$>:>=:=+@++O@++X .=1--1---&@%%%OO@O#=###@@#3=3$# oO+$$@o  O=@O@$$,::::=@@@@+@@@. .&;;-;--%%*O+++O++",
"3zllg21ypxcmNbNZANnmNBNBA=@zpggxxmmnNi0=&# 2vAAFZZZZVmmmmVcp775-,zlzs5,upxvMBbbBBNMmNBBmA=@zpgszxmmbNi9&$@ 5vAAFAZVZVVVVVZVp884;",
"ivxvggy5vvnnnnMNmmBNBBBAb<5gxvgvvnvMvshxNxOnhnnNVVVSCSVCVVVVnvjtivkvggq7vxvMMMNNmmBNBBCAN,5gxvgvvvMMxdgxMx@vhvMNVVVAZAVAVVVVVssu",
"ebxjjs2qgghvnNNNNNBNNNMNN:rfvxvxhknvkgxfgh&vNNNNZZCCZVVVVVVnnVN8uvjkxs28hgvxMNNNMNBBNNmNN=qghxvvgvMvxgxgxh$vNNNNCCZZVVVVVVVVVVVe",
"qjkhgf>5gshvvnnmNNNNNNNNn<iggvxhjkvvjfhfkk:kvMvMVVVVVmNVVVVnnxn7tjkjjj>5gfhvxvMNNBNNMmNNn,ihhvkkxvvvhghghh:vvMvmVVZCVcVVlVVjVxj7",
"8vhgip>2hfhjhvvvMmMbzmNNn=ifhgghkkvjfhhhhg>gmMvNmNNNVNmclnvcnlx78jjfii>2gfhvhvvvMMmvxNNNm=ifggghvhhhfhhghh>gMMvNVMVVVcVcsVVjVlj7",
"2ggaaa=5fshhkkkvvvxvvMMvv@efsirgghzhgihgfd$ihvvvMNvxbvvvzbvxbzf42ggafa-5fajgkkkvvvxvvnmvv@qgiiifhjhhgdhgfd=ihxvvnMvcvvvxxvxxvxs4",
"1yaaai=;ffggggjvxxvvmvxgf@5iiffffsffdffwdf&6uhvvvvvbvnMvhvgvhzg51iaaii&,fggghfkkzgvnnvxgf+5difffsifdddfyif&6ignMknvknnnvjvjjhgg5",
";7qwyi$%qiffffhshghzvgqe9O,rwyrwirqqw0wwyw#=60utqiirihvvfprqqer2;7ttyi%%qiiffgjghxgjvgqe6O>eqiytuwwqw0wyyw#=5quq8iitajkkaiyqwuu,",
"&8q555@+5w9wyuuqrrqwqq069 #6wwww00qq599996Xo5566q0qqqquq00qqqqe,&7t155@@1w0twuqwyu8uqq906.$0wwww00qq995996.O4556q0qqt7it88tqqqe,",
"@271,,O.,556q88546665565&Xo,56633,45<5432=  >554355300086446954%@471,,oX,5560q6548845477$Xo,56713<35,532<&  >565117188275555064%",
"==--%   o@658juqeeq4=oOOXX@=,926oOO=$499051#%&&&=OoOoo$46q60q00<=--;&   O@56qxu8ttu1=oOoX.#=,610o+O*=465052#$$%$-+oo+o%18086q001",
"Nnnjggeq>=eepsmVNAABBAOiVxsgjiu5=5ppfgfgfgxngppursbs<#vMbvNmmNvvMnnjgguq;=uuupvZmAAAZAopNxsggpu5=5ppsggssskmgfsruscf1%jVxcNnnNcN",
"nvnvvnzgs$qeuuupeggssn,spgnjvvk0:qrfffgghfxvxgvxbvffk5vvxxMmvMmMMvvvvvjsa#quupuptjsppm1sihnznkv5>qrfffghhghkxzxxjvgsk7knvbMMvnMv",
"knkvkkjgf#qquuupiipaau2svjhzvhh5>wydddhdfpfxxghxxhhhi0vghMMvvvvMvvxvvhhgs@q8uuupusppau1avzhzxgh5>wiyfdgifsfxhggvkkkki0kghnnbhvvv",
"kkgkgkfgi#e6quuuuppupt,kxfzhhgf4<wdwyyyffffghgfhghhgi5ggkgggvxxvhvhxgxfgi#e8quuuuppupt1kxgzzhhf<,wiyydygiffggggggjggi2hhhhgzvxkv",
"vgijigifq$668u8eupuuiu&fhgggghf5:w0wyyydifffffgiggffy9ggghfghhhhvhfgpgpft&788uq8uupuiu&ahghfhhf5>w9wywydddfffffigfift7ghfhshhhhh",
"kjfgifif6$668q88ettuut#psgffsff5:000wwyfrfddddifriii09ffgggggffghhffddif6#678q8qttquut%yfhffssf5=000wwwfidddffdfudii05ffhhgfhffh",
"fffdffiy;@=688888qtque@8ffriidi,:29000wwrrdrwwfqqyyq62yyriffifdpgffdddiq,@*6888q8qeqee@6ffridfi,>2<00w0ywwdiwriqwyww62yyriffsffi",
"dffuq9,<$o=;45878t8856O4wwireq0>&<2290ww0w004<45<<<,=&y0600qqrriddfrr5<<$O=,4588qee656O5qwiiw09>:<2590w00w0954532<,,=&yw080qqrqi",
"95,5<<<,$.===*==;;4;;;O,<544,5<:#:<::2<<<><<,,,>,>>,=o0055559050994554<3#.=*=*==,;3>;;O,<55<<9<:@:<::<<9<,,<,<,<,>>,=.0955559660",
"=&====&&O @@@@@@+++%$@ @=&==&=&o.o@@$&:$$=&==%=$$=%%@ &:>:<<33,====$*$$$O @@@+@@O+@#$+.@=*$=$$:o.o@#$&&$$=$==$$$$*$$# =>::,<33,-"
};
