/* XPM */
static char *bricks31739225950[] = {
/* columns rows colors chars-per-pixel */
"128 128 75 1 ",
"  c #1D2027",
". c #1E2229",
"X c #21262D",
"o c #23282F",
"O c #262B33",
"+ c #292E36",
"@ c #262E38",
"# c #292F38",
"$ c #2A3037",
"% c #273039",
"& c #2D333B",
"* c #30363E",
"= c #31383F",
"- c #2E3640",
"; c #2E3944",
": c #2E3B48",
"> c #313740",
", c #343B43",
"< c #383E46",
"1 c #343E49",
"2 c #383F49",
"3 c #3A4047",
"4 c #36414D",
"5 c #3B424B",
"6 c #364453",
"7 c #3B4652",
"8 c #374857",
"9 c #3C4956",
"0 c #374858",
"q c #3D4C5B",
"w c #3F505F",
"e c #3F5060",
"r c #41464E",
"t c #44494E",
"y c #434A54",
"u c #494E55",
"i c #424D5B",
"p c #484F5B",
"a c #43505E",
"s c #49515D",
"d c #445363",
"f c #495664",
"g c #4B5867",
"h c #475768",
"j c #485768",
"k c #475869",
"l c #4C5B6B",
"z c #505662",
"x c #525A66",
"c c #515E6E",
"v c #4F5F70",
"b c #515F71",
"n c #54606F",
"m c #58606C",
"M c #4F6071",
"N c #546374",
"B c #596676",
"V c #5B6877",
"C c #566678",
"Z c #596678",
"A c #57687A",
"S c #5C6A7C",
"D c #616D7E",
"F c #5E6E80",
"G c #616F81",
"H c #647284",
"J c #697486",
"K c #667588",
"L c #697689",
"P c #6B7A8C",
"I c #707D8F",
"U c #6E7D90",
"Y c #717E91",
"T c #748194",
"R c #788496",
/* pixels */
"ypxgxcyO49iadddf4..1dhgcccc$>7qsdfflddf3,.wdkklkwwwww744%....$&5yixfxlr+19qaddad7..3ahgcnnl$>7iaafdjadf4,.ekkllkwwaaw644%....&*4",
"SHDDKHHHlNAACN94sNZpnHLTKHHdNlNvCANAABNa3:hMkklkvMNMvMNNM$NNSSDDSHDHJJKHlCACCC75aCCanHKTKHKsblCvCSCSSZNi3,hMkklhvMNMMMCNM%nCSSSD",
"PTIPLLHPGBd714cSSSSGScCAADg3NCANCZKAly>,,=ddNllCMlMMMMAAN7HDPPJPPTIPJPHJHBa414cSASDSScCASDf4NCCCNAKSg7,,,;afMllNMMMMMMAAN9HDJTLT",
"PPLTRIBgzfp2FSDHSSHHSSVklN7lHPKLULGG5<,=1=9iaaasMNCSFSASNfDDHGJJPPLTRINzgfs5GSGHDAHHSSAgcn7lGUKLULFF53,>3=7yeaddcNCAFSAACeSDDDJD",
"JPJJJJxr22<2GYYLGHDDSSCCj7>cLHFHZAZSf>=>=&yqiaaaadsfkMv3;3SSDDDDJJPJDJzr33<2GPYPHHDDSSCAh7;nJKGGZSZAf====&8aiaasadshsMc3>1SSVDDD",
"DDJJDDBtt2<5SGGKDfnnMSANbbybGHCASCbbN3>>=&89q99adswsdds4&,CVVDDVJDDDDDDrr5<5SGGKSfnnNSAMNM7cGHBSAZNbN1===&87997adsasfff3&3VVVSDV",
"DDDDDHDrrr5ibBSGy55,3333,1>NSbbNNNMvl9,=&1;59779q9aiswsw$=NNmVVSDDDDDJDtrr4iNZSDy55,3333=3=NSbNbBNNlM9,=&4-59879w99as9si$=NNBVVD",
"mDVDVNmst2<abbCZ3353333,,*>BBbCbNvvvlg>&,H1+77797999wwsa&+nnnNNCDmDDDmBur5<icNCZ3333,3333&=NNbCbbbvllg==1G3$7778779wwwfa&OcnnCmV",
"mNnBBNBc5<<ilbNl33333,3,>*&Clbvllhhhhd1&AHfy,47q969999af=+alvnNnNNNBBNBb5<<ilNNj3333,,3=>*>bbbblljhhhe1-NHfy,66q7778qyid;OslMvnn",
"NBcNBbNbr<*9llbp3,,,=,>,,*&hbjhvhhdqde6-f5>;-O&1=499w9a9;+7lgcnvnNbNNbNbr<&9gvbi3,,,=,,,>*-fljhvhhdqha6-d7>,&O&1;39qi8iq;+7glcnv",
"1125771-OXX-dlf<,;=,;,=&*;$pvdddqdq67addd7+.dMNax9$qggvgs79a57111114r71-OXX;hjj21=>>,,=&>>#alhadqdq67aaff7#XdNNdg9+ilgnga79s7743",
"1LFASGGGDHGcai7,=&==&=;;>>-167a1@O7CCCAKDy,oSSSFDDiDTJSVSSSSCcgO2JHASGGGGHHxii9,===;&==;;>-177d,OO9NCCSKSy>XSSBFHDyHTHSSSSSSCckO",
"4BSHPUUKHHLJJHfX*8hgFFFHHKKF>fLKS4jllvvNNi>+cZHJTg4SHytuu9ysi75*4BSGLUUKHHJJJHsX;7hgFFFHHKKF<fLHF2hllvbbNp>+cBHPTg3SHyyuu7ysi73&",
"iNZSFGKYTTSxfr5,klCCAAFFGZ7>-xJi27gllggNNg=+gNNZD53VS5533333,3<*iNZSGGKYTTDxfr5,kkNCAAFFHC8&$lLi62hhlljbvl>+lNNZS53SD3333333333*",
"dbNZSGGLJLprtr5<8wwwdhhMCv>>&iB,>1dhhgjjgM,$dlbNV54Nn,<3333,33=*dNbSSGGKJLirrr5<6eeddkhNNb=**iB,>2hhdljjjv1#agNNS71Nm<3,,3<=3,,&",
"ablbCZFGKLprr5524qwddhlllM2*&>c,>0hhqdhhlg8,qhgNC54vf33=*==3==,*ablbBSSKJLprrr5<6qeedhlllv5*&,c,>9hhqdhhlg7,ihgvN43Mf=5,=,3,=3=&",
"0djhcbCFGGt<<<<<;088dddhlv4>*>l>>9qaeqehddq>7ddfb21vi<2>,,2<<>>$9dvhlbCGGGi<2<<<>900dhehlv2>&1l*>9qqaaedddq11ddhN21cy13=,<3<<**$",
"2dhllvbCZGy<<<<,308qqqeekhi-&-d>#00qqqqhddh>690dj,1l<<2<,,,>>>*&2dkklvbCBDy<<<<,<q0qqqeelhq-$-d>&00qqqqhddh:1qqeh1>l3,<<,=,,,**&",
"1eqdlllNBSi<,,,*,:8660qdhhd-&$i>#606qadqehh1:0edj,#d,,>>*=,==>>$1eeellvbCZi,,,,=>:6000qehhd&&%i>#600qeeqqhh2:qehg>&d1,,>*=,=***$",
":qqqddlvbCy,><<,;-6600q0edq#$#9*#a60q0qqqqd7&0ehh7o,**>>==>***&#:qqqadlbbBy,><<,>>1060q0eae&$$9-#q60q0qe0qd1-qekh6o>*>>***==***$",
":q0qqehllbi>*=,,&3,-:060qqw+$O>&O17q60001:--O-16a1.. XXOOOO*O#X.1q000dhllNi,*>,,-21-:0609ea+$X1&o16q606011--o:11e1. .Xo+OO+#O&X.",
"72667qdhjlf>&*,9CPGf2.6a0111dbCNbl-X29qdhkkkkhkva7i6Olbsorsglvsi71776adhjld**>,8bUGs2X2d911:aNBNNc-o1qqdhkkklhlld9a4Ofbpo7allxpi",
"SNCbi7;1127OoX4vHNfp1XHPB,SNCbNlC7>&vhlbvvhvlvvvlvbd2ZGyoHYKbxbbANZbi7::166OoX4vHbzi;XHUN<ZZCbClB7>-lhvvvkhvhllvlvMh1ZS7OHYKNllN",
"CZSAZBdX1ivbNcdaqdffNl7cp1NNNHHHc---dldjhlvCAAAFSFN>2bl,#JKGPJDZCZZSZZaX,ilNNxfaafflbv6va,NNNHGHb&>&hhhhhvNCFbFFASN>7bl<$HKHPKSZ",
"LKGGFBc>ACMNNNNvNSAZNNN7&ibblNCNS>>>7aahhlllvbbSNCi*ybl>&DGGGHJIPJHFSbb>FBbNNNSlbCSCCbN9-ibblNNZS>,>7idhjhllvbbFFbi&ibl1&DHHGJHI",
"KJYYc72>VSSNFSSNAASNSNCd>dlhfgNNBi>>1jqddqdlvlbbbC7&bll2>ZbBbDbZHLTTc22,ZZSCSSCNFSCCBBCa>dvjhlNbbi>>1fqadadlvjbbbbr&clg2>BbbbGBZ",
"GGLLG<2<lNNNNNNNSHHKKZ1*;dedgjjlbN1##0qaqdhhllvbbb1#fll7&bllZZZDGGJJG2<<bbbCCNCNFGHHKZ,>-dqdhhhlbb1$#0qaaadjllvbbb,#jgl2&bvvZZZG",
"SSGGLf<,glllNMNNNZZSSf,*6qeddjjjllj##;070qqhldhbbv&&gfl7>lfvbbbZSFFHLz2>flblMNNvbBZFSf,>6qeddghhbbf##;060eejjjjvbb-&gjv2&xzvcbbb",
"bGbSGG,>9hhhlgbjcbNNAi>>000eehhgkvv1O&00q0dhddhlvl#>gdfa>adhljjbbGBSGG2>9dhhglvgbbbbFy>-000dahhhkvv2##70q0adddjlbb@>ldji;addxjjb",
"bbZGDZy>;aqdhhhjllvvN>&$600qeehhhvdh1O:qaqqqdeqdld#:fjjd>1aaafflbbZSGZr&:aqdhhhgvlvvb;&#670qqehhhhhh1O1qeqqedeidld#;dljf-1adajjj",
"bbbbZBbooqqdqdedjjlhb1#O006000eeehhhhoO0q0qeaeidh9#>ihda;18qqdhjbvbbZZbOoqqaqdddjjljb2#X00600qeedhdhhoOqq0qeeqidhi#,iddd;12aiajl",
"jjaajfi>OO10qqeddhldq$..$;:06066611@. .X-20qqq70e7@o->1>#O$10qqdhdaajfi-OO10qqqddhlda# X@::06066611@ ..X-10qqq0qq2@O-;;;OO-:0q9j",
"#jhjlllNNNNSfffa77$ iNJJDDDDzfify#bGN7LDZSZSBcNbllgd5O,IDHSDBp> %ddhkllNNBNSfgfi7y+ yVJJJDGDffps0-bFbyKDVSSSNnNNllhd7O>YDHDDBs= ",
"ibCCbNMNCCASSSSVZAN&HIRcxmxztt52;@2ZycZKJSBZSNgssr1===NTRDmfyr<XqNANNNNNNNASZZSZBZN*DIRcxcgsyy52>#7BicZGHSBVSngsu7,,=&NYRDBsy5<X",
"ivbbNSSSFSSSSSSSSFl1DHJututtt5,<>#-01NZSDJstrr5,<====;DHxrr3<,,*abNNNASSGSSZSSASSSx4DDJstutrrr=<>#&01NZDDHstrr3,,3=,==DJc3r<<,,*",
"9vvllNblNNFGDLHSp5<>xBJzuurtt<<=>-O-pcNNccrr353<5,==*&SSu5<3<<=$qlvllMNlNNHGFPGGs4=*cDJzuurrr<<=>&O-axBbNmt555333,===*SVyr<<<<=$",
"adhhdlhvvvNNNNSS,<,*xNZxuuur5,<,>>&-fflxBs33<<,<<****&NZ<<<=,<=*ahhddlhvlMNNNZSS,<,&lNBxuuurr=<<,*&-ffllNs53<<<33&=&=&NS<<<=<,,*",
"6qqqdddhdglNNNNS,,>&vlbxrrr<3,,=,>&1jljlcu333<==,==$+*cg<=<<=*=$6qqqddehhglMNNZB,,>&clNzttr<3,,=,>-1jljlny533<==3==$$&cg<,,<,*=+",
"7dqdeaeqdhhhgvNN2>>67plzrr,<<=,=>&>ididjf<3<3=<=<,*&*1lr<=<==**$6eqweddqdhhgllbN2*,77pggrr<<,,,>>*>9didlf<33==,,3,&&=4l7<=,=***#",
":00q0qqeheqdhgvc4>-NHFb<<rr<,=,*>*#7dadjf1<3===,1&&&#,g=,===*&*+;qqq0qqqddqdhgvv4*-NHDc,r25<<>***&#9dadff<<3===,,$=&$,h=<==*&*=+",
"-q0qq00weqieedjg9&9lCcr5=3<1=,,&&$+6dwday,<,==,=>&&+$1a==&=*&&&+-q0qq0qqeeeaedhji&9lZb5r>5,1=,,*&&+7ddda9,3,==,,=&*+#;i*=*>*&&&+",
"Oqeq80qqeqqqqqdha%qhjy<>*&<>=*>&>$O&qded3==,,>,&*&&#+#1**&&&&&$OOqd060qwqqqqqqdji$8hlr<,>&<>=**&>#O#qaww1==,1>=&*&$&##<**&&&&&&O",
"glf995,;;;161->-$-799&&*&&@-2147asds9799;&$;4343#o12727753+$<scfglfy841;:;121-1&$-60y&&*$&#&2144paafi799>&$=7421+o1772r7<5+$1fxg",
"HGBASNNdoivMMNNCCNNNcCf1fjgNgccblANNSVNNNl>ANCCD2sSDBBDDASi=HHSHHFNSSNMdoevbNbbCCNNNlZj,hglNgccNlBNNASNNNl,NNNZG4pZDBZDGDBy&HHSH",
"HHSngy5,1ZSANNMCNbNNNp19NCZNSFNCCSSASBNbd17nFLHd,iZLczpp75*7NHPJJDDcgy5<1BASNNbBNbZbNi1rNZZZSFNCNAASSCBcd17NFHGp<iBJcfpp52*9BHPH",
"u535<,1<>vNNHKHKGGCa,*&iNllbNCSGSHLLc75**&alNNS,2ibDp<<<,,&fNBDfur53<,,1>vNBHJKHGGBi1*&ibllbNBSFDHLJb72***agNCD,<yNZp<<<,,&fNBDf",
"3533<,,>>flCNZSGHUi,>>>9jlbcvNNCCNSDg*>**>ddfNs>>2bcs<<,,>,lccN53533<<,=-flNNCSGKUi<>>>9hlvvbNNCBZSFf*,*=>hdhNa=,2bBs<<<,>1gccn5",
"555,,>>>>iglbNZZGG*>&>>9fjljllllNNSAc>>***qqgc9>>2gll<,**=4lncs3553,**,=>ilvvNBZFG>>&>>9hjlgllllNCZZc,=**&qigl7,>1fll<>=*>4gnns3",
"<<,<,=,,;4hglMNCZl*&&&&6addhdadgvNNCN>>=&>iaqd>>>>ddf>>**&9dlc5=<<,<3=,==4hhlvNNZx-&&&&6addhdaaglNCCN>**&-qaid<*>>ddf,,=**idlb2,",
"<==,=***&4hdhhlMbp->>&#>ww0awdddhglvN4&&#2iada*>&-aah1,>&>idfl,>,,======&4ddhhlNNi&>>&$;eeqqwddhjjllN5*&#2qaas>&&-dif2>>#*9djl,=",
"=====&&&$%qwadllb1&&-$+;8wwqqwwdhhglMy&&tu5yq7-##*dia2>*&*aali,,=====&&&%%wwedlgM4&&&$@;0eaqqqwdhjhlli&$ru7iq2&&#&dqi4>***pdlp=>",
"==,*&&&&+%6qwdddl&#&#+O@8qqwwqwqqqhhhi$5ttu*6>####iad<**$Oqhl2>>,,,*&&&$+%6qedddg&$&$$+@0qqqwwwqqqhlf9+rryy>0;+#&+idd1*&+Oqdl2,>",
"===&$$$$$$-16dddq&$OOoXX4wqwq7764;>1+O$rrr<*+$$+Oo-2a7##O X;w=&===;&$$%%$+-48dedq&$Oooo.6qwwq7841;>1#++rtt3&o###OO#6i7&&O..>p-$>",
"7DKLHHDHDNVNSb4&OaficNDDHDSNll#pcn>7gcDJJHBczpr.lFv1>dsaiay9qy4O3HLLDHDHFNSNSM4%OadsnCDSHHSNlg&scc,9xxGJJDVmzz2OlDb1>adiiii99i4O",
"gPKLKLSHDSFNMll7&NNSSSSVHSSZHb,BJc2DJITDGBbmpyr*lla&AZbCclNclgy&gLKLKLSHDSSNNll9=MNVCDSVHSSSHN,NLb2SJITGDVnNuur*llp&ACbNclNclgi#",
"knKVnNnfiapy54,*;hghglNCFHKBG7&dSr,VSDJutrt5<<<=2fy1NbKKNui51,=$gNKCNVnsyss954,=;hghllNASHHVG4&dDr,ZDDHttrrr3=<,4g72NNKKNii52,,+",
"hcg33<<<,=,,,>=>4ddhhsdlvlllN7$1Nr2cBDcrr355<<,<,h2dcNZB7<<<==,&dvx<<<<,1===<==,4hddfddlcllcv2&1br2cBZBrr<3r<,<,>h1dcNSVr33<*==$",
"ald3=,,,,=<=>*>*4hdadwdghdlgl9&;Bi7lcNutr<55<,,,>>1hllBp,,===*=$dgf,,,,<,,1*=***4hdddadgjaljvi&;Bi7lcBprr53r<,,,>;1hllNa,,=*=***",
"kd4,*,*,=*=**&#&qdddddddddhflh&-ly1glcrr555<<<<*>>:dlbb,===*&=&$hh7,*==>=***&*&+qhdddddddddjlj&&ly;jxcr5553<<<=*>*>hgbv,=,=****$",
"ek3=*=*>****&&&#qqqwadadadaddh-&d71flf2t55<<<,*=&&0dfb4>==***&$$dd<=*=*=*=*&&&&+qq0eadaaadddah--f72hlf5r55<<<,=,&&8dfb5====**$$+",
"ww>**>&*$*#*#&#$qqqqadq8ww0qdd;+q16fjy<5<<<<**<**-edka****&$$&$Oiq>***&*&&&&&&#&qqqqddq9aq0qeh;#a17jly<<<<<<==1>*-ehla&==&&&$$$+",
",8*&&&&&++&**#&#qwq8qqq0qqa0ww4$117di2<,,,,<**=*&1edd->*+*$$$$OO10*&**&&&#&-&#&#0eq00qq0qqaqee:#1>6di<<<=<,,=*,>*:add==&$&$$$$O+",
"@:$$*&&&$+**+OO+q0q88qq88q888q6%1>qq71<<,=,==***&2eh>#&#++++$&$$O1#&&&&&++&&+OO+q0q00qe00eq06q6O:>qa7,<<==,>==-&&4qh;$&$+$+$$$$+",
".+++$+$$###++Ooo%::44:446444;&&.. o1&&*&$*&*&&++.#1;-O#oo+$$+oX .O++++++&#$+OOOX-;:1116:6111---o..o>***#+****#$+.%1-&++o+o$$+oX ",
"yixglc7+40qiadaf7..3dhgnbbc#;2iasskkshh44.weeMlkwwwww644#X XX&&5ipxfxx9+19qaddaf7..3ahgcnnl$;7iddffjddf31.wkklMkqwaaw644%....&*4",
"DHDDJHJHcCASCZ77aNNaNHLULGKsbvCbAACSAAn933lNlelkvMNMMMANl+cBSSDDSGDHJJHKlCCCCC74aCCanHKTKHKsvlClNZNFSCNi3,hMkkkhvMNMMMCNM%nCSSSD",
"PTIIPJJJHNd411lSSSSDSlNSZGg2CCZbCAKAg7,3==skMMMNMMMMMvSAN9DDJPJIPTIPIJGJHBd614cSASDSScCASDf4NCSbCAKAg7>1,>afMlMNMlMMMMAAN7DDJTKT",
"PLLYTTmxgss1HSFHSSHHSSAgcb7lKLKKTPDD53,=4&99awsscNCSSAAANfDDDHJDLILYYIBxgss3GSDHDAHHSSAgcn7lGUKLUJGF53,=3=79aaadMNCAFSAACkSDDDJD",
"JPPJJDxr3335GUYPHHHDSSSAf7-bLKGGCSCSd,===*8wwaiaaashfnl3,1ASDDDDJJJJJDzr3<<2GPTPDHHDDSCAh7;nJHGGZANSf====&9iwaaasdshsMM3,,SSVDDD",
"DDJDJDBrr5<5ZGGJDfnccBSNNN7cGGBFCCMnM3==*%99999iahasfff1$3ZSVSDVDJDDJDBrrr<4SDHHDfncnACMNM7nGHBSSZNNN1==;&899y7aadasffg3%3VVVDDV",
"DDDDDJDrrr5iNZSDy333<<<<>,>BSbNbNNNlM93=%3&789999i9adisi$&NBNVVSDDDDDDDtrr5iNCSD93333333=3=NSbNNNNNvM9,=&3*79779w99asis9&*nNBVVV",
"VVDDVNNsr3<icNZN335,1<5<,*>BCbNbNvvlkk=&4D3+77789999iidd&+ccnVNCDBDDDmDur<<icNCZ3333,333,&=CZbNbNblllg=*:G3+7778799awqsd&OnnnNVV",
"cmNBNBNc53=ilNNl3353333==*&NlNvvlghdld1&CHsy,67q979999as>+dlMnNnnNNBBBbb5<<ilNNg3333,,3=>>&Ccbvvllhhla1&CHfr,6787799qyid;Oslvnnn",
"BmNNNcBm7<*yglNi3,,=&==;1&*flghlhhdqde6-f7,,&+%4=399i9aw>+7gllNlNBbNbbBbr<&9gvNi3,,,*;,;,&*fljjlhddqde6-d7>>&O&4;499q8ii;+7lgvnv",
"<11479,&$XX;dgh33;=;3;=&;*$ilhddqeq67ddad7+.dNNsk9$acgvgs79a57311114y72-+X >djh1,;,>3,=**>#alhddqeq27dddf7#XdNNdf9+qcgcga79a774:",
"2JGASFHHDDDcaq91&*==&=*,>>-177d:@O0CCCCKD9>XSSCDHAiDTJSVSSSSAvg+1JHAAGGHGHHcai9,====&&==>>-167d>@O0CCZZKSi>XSSZFHSyHTHSASSSDCcg+",
"2CSKPUPKHHPJLHsX*7dlSSHFHKKF,fPHS1hhlvbNNp>+bCHJTg4SHyyyytysp75*4NSHLUUKHKJJJHfX-6dlFSGFHKKF>fLJF2hjlvbbBi>+NNHJTf5SHuyuyyysi75=",
"ibCSGHHTTTScsr5,klCAAASKHZ7;*lJy47jllgjNcl>+lNNSS53AS355<<<<<<<*iBBSGGHYTTSxfr2,llNAAAFHFA7;*lJi26hllljbcl>+lNNZD53SD53333333,3*",
"dbbZSGGKJPs5t7538wwekkkMNb>**yB,>2hhdgjjgv1+alMNS53Nm3,3<<<,,,,*dbbZSGGKKLprrr5<8qeekhhNNb>=*iB,>2hhdlhjgv1$agNCS53Nn,=3,33=3==*",
"dblbCSSHJJsrrr3440wdeklllb4*#1c,>9dhidhhlg71qfgNN54ns,3,<=,<,,>*abvbBZDHLLprrr3<6qedeklllN4&&,c,>9hhidhhlg7>ihgvN54Ms35,,=,<=3=&",
"9hjjvNCFGGy<2<<<;009dhdhhv1;&1l*>9eedqdddda>7ddjb22bi>2,,,3<<>*+9flhlbCGGGi2<<<<>900dhehlv6>*1l**0qeeeadded>6ddhN21cy13,,,3<<=*$",
"6ajjllNCZGy<<<<>1q0qqqeevhi-&-d*&06qqqqhddj>609dl2:l2<<,,,,,>>*&6ahhlvbCBDy<<<,<2q00qqedlk9&$-d>&00q0qehddh;20qeh11g3,3,,,,,==**",
"1qadlhlNBZi<<,>>>:6660qhhha-&$i,#607qeeqqhh1;9ehj;@d1>,>*=,=***#1qedlllNCZi,<>,>,160000dhdd&&%i>#707qaeqehh2:qehj>%d1,,>*=,=**&$",
"1q0qdhkvbCy>><<,;-6660q0eaa#$#9&+e60q0qa0ee6&0edh2o:**,*====*&*#10qeddlbbBy,><<>>-1060q0eda$$$9-+q60q0qq0qd2-0ekh6O>=>>*=*==***$",
":q009dhglbi>*>>,&21-1060qqa##o1&o16q1q6061--O;46a2 . XX@OOO###XX1q900ehklNi,*,=1&22-:0609dq+@O>&O16q60001:-;O:11a1.  .oOOO+#O&X.",
"01766qdhjlf***>yCUGs,.7iq1;1abNNCl-o1q0dekhkhhlla9a2Olbdo5dxlbpi71767qhljld**=,8CUGs1X7a9111pNCNNl-o1qqdhhhllhhvd9d4Olbpo7allxpi",
"SNCbi7>1227+XX7vHNfp1XHIb,BBZbNbZ7>#vhvvMlhMllvvlvbd2BF2OHIKbllbSNCbi7;1147OXX4MHbfi>XGUN1NZClCcB7>-lhvvvvhvhllvgvMh1BSyOHYKNllN",
"CZZSSNfO1elbNbdiiadjNc7bs1bCCGHHc&>*hhhhhlNCAAAFSFb,7bx,$JJHIJDBNCZSSBaX1ilbNxfaidfjCc4bp1NNCHGHb&>&hhdhhkNCFbFFASN>7bl,#HKHPKSZ",
"LLGGAZc>SNbNNNZlbAAZCNb7&ibblbCCS>>*7aahhhglvNNCZZa-ibl,&GGHGGGYPLFFDbb,SBbbNNClbCSCCbN9&ibblNCCS>,>7adjdlllvbbFZZi&ibv1&DGHGHHI",
"KLTYc52,SAZBFASNFSZCCCCd>dvjjlbvBi,>1didddhglgvMbB2>xlg<>ZbbZFBBHLTTb52,ZZSBGSBNFSCCCBCa>hljhgNbbi>*;fqadedlvjbbbb5&clg2>BbbZGZb",
"GGKLD<21vbNCNNNNSGKGKB,>;dqdjjlvbN,&#0qqqdhhllvbbb1#jll7&blbBZSSGGLKG,22bbbCNNZNFGKGKZ,>-dadhhglbb1&#qqaaadjllvbbZ1#jgl2&bbvbZDD",
"SGGHLz<,dlblNNNNbBSFSf,>6qaddjhhlvj##;000aqhhhlvbv#-lfj7-xjbxbbCSGGGLz,,jlblvNClbBZFSf,*6qeddhhhbcf##;060eejjdjbbb&&gjl2&xzbbcbb",
"bGBSGG1>9dhhglvgvvbNSi>-00qeehhhllk2@-60q0ahdhhhbl#>jfdd>addlhjNbGBFGG2>9dhhglvhbbbCSi>*000dehhhkvv2##70q0edddjkbl#>ldji>addcjjb",
"bbBSSZr*:aqddhhkvllbb,&@676eeehhhvhh1O:qeqqqdqqdjd#;djgd>2ddadfgbbBSFZr&1aqdhhhgvllvb>&#670qqehhhkhh1o1qeqqedaadjd#;dljf-1adsdgl",
"vlbbSBNOoqqaqdedhlljb1#o006000eeehdhhooqq0qeaaadjq@>afdd;:2aedfjbvbbZZbOoqqaqdqdjjlhb1#o006000deehdhhOOqq0qaeeadhy#1iddd;10iqddl",
"dhfadfi&OO10qeeddhldi$..@-:06066621@...X-1qqq900a2#O-;;;@o-:9q9fhdaadji>Oo10qedddhldi#X.@::06066611@ ..X-1q0i06qq7#X-;>;@O#;qqqj",
"#dhhlvlbbZNSffdi77$ uNJJDJDDffia9&NSNyLDZSSSNcNNclhd4O,TDJDDNs= &ddhllgNNNNSfgfi77# yNJJJDGGffppq-bFC9LGVSSSNcNNllgh4O1IDJSDBa> ",
"iCCZbbbCNCSSSSSSVSN$DIRcxxzpyy55>+7CycBKJSBBSmgai53,=&BIYDmfyr,XqNCAMNMNCNSSZZSZBSN&JYRmxczpyy55;O2BixZGHSBVSngsi5,,=&NIRDBsu5<o",
"ibbbbSFSFFSSSSSSSSl4DDJsuutttt,==+&01NSDDJsyrr3<<<====DHxrr3<,,*iMMNNASSSSSCSSASSSx2DDJptutrrr=<>##0<bZDDHstrt3,,3==*=DJx5r3<,,*",
"qllllbbvbNGGSJHSs51>cVJzuuttr<<,>&O-albbcct3r33<3===**SSu3<3<2>*9vlllNNNNNHGDPGGd5,=cVJzuurrr<<=>>+-alBbNmt555333=,=**DVu5,3<<=$",
"qhdhdlhvlvbCBZSS,11&lNBxutu52<<,,=&-dhllBf33<<3<,==**&NS<<<=,,=&ehdddghlMlNNNZSS,<,*lNBxuuyr3,<<,>&-fjllNs53<<<33*=&=&NS3<<,,<>*",
"6qqqdddhhjlbbbBB<=>$lxNxttt5<,==,>&1glflcy3<<<==,==&$&cg<,=<,==&6qeqddehhglNbNZB,,>#clNzytr<r,==,>&1jlfcny533<==,==$$&cg==<,,==+",
"7eqdede9dhhjlbbC<=,79pggrr<<<=,==&=9hqhgg,<<<=<<3,>&>1l5<=,,==&&7eqdddwqdhhhlvbN2>,77pggrr<<<,,>>&>9jidjf333,=,,3,&&=4l73<,,**=#",
":qqq0qqedeaahllv4*>NHSN1555<<,===&&9aadhf<<<=*==,&&$#,g,<===$**+:q0q0qqqddwdhgvv4*>bHDc<5<r<,=>*>&&9aadff,<3===,,&=&$,h=====$*=+",
"-qq0q89wdeqeadhh9&9lZb5r*<<<>><*&&+7daaa713,,>>,>&&$#1p>>==&&&&+-qqqq0qqdqeaadhhi&9lZc5r>51,=,,*&&+7dwdw913=,*,==$*+#1p*===*&*&+",
"O0eq80qqqqwqqqdha&0hlr<,**2>>*>#>&O$wwda3==,,,>&=&$$##1&&&&&&&&OO0q060qea0qqqqdhi$8hly<,&&<,=*>&>$O#aawa1==,,,>**&$&O#1***+*&#&O",
"xld9851>;;441-,&#-79y##*$##>1127aafd979q&&$;4521+o37r27r41$$1fxgllsi841;;;161-;&$-609&&*&&#*2144aadf9799;&$=4421+o1772r7<2++1fxf",
"GGZSSMndOwlNNbCNCNNbbBf1zglbjcbclBNNSBNNNl,CNCBD4sSSBBDGDSi&HHDHGGBSSNMdoivNNNNCCNNNcZf,hggNgccbcNNNSSNNNl,BNBBD5aZDZBGGDBi*HHDH",
"HHSngy511NAANNNCbbCNNa17CZZNSFNZNASSSSNcs17NGKHd1iZPcfpp54*yBGPJJHDcgy512CAANNbBNbBNNi17NCZNSFNCNSSASZBba<7nFHHf<iBJczpp75&yNHPJ",
"s533<<<<,lNNHPHKGHCa,>*ibllbBNSGSGPJc74*==wgbNS,<yNZp<<<,,#fbBDsu553<,,3,lNNGKKKFGBp,>*iNllbNBSGSHLJb72*&*alNZZ,<iBBi<2,,,&fNBDs",
"353<<,==*jlNNCSGGYi,>>>9jlvlbNNCBZSSf*,*&>ddfNf>,3vNs,,<,><lcccr353<<,,,>jlCNZSGHUi,>>*9hlvvbNNCBZSGf*,*>*ddhNa=,2cNs<,<>>1gccN5",
"555<**,=>igvvNBZGG>*&>>9dlllgllbCNSBc=>=>=qqgc7>>1gll<,==*2lbcf<553<===*>ijlbNBZFG>>&>>9hjlgllllNNAZc,**=;iqgl7,>1flx<,=*=4lcns<",
"3,,3,==;-4hjlbbCZc=&&&&4eddgddqgvbCCb1***&iaqh>>*>adf,>*&*9dln5,<<<<,=,;=4hhMvNNBx-&&&&6dddhaaaflNCCN>==*-qaid<*>>ddd,>=**ialb2>",
",,,>====&1dhhjlMbi*>>&$1eqqeeddhhjllb2*#+2qadd*&&-adf2,*&=qdgl==,=======&4dddhlNNi&>>&$;qeqqwdhhjjllN5*$+2qaas>&&-dif1,>#*qdjl=,",
"=====&=&$&qeddglb2#*&$+;0dqq0eedjlkkbi#*tu79q6&&#&dii4>***adgi=>,==*==&&$%wwedlgM4$&&$+;0ed00wwdhjjlli*$ru7qq2&&#-dip7>-**idlp,,",
">=,=&&&$$$60eddhl*##++O%0qqqdeqqqqjhj9#rtyy-7>#$&#iad4*&+oqhl4;=>=,*&&&$+%6qwddhg=$&$$+@0qqqwwwqqqhlf9$5rty>0;+#&$qid1*&+Oidl2>=",
",==&$$&$$#-16ddwq&#+OXo.4wqaq8742,>2#++5rt3*O&$$+O#4a7&&OX -s=&==>=&$$$%$$-46deaq&$OoXoX6awww7741;>1+O+5rr3&o###+O#2e7&&OX.>p-&&",
"5HKKDHDHFCSNSc4&OpficNDDHHSNlg$fcc>yxxHJJDVmfs5olDc1;aaiipi99q4O5HKLDKDHFNVNSM6&OafanCSSHHSNlg&abc>9xxHJJJVczz2OlSl1;dpiiii79i4O",
"lLKKHPSDDSACNll7-bCSSFSBGSSSHN,NJb2DLIYHDVnNsy5*llp&SCnNccbcghy$gLKPKKSHGSSBNlg8&NCVVGSVSVSSHN,BJb4DJIYJDBmBuur*lxp-ACbNclNclli#",
"hnKVNBnfiapy521*;djfglNCGGHBF4&fD5,bDGJutrr33,2,4j91NNHJNii533,$gNKNNVnsysi9351*;hhhglNAHHHCD4&dDr,BDDJurrr33=<,4g92NNKKNii5<,,+",
"hcg53<,<,=,,,=*>4dddgadllllln7&,by2bBZbtr<553,<,,f1dlNAZ7333*==&flx2<<<<1=,=,,=>4dddgddlllllb7-1br2cBZBrr<533,<,>d1alNSBr<3====&",
"dgd,=1=,,,<*,***4hdddadhkdgglq&;biyxbBpr3r553<,>>>1hllBs,,*==**$dlf,,,=,,=1*==**4hhadadgjfljl9&>Np7lcBprr5<r<<,,,:1hllNd,,=*<**&",
"kd7,===,>*>>**+&wddwddddhddhlf&&li1llc5rr<333,<*,*>hlbb>====***$hh7>=,=>=*=***&+qheddddddhdflj&&li,llxr2553<<<=*,-1dlbv,=,=*&**+",
"wh3=*===****&&#+wqqwadddadddhh--d21jlf2t<r<<,<>,&&0djb5>===&*$$$dd<=*=*=*=*&#&&+qqqdadwaiddddj-&d71flfrr553<<,=,&&7dfb3====**&$+",
"qi******&&&&&&$%0qqqedq0aq0qwh;+i12jzt<<<<<,==,>&-edli>*&=&&$$+Oqq>>**&*&&&&&&+#0qqqdhqqdq0iad:@i17jly<2<<<<>,,>*-adli==**&$$$$+",
"17****$&$$&&&$&%qwq8qqqqqqdqwq1$116jp<<<,,<,=>>>>:edd>>&+&$$$+++17*&**&&&+&-*+&#qeq00q000qdqee1#1>6di<<<=,,,>>>>*;ehd==&$&$$$$O+",
"@1$&*&&$&@&$$@OOq8qq6qq80q008q6+:;ii5<<<=*,,**>&&1ih>$$$+++$$$++@1$&&&&&#+&&#O++e0q08qq00q066q6O:19a4<<<==,,>*>&-2qd=$&&$$$$$$$+",
".OO++++&$%$++OOO%;:14:416416;%-.  o,>&*&&*$*&&#@o#1;-O+OO+$%O+X .O++++++&#$+OOOX%;:14,616144:%-X..O>***#*$**&&$@.#1;&+$ooo$$$oX "
};
