/* XPM */
static char *bricks21739225950[] = {
/* columns rows colors chars-per-pixel */
"128 128 72 1 ",
"  c #362215",
". c #3B2516",
"X c #3F2817",
"o c #36241A",
"O c #3A2619",
"+ c #3D291B",
"@ c #3E2B21",
"# c #432A17",
"$ c #492C15",
"% c #442C1B",
"& c #492F1C",
"* c #47301F",
"= c #4B311E",
"- c #52341D",
"; c #633D1C",
": c #432F22",
"> c #482F20",
", c #463123",
"< c #4D3322",
"1 c #4C3629",
"2 c #4E382B",
"3 c #513623",
"4 c #553925",
"5 c #5A3C26",
"6 c #513728",
"7 c #543A2A",
"8 c #5B3E2A",
"9 c #543E31",
"0 c #5D3F30",
"q c #603F26",
"w c #613F29",
"e c #66401F",
"r c #5E412B",
"t c #574033",
"y c #5C4434",
"u c #5D4638",
"i c #5F483A",
"p c #624126",
"a c #6A4526",
"s c #62432D",
"d c #68472D",
"f c #67482F",
"g c #6C492D",
"h c #724D2D",
"j c #654631",
"k c #684732",
"l c #644934",
"z c #6B4A33",
"x c #644C3B",
"c c #6C4D3A",
"v c #714E34",
"b c #714E3A",
"n c #6A513E",
"m c #755134",
"M c #7A5435",
"N c #74513C",
"B c #78543E",
"V c #674E40",
"C c #684F40",
"Z c #6C5343",
"A c #6F5748",
"S c #725645",
"D c #7A5542",
"F c #735845",
"G c #7E5945",
"H c #715748",
"J c #745A4B",
"K c #785D4D",
"L c #795F50",
"P c #7B6153",
"I c #805B47",
"U c #825D49",
/* pixels */
"17jrjjjjjjjjj0sywr87@:8ssy08979767jj886<88:7jccbcV0C000b0k00w77:,000jkjjkjjjjs0jsy84::8jjy88780777sj8873w8:9kcccc0CC00b00000056:",
"6zzzbNbbzdzkdkjakksj63zs8wjkkazwsawsss8as56NDDDDIIIDIIIIbbbckzk66kzzmNNbzzzsszksszss6<js8wjkkwkwwdwsswwww56bDDGDIIIIDDIDNIb0bkk6",
"8BNBBBBBNNNbbNcczdzz5<sssjwjjkzkjjjjksjjss4DUUGUUIIDDDIIZbbcczk58BBBBBBDNbNNbbzczdzz73wjjwskjkzkkkjjksjjdw3IUIDUIIIIDDIIDDbbcck5",
"jNNBBBNBNNcbbcbbbzcbw=8r8sjwwkkskjsjdkssks3DGGUUUIGIIIbIDDbbckk6jbBBBNNNNbcNbbbbczbcw&ws8ywsjksjkjsjjksskw3NIIIUIIIIDIDINbbzzkk6",
"8mNmNNcbzcbNcNcnzzzzs&557rwwjwyssrrsw0w0sr=BGIGDIIIIDDDDbDzzzj7>8bNNNNmccccNcbcbzzzzs&587ws8jssssrsssrrsww&DDIDIIIIIDbDbbbczz0w>",
"8cbnmNbzczzzzzdszjkjs%5880w8wj8wsr88w0ww88%BDBDDIIbDDDDbbDcj088X8bcbbbbcbzkzzzsszjzzs%558ww88s88rrr5rsr888%DDDDIIIIIIDDDbBck008.",
"7cbzbczkzkkjssjjsjrjs%454s855488srs8www55r$NBNNDDbIIICbbzk0080bk7zbzcbzkzkjjjjsjsssss%5548888575srrrs5s85w&IDbDDDIIIbBDIck00w0b0",
"4fkkksskjjjjjrrrrjs88%443&3&<<<5488888ww58=NNBDNb00b0bz08078kzz75jkzdssjzsjjrsrsyrs85%444>3=<=3545r55rr5wq>0DbbI00000bw0w06wkckw",
"<jsjysfsrrsrrrrrw8s85+->=&<&&<=<<=-6w34443%00z0k00000000w7qwdks3<ssfyssfr8s8ss88w8s85+===<*=====<<33w34654#w000b0000008w075wkkw3",
"%48ssrssrr88rrrrw874-+%><%%&%<&<<<<<334-4-#5w000000w0875>q5887w&%4rssssr8sq58wrsw775&@%&=%%****3=<<=634-3-@50w0w70w00785355888w>",
"66144---<%X+<<<36>><16>>:=<<<%%+X6--=<>><>660<>>6w6<<<3<>3>3=%:<1134r=-3<%++<<133><<661&:,=<<*=+O<===-><666656<>676<1&3<&>>3<>>>",
"pp55rpsr8p31ggzNcbgzbbbbbbcvzdcs0b0Bbb0Ibbbbbzkbzbww8<w5qwwddsssapp-rrpr8p61zdgbcvkzbmbbmbcmzszryzzbbbb0b0bbbb0bvzkjw<r5qwaddwjw",
"s8srsrss8-55ssksgzbNDczvzkzd55qpw000DDDIDDDbbbcbz00jw78ssssssrsrrrsrrrasr5-5ssjjkcbbbbzczkzdr-rp5wzZDDIDIDDbbbbbzk0js48sssssswss",
"rsrrsrr;r8=pfsszzzczczcbczzzkss8w0IIbDCIDbD0bcckzkkkw&8ww8rrrrsrrrrrsrrrr5=rdsszzzzbvccbczzkffd55bbDDbCDDbDNB0N0zjjjs%rrrrrrw0j8",
"ss8prrrrr4=-ssssjjkzzzkcvkzjkjd3wDbb0ID0bDb0kczzkzk08#558888rrrrssrr5prr54=5sssjjjlzkzzzzzzjffy-wbbZbDbb0bb00v0bjjjw5#4588rrrr88",
"ss88rrrrpr=rrsrssjkzkzzkjjzss8w&wbDI0bD0bbzDczkk00w85#7555888858ps8rrrrprr=5ssrsjkkzkzzkkjzjrrr=jbDb0BbbDb0DNbvwsjs74#r544585888",
"rqrqq4rrr3Xrr5rrsssszksklsdssrrXkcccczzczkkZzk0krr-t-#4355rrr44488r45r5rr3*4rrrrrrrrvffffrffrrr.wbzccczbckzbkkjjj857-%5454rrrr4-",
"3333433-33*34r44ssrfssrrfrsr444#slkkkzzbckzkz00wr-tr-X44334r3r-43-44434-<3*4r-4rrrrrrrrrgrrr54rXwc0bkzkczkkzjjww5444=#444554-434",
"==<<3=<t==X333444rrrrrrss4r5434*sslskvbkkk0z0ww8=33-=Xt==333-3-1<<<34<<3<<+3-3rrrrrrrrrrr5r54=r*wkk0kzzkkckjj8s753<3&+33=33333-<",
"=3<<=*==*-.334t-444445533443343+5krr000w000w868833=-.+--<=33==*-=3====<=*- -<r33444444rr4343-r=.wzw0000080888774333&#O-=<=3<=3<=",
"=-==$&-==.@X=-4r343-34-<-3-==-=+-rrs4rtr4468334----X o=&=====-========--=+@X=-=r344--r==333==3&+60w088886438443-3&3#oO=====$=-==",
"@333&tr-3tr<**.Xrr86X .*<=====<<**1*   X%%o#>&>31=r1r-113=3X+XX+*=r3=34334r1**.+rrr3X .*====-===>><3o  #%>o#%*<43<4<7331-<-**+ X",
"rrrprvvfvffrrrr-5sspr,r54--r5-5-;5qsrr4->:Okwgggdsssffrrqqpfr5-@rrrpszvczfffrrs-rrssr*r4-5445-;345qww533>@+0rdfswwkdksdsrr;ssr<@",
"rfzvvlvvvfzvvvgr<5sssXrrfssssffssrrp-r5585>w000zfffffffrrpp5r-r*4dzvzzvzvfzvvggr--rfrXrrffrfrffss8aw5q855w<wjsskzkkkjjssrrr55-4<",
"-lfvzzzzvvlvvfvrq3433Xrryrfrrssrfrffrr=--->8rssssrlssksrrsssrr$=3szblzzzbvzvzgvsr=-r-Xrrrrfrrrrrssssrr4---*rrssffrfrffrrpsrrrq$-",
"4rffffzfvvffflfrfq3$=Xrfrpyrrrsrrrrrrrrr53&5r8ssrsrrsrrrprrrrrr*-lzfkkgfgzffzlfsfr-%*Xffrrfr4rrrsssrssr5r=*4rrsrrrrrrrrrsrrqrr5+",
"*rrryfffffffvffrffr3XXrrrrrrrrrrrrrrrr1r43&<8rrsrrrr5rrrrr5r5r5$*rfssfzzfffzvffrffr-XXrtrrrrtrrrssr8r434r=*<rrrsrrr4rrqrrr45rrr#",
"$rrrgffffffrfrrr3rrf5<rrsrrrrrrrr3r44-=-45#<645rrrr455r44r4rr44#$44rfsddffzfsrr344rfr*rrrrrrrrrr44r433333rX-=45rrrrrq4r45r5r44r&",
"#433rfrfrr--r33=<<33rXrrrrrr44r-t44344<336%====<45-rr4rrr444444=%4334fsfrrt344t33333r+rrrrrrr-r-r-3r34<3=-*===*-r54r44rrrr-r444#",
"+-433-r3t-<t=r3tt=<<1X43-1=r4rtr3r3343<34<#==%%%***==334744543=XX=4443433333343341<<3+441**r-t4r3r1333<3r1X===+=+*%&3434--tr44-X",
"@=3344=<t-=3<t<3333*=*-rt=1-1-=---=3<3<<<<%-=%%%*#******===<<*<O@=3-433<33<334<<63<<-*33rr*r<t--=-=-33<3-<+-*$%%&%%*@***+==-**=+",
"+X***=*=**=====**@<*+o+*+XX%..   X X#X%#%%OX%X###=*$%$%%+%X%O.O@++***==<**<=<<******+o+*XXX+ +   ..XXXX**++X+X#X%=#&$=$=+@+X.++@",
"xZxVZZVxu1:ddppdffsfsrrrr46<<oootnnFnFFFFnnFnliyyiytO@xxxnxVxxVVxZVVZZVxu2*fdrpssddfyrrrr44<,OoOynnFnFFFZBFZnxyyyyyt Oixxnxxnixx",
"JJJKJKJJJV<drdzzvNNgffzfffrsssr<txxnnnnnFnnnFnllxxlfttZAAAAAALJJJFJJJKKAJV=srgcvhNmzffzfjfrsss8<yxlxnnnnSnnnnnfilxllttZFAAAAALJL",
"KPPPLJLLJx:slzzzvvvzvNvzcvbzgf43ycnnnFFnnnFnnnnxxxzxttnAJJKAAJLLKPPPKJPJAx*sggzzzNvcvmvzcmvzdd5<ynnnnFFFnnFZnnFnnxlxrtAAJALLJJLL",
"ALLJKLJJAZ%jfvffzzvbzzNvmNvvvgd=ycnnnnnnnnnnnnnxnlllrtnZAAAAJJAJAPPJJPLJJV*fsvdfgzvzzzNNmNzbmcf=ynnnnnnxnnnxnnnxnllittAZAAZAJJAA",
"AJJJAPAJJA<fffkfsvzggbvbNvNvvfz-fnznnnnxnxxxxlxlcyyyy,ZZnAZVAJAJAJJJAPAJJA<lffzlfzvlzvvvmbvzzdz-fnxnnnnlnxcxxlxxlyfrt<ZZVAZZAAAJ",
"AJAAJAAAZx4fffkffflfzgzzzzvzzfs*ryiilcxzllnxnllilyyrr<xZxnZAAZAAAJAAAJAZVn4fflffffffzgzzzbvzzzd%rylllnlnxlclxllullyt3txnVVZAAZAA",
"JJZZVVxiixtssfffffvzfzvzgzfffflXtrtrt1rilylllllllltrr,xxZVAAVZAAJAZZVVxixxtysfskfgvffvvfzzsffsj#ttttttylylxlllllxyrrr*xxZVZZZVZA",
"xxiiiiiixx1rssflssrrsr8srrsgfsfX313tr1t1ylllyyryyrr6<@yuxVVVxVVVVViiixiiVl=rsflkrssysrrrrrfgzsdXr*<r<<rtylllyrrllrt3*@iiVVVZxVZV",
"ixiiuuuuiu<r4r444878845rr84rrrso3<61666<rtrtrrt376<==,iyyuixiiiiuxiuuuyuxu<848r4rrr4t4rr8848rss *11r166<47yy8687t33=*,xyuulxiiii",
"uiiityyuut<-t44r45546r844584444o+*=33611=*=4t*3*-=== Otrrytyuuuyuixutyuuut,37448434r-r444584443OXX==4111<<<6661<===&  rytttuuuuy",
"12rrtr41723=**<3-<-&%&>3=4<==*%<<,*%**==@*X %==333<6,,,*,@,1,,,,,6yrtr11743&<<<3==-*#**3<6<-,%%11***>%%=%*XO&=3<4=<6,*****,<,,,,",
"<aaahdhgghmmmhhhhhhh44jzasdzskdzdsfsa555sat5qrrrsssdssrrrrsp463+,gahhghgahmmhhhhhhhh47fzadszskzdsffrap88ds<r558srsffsrqrr5rrr4<@",
"raaaaghhmhhmagghap;;a5sajkzjzzsljjjssssrr-=rrrrrsrrs;rrr----455%5aaaaghhMhhmaaggpae;a4pdjklzkzszslflsrs8r-35sssssrslrrprq-$--r3+",
"4ghmmgMMmhMmMMMMhvMvq33sjjjjlkzkssksr5r4-r&rrrrrsrssrrrrrrrrrrr*4mgmhhMMmvmmMMMMvhMvp4-szssjkkzlsslsr88545$5rrrrsssrrrrrrrr-rrr*",
"4vvzvvmmmgvmhmhMMMvva-sjskjkszssslsrr4r-r-=-44rrrrrrrrrr5rr5888%4ghvzmvmvhvmMmvmMMmva-sssklzlksksssrr55454=44848rrrrr45rrrrrrrr*",
"3gvggdgzMghvvvmgvvhda5jssssslsrrsrsr54r44r=*rr-r4rr4rr5r-5rrs8w&4hzggggzmghvvhvhvhgza4zssssrsssrsssr555444-=4848r4rrrr5545rrrrr$",
"*fdgggvmvgvvvzvgvgzdw3s8rrsfrrrrrssr544r33-$%&<<5544445455477w4#*ddzggvmvdvzggzmvggda1s8srpsrr4rrs8s545533-#%&<>444444544775885%",
"*sdfffzgzzgwwq885wava<5srrrr454444=<==33353&&&<%%<<45454454544>+*sfgzdzggzgsd8r58waza=5rrr8s4r4335=<==33353%>>&>*=-44444554744%X",
"+pssdrrr5555575475555%=3<3==*=-======*=<633$%%%%%*%%<44477763>&##ssfsssqr558455555585%<6<3=-*===-<<=<&>633<%%%%%%***<44448443%&%",
"*rsr444r473444545343XX&=*<=====*===<%*%*%%%.%X%+%%%%%%%*%%&>%%=#+rs44455443444434335%X%>==<=3==*&&=<%%%%&=%.#%#%%%+%%%%&%%>%%&=+",
"%=53-34-53334543-55-+o%&*--$$==##$--$=*%%%Xo%#%#X#+#++%%%##$&&#++343333346-65543-54-+o%*===$$=&$#$$-$&%%%%. #%%%XX#+#%%%%%$$&&#%",
"jrrrrrrr4%#>7769yy879117yttttt@oo<776663<O>6377767377XX,3w88w8wjsrrs8w883%%%7418yy072118yttttt@oo1846666<O<6377364676O+&38878rss",
"88rprr55q8>ZSSLJSCHHSJKHKFFFFFn26zzkdjrrjswkww0wwwssv3s575558w85rrrr8885wq>ZAJJFZZSSAJKFKFJAFSn17czkjjw8jssdwd0wssssb3w555555w85",
"sssrssr4853KLLUPLPLJHHZZZxnlxxit0zzjj87458wjkjkjkzjkz48rwwsjwjsjsssraj85551LPPUPKPLJJHZZZcxlxxct0lzzj87555wj0kzklzjkk48s8wjjwjss",
"8s8rrr8558<KLLLLLLLKKJHJJHZZZZx20w085<-558jjjwjjkkkkz=w57wjwwswj8s8srr8585<JLLLPLPLKKAFJFAZAZZx2w0w78-3588jjj0jjlzkkz=5580ww80jw",
"8s88555844-JJLLLKLLJJHAJHZSZZVn,>>-3-55sww8sjjjjll0l0%5585588888r888885544-JKLLLJLLJJAAJAZFVAVn,>>---55wsw8jjsjjjjjjs%4588558888",
"w548454443%HHJAAJKKJJFHHAZZnAnx<-53555558ys8w0w808008&4557555785s745444443&HHJHHJLLJJJAFAZZZZnx,-535455880w0s8w808888&5455545588",
"8557444334<ZHHAAHHSHHHAAZZZnxnx13343444s8w88475748655&35545454455845444434=ZHHSHAAAAFAAZZZZVxnx63333455w8w85754757577&3455455457",
"4<3=<=<4=3*xZAZAAZAZHHZxZxxxxnu,-3<354555746335464546>-335433533433=<<<333,iAAZAZAZZAFVnZnxxxxu,-33345355843335665564%=445333333",
"=<<=<=*<&=<iiVAZZHACZCnxVxxutt2<3&3<-333-3<-<34363436#$3&3=>==&==<==<&==&%1iuVHCZFZnZZVxnxZuu22<=<-333333>33336536364X-<=3=<><&-",
"=*%*=&%*%%:utttuxtxiuxxxxy92127@3&3&&><<&&<3<<<33<<3-O#&&%><==&<*<===<%%&#:utt9tiuxiixxiitt2166%3=<%%<3->&33>3>3<3<33O#&&&<&&<<<",
"%%%%%%%X#O@,2222111111117111,,<+#X#+#%%%%%%&#$%%$&&&:@O.%#&&%%%+%X%%X%%%+O@122271112111<t111,1,+X%%#+#%%%##%$#$%&&$&:O.X%%&%%+##",
"18jjjjszjjjjjj8syr84@:8jjwy7887768ss884<w5>000bC0bC0k0k0kk00776:,8yjjjjjjjjjyswjrr86::8jjy88780749sj887<w5:8lC0D0C0D00b00000086:",
"1kzzbNNvzkkjjzkakksd6<zs8wdkzwzwswssaswsww60IDIDUIIDDIINbbbkzkk66zzkmMNczzzkdkkszdjs61ks8wjkkskwwawsswwww56bNDIDUUIIDDIDbIb0bkk3",
"7DNMBBBBNbNNbbcczkzz8=ssj8jkkjkkjkjjjjjj0w6IUIDUUUIGIDIIDZZcczk88BNBBBBBNbNNbbczcdzz5=ssj8skjkkjkjjjjskjgk3IUIIUIIIIDDIIDbbbczk5",
"sNBNBBNNNNbbbcbbczcbw=8rw0w0jkkjjjsjjjsszz=IIIIIUUGGGIDDNNbbzzz3jNBNBBNNNbbbbbbbzzcbq=8s8jwssjkskjjjdkjskw>NIIIIIIDIDIDIDbbbckz<",
"8NNbNbbbzcbNbbcNzbzzr=4878s8sssssssssr8sw8>DDIDIUIIDINDDNNcczj0>7NNNNbbbcbcNcbcbzczzp=587wrwjrsjsrsssr8s0w&IDIDIIIIIDDDbbbbzk003",
"8cbbbbbzbzkzjzjszszds%588ws8ss7ss888swr8ww$DDDDDIIDDDDDbNNNww87 8bcbcmbczzkzzzjszjzks%5888w88j8wrrr58sr8w5$ZDIbIIIDIDDDDDBck085.",
"4cczcbzlzzkjjssssjsja%584w885458srr8s8w85w>DDDDDDDDDDNBBb00w80bj4zczbczlzzjjjjjssssss%5848558575srrrp8s85w&IDbNIDDDIDbDDzk0080b0",
"4zzdjjjjjsjjsysrrrr88%-64&<<<=3445r88q8885&cbDbD0D00ccz00040zzz74zzzksskjjjj8jrryrs85%-44<3<<=35458r5rr8wq=0DbNI0b000D00006wkckw",
"=jjjs0jssrsrssr888s85%=&=*=%=<<<<=<3854353%0000b00000000r45ssss3<srlsrffs8s8jsw888s85%===<*=*==<<<33w35654#w0w0b0000008w865wkkw3",
"%58assssrrr888rrr874$+%<<%%<&%%3<<<<334-4-+50www0000w0ww=r4r888&%5rrsyrr8ww588srw775=O%&=%%****-=<<=436-3-@5000008000785355888w>",
"16134<36=++O<1=66&<<161&%,,<1%>+O<<>>3*<<<6605<<6566<<<>*-=3=>>11134r<4-<+++<<>6<<><661=:,=<<**+O<==-==6<6665<<>353<><3<>>>3>>>>",
"a855qqpqrp4=gdzmcbkzbbbbmbcmddvrrzkbbbzcN0Dbb00Bzzww0>wwrpsdsasspp4r;rpe8a61ggzbvbkzbbbbbbcmzshryzzbbI00b0bbbb0bzkkjw1r5qwaddsss",
"sprrssssr--rsjjjzzbbBbzbzdzf55rrw00bDDDDDDDDbbbczjjjw5w0prsssrrrssrrrrssr-4-skkskbbNNbzbzdzdr-rp5wzZDDDDIDNbbbbbckj0s48ssssss8wj",
"rrrrs85sr5-rssszzzcczzzbbzzkgfrr5bDDDbbDbDb0bczkzjjjw>8wrrrrrrprrrsrrrrrrr=rssszzzzcvzcbczzklfsr5bbDDbCDbDI0bbbwzjkss%rrrrrrwsj8",
"srrrrsrr55=5sssjjkjzlzzzblzkfsr-w0cDbNZbbNCkkzzkjjkw5%55rrrrrrrrssrrqrqrr5=5sssjjjzzkzkzczzkffr-wbbZbDbb0IbbwNbbjjjw5#455r8r8s88",
"sp5rrrrprr=8ssrsskzzkzzkkflfrrr=wIbDzbccbcbbczkjjj073#854444rrrrpprrrrqrrr=rssrrjjkklzzzsjzjrrr=jbDb0BbbI00Bb00zjj884#r544588888",
"rrr-r4rrr-+rrrrrpfyrfffffrffrrrX0bbbczcbkkkbzkk0s8444%5455rrr444r5r4rr4rr3*rr-rrrrrrfzfyfrffrrr+0bzbcczcckkbkkjjj755-%5445rrrr-r",
"-34444-3=1+rr-4rrrrfrfrrfrrr-rr 0bzwzzkcckzzk0w05444&%53445444-43<43-444<<*44rr-rrrrfrfrgrrr44rXwz0bzkzczzzkjj087574=#544444-4<-",
"-<-<r*<3-<+--4r-rrrrrrrrrrrrr*r*ww00kzckkkk00w0w433=&+3<=3333333=3<<43=-3<+3--rrrrrrrrrrr5r44-r*wzk00bzklzkkssr843<-&O43=33333-<",
"<<<==*<=*-.3-4t-3533r453-=r-=r=X0b0wj0ww00808587633-#o-<<=3=<<=-<-=<**<<*- -1rr=44444rr-444334=Xwzw0w00070887784343&XO-=3=33=<=<",
"======-=&.@X=-t-3433-44---4==-&+4ww0887854485333-=-#oO=======-========--=+@X-==r34-4-r==333=-3=+6w008888543w343-3&-% O=======-==",
"@34-<-44ttr-*, +rrr3X .@=,=-===4<>3>Xo #%%.+>>>3<<4173333=<%%%OO*=r-=34333r1<*.Xrrr3X .*========>>3>.o #:% +%*<43346666<-=-%*+.X",
"rpprsvzzaffsprr4qrfpr@r4r54-5-q-qqqww546:@%kqdkddsdffsarp5pap5=+rrrssgzvhffrrrs-rrspr*r4-5454-;3q4qww533>::wsddfwsdsksdsrq5srr<@",
"4lzbzzvvvffvvfgr=qryfXprrrrfrffr0wwq555555>w0sjkkfflflsssr55555*3fzvzzcvNfzvvfgr-4rfrXrrffrrfffrawsw5w554w>0ssslkkkkjjssrrr;5-r,",
"3fzblkvlvvzvlfvfr=434Xrrrrrrrrrrfssrrr5--3>w00jkrrffsfsrrssprr-=3fzblgzzvvzvzzvsr--44Xrrrrffrrrrssssrr----*rrrskfrfrffrrrsrrrr-$",
"<lgzffzflzfffvfrf53$=Xffrrfrqrrrrrrrprr45-&8w8wsrrrrrrrrsrrr5r5%3fzfkkzfzzffglfssr-*=Xrfrrfr4rrrrrssssrrr=$rrrrsrrrrrrrrsrrrprq+",
"=rfssfzgfffvgffyffr3XXrrrrrrrr4rrfrrr44743&>ww8srrrrrrrrrrr4rr5**rfsskzgfzfzvffyflr-++rrrrrrrrrrsss7r434r=*-rrrrrrr4rr4rrrq5rrrX",
"$44rffffffgfsrrr3rrf5=rryrrrrrtr3rr4333335#<337sr4rrrr44-r4rr-4*#44rfsfzffffspr444rf4*rrrrrrrrr447r433333r+-=44rrrrrq4rr-r5rq45*",
"%4334ssfrrt3r1r*3t335Xrrrrrrrr4rr1r=343333%=&>=<r4-rr44rrr-r544=#4335dsdrrr144t=46634*rrrrrrr-4rr1r-34331-+===*-r54rr4r4rr3r344=",
"O-4443433333=r1-3<===.t3-3*t41r-3r3-33<34<%&=&%%***=-1-rr-r333<X+-343343333333334<3<3X44-**r-trr-r*r3<<3r3%===+*+*%&33-r333r33=X",
"+=<344333<3334=1t=3<-*r33r=3-r41---1<3<<<<%-&&%%$*%*X****=+=**<++=33443<33<334=33<6*<*63tr*r<14-*-=333<3-*+-=%%&%*%*X***X==3**3X",
"@.==*=*=**=*<-=***=@XoX@X*XX X  ....##%#%%O+%X#%X=&&%%&=X=+X+XO@@O=**=*=**=<<1******Xo+*XXX+ +   X.XX##+*++XXXX#+&$&$*&*X*+XX+.@",
"xZxZZZCxu1,ffrsasfassrrrr74<@oo+tnnZnFFZFFFnnxityyytOOixxVxVViVxxZVVZZVxu2*fdrpsafddsrrrr41<,oOOtnnnnFFnnFnFnnyyyyytoOixxnxxViVx",
"JAJJJJJJKV<rrgzzvNNzfzzfffrssdr1ykcxnnnnnnnnFnlllllxttFAAAAAALJAJFJJJKJJJV=srgcvzvNzfgzfjdpsssr<yxlnnFnFFnnnnnfilxllttZAAAAAJKJJ",
"KLLPJLLKAx*fgzzzvNvvvvvcbNzvgg-3ynZnnFZFnnFnnnnnnxxittZAJJJAAJLLKPPPKJPJAx*sggzzvvvcbvvzcmnvdd5=yxnnnFFnnnFnnnnnxnxirtAAJFLJJJPJ",
"JLLKLKKJJx*gsvffzvzzzznvbmzvvgf*ynxnnBnnnnnnnnnxnlllrtZZAAAJLJAAAPPJJPLAJV*fsvfkcvvzzzNvmNzmmzd=lnnnnnnnnnnxnnnnnllyttAZAAZFJJAJ",
"JJJHAKAJAZ3lffglfzvlgvvvNvNzbfz-lxnnznnxnnnxxlxlxffyt<nZZAZZAAAAAJJJAPAKJA<lfflffzzggvvNNmmczzz=lnlxxnnfxcxcxxxlxlyyr=ZZVAAVAAAA",
"AJAAJJZAZn3lfflfffffzzvvzzhzzfs*rullxnxxxlxxnllylyytr*xnxZZZAAAAJAAAAJAZVn4fkfffsfzflgczzzvzzzf%rilynnxxxccxxllyfyytr<xnVVZAAAAA",
"JJACVVxixxtsskkfffvgfvvfgvsffflX77ytr1yliyxllllfxfrtrtxxZVZAZnZAJAZZVVxixxtysfffffzffvvzgzsfsdj#r1rrrtrllyxxkyllxlrrt<xxZVZZVZAA",
"Ciiiixiixi1rssffrryrsrrrrrdzfffX64187776rlflyryyyrr<@@iiVxnZxxZnVViiiixixi-rsflkrfsyrrrrrrdzzsdXr<tt=1ttrlllyryjlrt3=@ulVxZVVVVV",
"ixiiuuuuuu,t8r4448588888rr4rrrro<1<4114166rr8474r3<<*,xyyyxxiiiiuxiiuyuuiu<r4rr4rrr4r4rr8848rss ,11r616147yt7788r31<=,lyiuxxiixi",
"tViutyyuut<-747r4447688434r4444O%%-331<1<111166<*=== Otrtttutuituixutyyuut,3744r434r<rr34584443OX+-=3114<<<6361<*===. tyrttyyyuy",
"149yrr16761*=<<-<<-&#%&3=4=<*%*<1>,%%%<=%%%.%<334==t*,**+**1@@,=,6yrtr21663&=,<3==-*X**=<6<-,%%11*@*%**=%%XO&<3<31=3@*=*@**1,@,@",
":aahhahhghMhhhhhhhhv44jzsdfgsfkfssdsgq85ds3q888srfrfarrrrrsrr-r@,gahhghdhhhmhhhhhhhh4rszasdzskzdsffraq85sd<r558srsfffrrprrrrrr3@",
"5aagahhhhhhMagggaa;;a5pajjzkzzjzjjjjsssrr--5j8jjrrrfrrrr5-$--q4@4aaaaghhhhhMaaggaae;a4psjklzkzszsffssrs8r--5rssssrrsrrrr4;$--r4+",
"5vhvvhmMmMmmMMMMvmMvq4-kzjsjzjzjssjsr58445=88888frrrrrrrrrr5rrr$5vhvhhMMmmMmMMMMhmmhp4-fzssjzkzlssfsrrr455=5rr8rssssrrrrrrr4rrr*",
"3gvvvzbvmgmmmmvMMmmha3ssssjkjzsjsjssr55454=44857rrrrrr5rrrrrrqr*4ggmzvmvvzmmMmmmmmMva-sssklkskskssfrr4r454=44848rrrrr4rr5rr5rrr%",
"3vggadhvmggmhmgvvvhgp5jjssjrssrssss8555544-=5558rrr4rq54-rrqrrr#4hvggdhzmhgvhvzhmvgdd4zssssrlsrrssyr555444-=4858rrrrrq5445rrrrr$",
"=ddzgzvvvgvvzhgzzghdw6srsrsss85rwsw8535543-#%><3554444444587787%*fdzgzvmhgvgzghzzggka3s8srpsrr4rrasw8455433%&>>3-r3444444747885%",
"*sfdddgzzgdss8s88pdza<58s85s4544333<<=3335-&>%&&%=374545454754%#*sfddzdzzzddsrrr8wazd=5rrr8s4r4463=<=&6335-$&&&>*=-44484454844%#",
"%ssfsswq8555455555485+34=3<<==<=>33>=&<633<%%%%%%%%%<45744446%&#+sfdsswqr555455555555%=6<3=-*===<==<<&><33<#%%%%X***<44548446>%%",
"Xrs545554534444664-5##%>====<<=&&&->&%%%%&%X#++%%%%%%#%>%%>%%&&#%pr44455443444434345%+%&==<=3==*&==<%%%>%&%.+%O%**+X%%%%%%*%%%&#",
"+<43334353335533-45-# &>==-=%==##$$-&&%%%%. %%%#%+++%O%%%#%$&&$++-53333456335543-533O %====$$=&$#$$-$&&#%%. ##%%XX#+%+%%%#%$&$#%",
"jrrs88883%%%7768yyy49117ytt798,o 1076666<O<6667464667%O>488788jsyrrr88883%#>4718yy889118yttttt@oo1847736<O16777364664++>38888rjs",
"s8rq8wq5q8>ZHHJJSZHHZJKFKSFAFFZ17czksjwwjssdpsswswwsz3w558858w58s5rsqw85q8%ZAJFJAZSHAJKSKFJAFSn16czkj0w8sdsdwswwrsssz4w554855858",
"srssssw5551LPPUPJPKKHHCZZxnlxxx20zzkj85555ssjskkzkkzz58wwwwjwjsssssrss88551LPPUPKPKJHHZZZcxlxxctjzzzj07554ssjjkklzjzz48wwwsssjss",
"8swsrs8854<KPLPPPPLPLFFJKSZAZZx280r753-588wjz0kkkzkzl-85rssrrrss8s8srrr855=KLLLULPLLKFHJJFZAZZx170885--5w8jjjjjklzkkk=5580w880jw",
"8878785544-JJKLJJPJJJAAAFZZZZnx<%=3--43ssw0jjw00jjk00>55854588888r885855453HJLLLKLKJJAAFJZZZZZx,>>--345w0w8jjwjjjjjkj#55885588w8",
"s745453543%AJJHHJLJJJJAAAZZZZZn,-535555888ws0ww008888&3545558885s745444443&HJJHHJKLJJJFAAZZVZZn<-5355558w0wwj8w808888&5455555587",
"8855344344<ZAHHAAAAFAAAAZZVVnnx1-343355s8s8w774875685&34454553458545443334<ZAHAAAAAAAAAAZZZVnxx13343557w7w80647757774&3455545457",
"433<-<33=3=xZAZZAZAZAAZnZnxxxlu@333445454754<38465566:=44444443<433=<<<436>VAAZAAZAZAJZnnVxxxxu,-33335454834<38465764%=445333433",
"===*<=====<iiVAZZASxnZnxxxnyytt,-==3-3333<3<<33436333%$-=4=====<=<<=<&==&%,xiVACZZZnnVnxnxZiu22,-=<3-33333-<333434634+-<=3-<&3&=",
"=<%<<%%**%@uyttuxuxiixxixut11t1+<=3&&<<<&&<3>3<<<<333O#&*%====<<<=&==<%%%$:tt99tiuxiixxiitt2176:3=<&%<<3>>333><<<<334O#&&&<&=><<",
"X%%X%%X%+o@,22111111111,t111,<*+XX%X+%#%%%%$%$%&$&&&%@O#X%%%%%XXXX%%X%%%+O@12229111211217111,,<OX%%+###%###%%$%$&&&$%OOX+%%&%+##"
};
