/* XPM */
static char * spring_2_dark_xpm[] = {
"32 32 7 1",
" 	c #7DC548",
".	c #008E3F",
"+	c #6D889A",
"@	c #004C54",
"#	c #860F31",
"$	c #38023A",
"%	c #324860",
"   ..   .+++.      ..   .+++.   ",
"@.@@ @@@# +  #. @.@@ @@@# +  #. ",
"#####.@..#+## #.#####.@..#+## #.",
"@####@#@@#+##.##@####@#@@#+##.##",
"@####@##@#+##.##@####@##@#+##.##",
"#########$+$#############$+$####",
"$###$$#$$%+%$$##$###$$#$$%+%$$##",
"%%%%%%%%%%+%%%%%%%%%%%%%%%+%%%%%",
".+++.      ..   .+++.      ..   ",
" .+@#.@.@@#@#.@@ .+@#.@.@@#@#.@@",
"##+# #..#### ##@##+# #..#### ##@",
"#$+#@#.##### ##.#$+#@#.##### ##.",
"##+$###@####.#####+$###@####.###",
"#$+$########@####$+$########@###",
"$%+%$##$$###$#$#$%+%$##$$###$#$#",
"%%+%%%%%%%%%%%%%%%+%%%%%%%%%%%%%",
"   ..   .+++.      ..   .+++.   ",
"@.@@ @@@# +  #. @.@@ @@@# +  #. ",
"#####.@..#+## #.#####.@..#+## #.",
"@####@#@@#+##.##@####@#@@#+##.##",
"@####@##@#+##.##@####@##@#+##.##",
"#########$+$#############$+$####",
"$###$$#$$%+%$$##$###$$#$$%+%$$##",
"%%%%%%%%%%+%%%%%%%%%%%%%%%+%%%%%",
".+++.      ..   .+++.      ..   ",
" .+@#.@.@@#@#.@@ .+@#.@.@@#@#.@@",
"##+# #..#### ##@##+# #..#### ##@",
"#$+#@#.##### ##.#$+#@#.##### ##.",
"##+$###@####.#####+$###@####.###",
"#$+$########@####$+$########@###",
"$%+%$##$$###$#$#$%+%$##$$###$#$#",
"%%+%%%%%%%%%%%%%%%+%%%%%%%%%%%%%"};
