/* XPM */
static char * spring_dark_xpm[] = {
"32 32 6 1",
" 	c #38023A",
".	c #004C54",
"+	c #7DC548",
"@	c #008E3F",
"#	c #00174A",
"$	c #860F31",
"             .               .  ",
"    +     + ...+    +     + ...+",
"++++...+++@++++@++++...+++@++++@",
"@.@.@.@@.@@@@.@@@.@.@.@@.@@@@.@@",
".###$.##...#..#..###$.##...#..#.",
"..$$$.$$###$#.$#..$$$.$$###$#.$#",
"##$$$.$$$$$$$.$$##$$$.$$$$$$$.$$",
"$$$$ . $$$$$$#$$$$$$ . $$$$$$#$$",
"     .               .          ",
"    ...             ...         ",
".+.+++++++.+...+.+.+++++++.+...+",
"@.@@@.@@.@@@@..@@.@@@.@@.@@@@..@",
"....#....####.......#....####...",
".#.#$####.#$$.#..#.#$####.#$$.#.",
"###.$$$$$#$$$.$####.$$$$$#$$$.$#",
"$$$#$$$$$$$$ . $$$$#$$$$$$$$ . $",
"             .               .  ",
"    +     + ...+    +     + ...+",
"++++...+++@++++@++++...+++@++++@",
"@.@.@.@@.@@@@.@@@.@.@.@@.@@@@.@@",
".###$.##...#..#..###$.##...#..#.",
"..$$$.$$###$#.$#..$$$.$$###$#.$#",
"##$$$.$$$$$$$.$$##$$$.$$$$$$$.$$",
"$$$$ . $$$$$$#$$$$$$ . $$$$$$#$$",
"     .               .          ",
"    ...             ...         ",
".+.+++++++.+...+.+.+++++++.+...+",
"@.@@@.@@.@@@@..@@.@@@.@@.@@@@..@",
"....#....####.......#....####...",
".#.#$####.#$$.#..#.#$####.#$$.#.",
"###.$$$$$#$$$.$####.$$$$$#$$$.$#",
"$$$#$$$$$$$$ . $$$$#$$$$$$$$ . $"};
