/* XPM */
static char * winter_xpm[] = {
"32 32 5 1",
" 	c #3B5DC9",
".	c #F4F4F4",
"+	c #73EFF7",
"@	c #29366F",
"#	c #41A6F6",
" ...++.++......  ...++.++...... ",
"...+..+..+..... ...+..+..+..... ",
"++++.+....+...@#++++.+....+...@#",
"####++....+... @####++....+... @",
"@@@@@#+++++++@  @@@@@#+++++++@  ",
".... @######@ ...... @######@ ..",
"..... @@@@@@++....... @@@@@@++..",
"......  ..  #++.......  ..  #++.",
"++.... .....@##+++.... .....@##+",
"#+++++ +.....@@##+++++ +.....@@#",
"@@@##@#+++.....@@@@##@#+++.....@",
"   @@ ###++.....   @@ ###++.....",
"+ ....@####++++++ ....@####+++++",
"@......@@@@###++@......@@@@###++",
".++........@@@@@.++........@@@@@",
"@..+....+++...  @..+....+++...  ",
" ...++.++......  ...++.++...... ",
"...+..+..+..... ...+..+..+..... ",
"++++.+....+...@#++++.+....+...@#",
"####++....+... @####++....+... @",
"@@@@@#+++++++@  @@@@@#+++++++@  ",
".... @######@ ...... @######@ ..",
"..... @@@@@@++....... @@@@@@++..",
"......  ..  #++.......  ..  #++.",
"++.... .....@##+++.... .....@##+",
"#+++++ +.....@@##+++++ +.....@@#",
"@@@##@#+++.....@@@@##@#+++.....@",
"   @@ ###++.....   @@ ###++.....",
"+ ....@####++++++ ....@####+++++",
"@......@@@@###++@......@@@@###++",
".++........@@@@@.++........@@@@@",
"@..+....+++...  @..+....+++...  "};
