/* XPM */
static char * spring_xpm[] = {
"32 32 4 1",
" 	c #0B2156",
".	c #005860",
"+	c #049C4B",
"@	c #8BD355",
"   .  +++ . @..    .  +++ . @.. ",
"+++  +..    ..  +++  +..    ..  ",
" ..+ ..  .. .    ..+ ..  .. .   ",
"  .. . .       .  .. . .       .",
"   .       +++     .       +++  ",
".      @++  ..+ .      @++  ..+ ",
" @++  @..  . ..  @++  @..  . .. ",
"@..   ..      . @..   ..      . ",
"..  . .  @++    ..  . .  @++    ",
".       @..    ..       @..    .",
"   @++  ..  ++@    @++  ..  ++@ ",
"  @..   .    ..@  @..   .    ..@",
"  ..      .   ..  ..      .   ..",
"  .  . ++@  .  .  .  . ++@  .  .",
".       ..@     .       ..@     ",
"  ..     ..  @++  ..     ..  @++",
"   .  +++ . @..    .  +++ . @.. ",
"+++  +..    ..  +++  +..    ..  ",
" ..+ ..  .. .    ..+ ..  .. .   ",
"  .. . .       .  .. . .       .",
"   .       +++     .       +++  ",
".      @++  ..+ .      @++  ..+ ",
" @++  @..  . ..  @++  @..  . .. ",
"@..   ..      . @..   ..      . ",
"..  . .  @++    ..  . .  @++    ",
".       @..    ..       @..    .",
"   @++  ..  ++@    @++  ..  ++@ ",
"  @..   .    ..@  @..   .    ..@",
"  ..      .   ..  ..      .   ..",
"  .  . ++@  .  .  .  . ++@  .  .",
".       ..@     .       ..@     ",
"  ..     ..  @++  ..     ..  @++"};
