/* XPM */
static char * summer_xpm[] = {
"32 32 5 1",
" 	c #00000C",
".	c #C15633",
"+	c #38023A",
"@	c #D3A44E",
"#	c #860F31",
"    ...      ..     ...      .. ",
"     .      +.       .      +.  ",
"    +.++    .       +.++    .   ",
"  ++@##@++++.+    ++@##@++++.+  ",
" +@.#   @@@@#.+  +@.#   @@@@#.+ ",
"+@.#     .#   .++@.#     .#   .+",
"..#           #...#           #.",
" #.+         +#  #.+         +# ",
"  #@+++  +  +.    #@+++  +  +.  ",
"    @@@++.++.       @@@++.++.   ",
"     #.@.#..#+       #.@.#..#+  ",
"     ##      .+      ##      .+ ",
"+   +#        @++   +#        @+",
"@+++.#         @@+++.#         @",
"#@...#.       +##@...#.       +#",
"   ##.#.     +.#   ##.#.     +.#",
"    ...      ..     ...      .. ",
"     .      +.       .      +.  ",
"    +.++    .       +.++    .   ",
"  ++@##@++++.+    ++@##@++++.+  ",
" +@.#   @@@@#.+  +@.#   @@@@#.+ ",
"+@.#     .#   .++@.#     .#   .+",
"..#           #...#           #.",
" #.+         +#  #.+         +# ",
"  #@+++  +  +.    #@+++  +  +.  ",
"    @@@++.++.       @@@++.++.   ",
"     #.@.#..#+       #.@.#..#+  ",
"     ##      .+      ##      .+ ",
"+   +#        @++   +#        @+",
"@+++.#         @@+++.#         @",
"#@...#.       +##@...#.       +#",
"   ##.#.     +.#   ##.#.     +.#"};
