/* XPM */
static char * winter_xpm[] = {
"32 32 4 1",
" 	c #003B9F",
".	c #CACACA",
"+	c #007FCB",
"@	c #41C4CD",
"  .++@   ++++++   .++@   ++++++ ",
".@++++     ++   .@++++     ++   ",
"++++++@  .    @@++++++@  .    @@",
"++++++  @+.@@   ++++++  @+.@@   ",
"       @+++++@         @+++++@  ",
"@@  .@@ ++++   .@@  .@@ ++++   .",
"++.@+++@     @@+++.@+++@     @@+",
"++++++++    @+++++++++++    @+++",
"++             +++             +",
"    .@@  @@         .@@  @@     ",
"  .@+++@@++       .@+++@@++     ",
"@@  ++++   .@@@@@@  ++++   .@@@@",
"++   +++ .@+++++++   +++ .@+++++",
"++@@@   @+++++++++@@@   @+++++++",
"+++    @+++++++++++    @++++++++",
"+  .@   +++++++++  .@   ++++++++",
"  .++@   ++++++   .++@   ++++++ ",
".@++++     ++   .@++++     ++   ",
"++++++@  .    @@++++++@  .    @@",
"++++++  @+.@@   ++++++  @+.@@   ",
"       @+++++@         @+++++@  ",
"@@  .@@ ++++   .@@  .@@ ++++   .",
"++.@+++@     @@+++.@+++@     @@+",
"++++++++    @+++++++++++    @+++",
"++             +++             +",
"    .@@  @@         .@@  @@     ",
"  .@+++@@++       .@+++@@++     ",
"@@  ++++   .@@@@@@  ++++   .@@@@",
"++   +++ .@+++++++   +++ .@+++++",
"++@@@   @+++++++++@@@   @+++++++",
"+++    @+++++++++++    @++++++++",
"+  .@   +++++++++  .@   ++++++++"};
