/* XPM */
static char * 0_xpm[] = {
"32 32 5 1",
" 	c #08FF00",
".	c #000000",
"+	c #A53B00",
"@	c #FF7F00",
"#	c #F45E00",
"                                ",
"                                ",
"                                ",
"                                ",
"                                ",
"                                ",
"          ..........            ",
"          .++++++++.            ",
"       ....@@@@@@@@....         ",
"       ....@@@@@@@@....         ",
"       ..+@@@@@@@@@@+...        ",
"       ..+@@@#+++@@@+...        ",
"       ..+@@@+...@@@+...        ",
"       ..+@@@+...@@@+...        ",
"       ..+@@@+...@@@+...        ",
"       ..+@@@+...@@@+...        ",
"       ..+@@@+...@@@+...        ",
"       ..+@@@+...@@@+...        ",
"       ..+@@@+...@@@+...        ",
"       ..+@@@@@@@@@@+...        ",
"       ..+@@@@@@@@@@+...        ",
"       ....@@@@@@@@.....        ",
"          .++++++++.....        ",
"          ..............        ",
"          ..............        ",
"           ............         ",
"                                ",
"                                ",
"                                ",
"                                ",
"                                ",
"                                "};
