/* XPM */
static char * 2_xpm[] = {
"32 32 6 1",
" 	c #08FF00",
".	c #000000",
"+	c #A53B00",
"@	c #FF7F00",
"#	c #4F1200",
"$	c #F45E00",
"                                ",
"                                ",
"                                ",
"                                ",
"                                ",
"                                ",
"           ..........           ",
"           ..........           ",
"           .+++++++..           ",
"        ....@@@@@@@....         ",
"        ..+@@@@@@@@@@...        ",
"        ..+@@@@@@@@@@...        ",
"        ..+@@+...+@@@...        ",
"        ..+@@+...+@@@...        ",
"        ..+@@+..@@@@@...        ",
"        ..#+++++@@@++...        ",
"        .....+@@@@@.....        ",
"        ....@@@@@+......        ",
"        ....@@@@@+......        ",
"        ..#+@@@@@$+++...        ",
"        ..+@@@@@@@@@@...        ",
"        ..+@@@@@@@@@@...        ",
"        ..#++++++++++...        ",
"        ................        ",
"        ................        ",
"           .............        ",
"                                ",
"                                ",
"                                ",
"                                ",
"                                ",
"                                "};
