/* XPM */
static char * 3_xpm[] = {
"32 32 5 1",
" 	c #08FF00",
".	c #000000",
"+	c #4F1200",
"@	c #A53B00",
"#	c #FF7F00",
"                                ",
"                                ",
"                                ",
"                                ",
"                                ",
"                                ",
"        .............           ",
"        .............           ",
"        ..+@@@@@@@@@.           ",
"        ..@#########....        ",
"        ..@##########@..        ",
"        ..@##########@..        ",
"        ..+@@@@@@@###@..        ",
"        ..........###@..        ",
"           ...@######@..        ",
"           ...@######@..        ",
"            ..@#####....        ",
"            ..@#####....        ",
"        ..........###@..        ",
"        ..+@@@@@@@###@..        ",
"        ..@##########@..        ",
"        ..@##########@..        ",
"        ..@#########....        ",
"        ..+@@@@@@@@@....        ",
"        ................        ",
"        ................        ",
"                                ",
"                                ",
"                                ",
"                                ",
"                                ",
"                                "};
