/* XPM */
static char * 4_xpm[] = {
"32 32 9 1",
" 	c #08FF00",
".	c #000000",
"+	c #7B2700",
"@	c #F45E00",
"#	c #A53B00",
"$	c #FF7F00",
"%	c #CC4C00",
"&	c #4F1300",
"*	c #1D0100",
"                                ",
"                                ",
"                                ",
"                                ",
"                                ",
"                                ",
"        .............           ",
"        .............           ",
"        ..+@@@+.@@@@.           ",
"        ..#$$$#.$$$$.           ",
"        ..#$$$#.$$$$.           ",
"        ..#$$$#.$$$$.           ",
"        ..#$$$#.$$$$.           ",
"        ..#$$$%&$$$$&*..        ",
"        ..#$$$$$$$$$$#..        ",
"        ..#$$$$$$$$$$#..        ",
"        ..#$$$$$$$$$$#..        ",
"        ..+@@@@@$$$$@+..        ",
"        ........$$$$....        ",
"        ........$$$$....        ",
"           .....$$$$....        ",
"             ...$$$$.           ",
"             ...$$$$.           ",
"             ...&&&&.           ",
"             ........           ",
"               ......           ",
"                                ",
"                                ",
"                                ",
"                                ",
"                                ",
"                                "};
