/* XPM */
static char * bar_xpm[] = {
"32 32 4 1",
" 	c #08FF00",
".	c #000000",
"+	c #A53B00",
"@	c #FF7F00",
"                                ",
"                                ",
"                                ",
"                                ",
"                  ......        ",
"                  .+@@+.        ",
"                 ..@@@..        ",
"                 .+@@+.         ",
"                ..@@@..         ",
"                .+@@+.          ",
"               ..@@@..          ",
"               .+@@+.           ",
"              ..@@@..           ",
"              .+@@+.            ",
"             ..@@@..            ",
"             .+@@+.             ",
"            ..@@@..             ",
"            .+@@+.              ",
"           ..@@@..              ",
"           .+@@+.               ",
"          ..@@@..               ",
"          .+@@+.                ",
"         ..@@@..                ",
"         .+@@+.                 ",
"        ..@@@..                 ",
"        .+@@+.                  ",
"       ..@@@..                  ",
"       .+@@+.                   ",
"       ......                   ",
"                                ",
"                                ",
"                                "};
