/* XPM */
static char * chest_shadow_xpm[] = {
"36 36 2 1",
" 	c #08FF00",
".	c #000000",
"                                    ",
"                                    ",
"                                    ",
"                                    ",
"                                    ",
"                                    ",
"                                    ",
"                                    ",
"                                    ",
"                                    ",
"       ......................       ",
"      ........................      ",
"     ..........................     ",
"     ..........................     ",
"    ............................    ",
"    ............................    ",
"    ............................    ",
"    ............................    ",
"    ............................    ",
"    ............................    ",
"    ............................    ",
"    ............................    ",
"     ..........................     ",
"     ..........................     ",
"     ..........................     ",
"     ..........................     ",
"     ..........................     ",
"     ..........................     ",
"     ..........................     ",
"     ..........................     ",
"                                    ",
"                                    ",
"                                    ",
"                                    ",
"                                    ",
"                                    "};
