/* XPM */
static char * coin_xpm[] = {
"32 32 266 2",
"  	c #08FF00",
". 	c #000000",
"+ 	c #F9EDAD",
"@ 	c #FEE986",
"# 	c #FCE47B",
"$ 	c #FBE27B",
"% 	c #F7D977",
"& 	c #EDCB6C",
"* 	c #FCF3B7",
"= 	c #FFF093",
"- 	c #FFE673",
"; 	c #FED94B",
"> 	c #FED745",
", 	c #FED748",
"' 	c #FED84E",
") 	c #FDD753",
"! 	c #F7CE58",
"~ 	c #EEC158",
"{ 	c #FFF3A4",
"] 	c #FFE775",
"^ 	c #FFDF5A",
"/ 	c #FFED90",
"( 	c #CE7900",
"_ 	c #D17C01",
": 	c #D07901",
"< 	c #DC9313",
"[ 	c #FECE34",
"} 	c #FECE36",
"| 	c #FCCE42",
"1 	c #F2C148",
"2 	c #FFF198",
"3 	c #FFE56B",
"4 	c #FFEB86",
"5 	c #C87000",
"6 	c #CE7E01",
"7 	c #E3AB09",
"8 	c #E6AD09",
"9 	c #E6A607",
"0 	c #E39B04",
"a 	c #DF9205",
"b 	c #D77D02",
"c 	c #FECA2F",
"d 	c #FCC833",
"e 	c #F2BB3C",
"f 	c #FFE467",
"g 	c #FFFECD",
"h 	c #CA7500",
"i 	c #D89A07",
"j 	c #E4B40C",
"k 	c #F6D312",
"l 	c #F7D011",
"m 	c #F6C910",
"n 	c #F4BF0D",
"o 	c #F0B00A",
"p 	c #EA9C06",
"q 	c #E28B05",
"r 	c #FEC72B",
"s 	c #FBC42A",
"t 	c #EDB132",
"u 	c #FEF3A7",
"v 	c #FFE670",
"w 	c #FFFECE",
"x 	c #DCA609",
"y 	c #E8BE0F",
"z 	c #F2D113",
"A 	c #FEE015",
"B 	c #FDD913",
"C 	c #FCD212",
"D 	c #FBC90E",
"E 	c #FABD0C",
"F 	c #F6B70D",
"G 	c #F09F08",
"H 	c #E58A06",
"I 	c #FDC427",
"J 	c #F8BB26",
"K 	c #E6A32B",
"L 	c #63592C",
"M 	c #FFEA80",
"N 	c #FFDD51",
"O 	c #C97100",
"P 	c #DBA308",
"Q 	c #EAC210",
"R 	c #F5D814",
"S 	c #FDE517",
"T 	c #FDDB14",
"U 	c #FCD312",
"V 	c #FCCC10",
"W 	c #FBC30E",
"X 	c #FAB80C",
"Y 	c #F9AD0A",
"Z 	c #F8A80A",
"` 	c #F1990A",
" .	c #E68508",
"..	c #FCC124",
"+.	c #F1AD21",
"@.	c #FDF1A3",
"#.	c #FFE265",
"$.	c #F8EB9C",
"%.	c #D59004",
"&.	c #E7BB0E",
"*.	c #F4D613",
"=.	c #FDE716",
"-.	c #FEE616",
";.	c #FDD513",
">.	c #FCCE11",
",.	c #FBC50F",
"'.	c #FABB0E",
").	c #F9B10B",
"!.	c #F8A90A",
"~.	c #F8A40B",
"{.	c #F79E0C",
"].	c #EF920B",
"^.	c #FDC022",
"/.	c #F6B21C",
"(.	c #DF911C",
"_.	c #FFED8C",
":.	c #FFDC4F",
"<.	c #C97300",
"[.	c #E0AA09",
"}.	c #F0CC12",
"|.	c #FCE317",
"1.	c #FEE116",
"2.	c #FBC610",
"3.	c #FABE0F",
"4.	c #FAB30D",
"5.	c #F9B50F",
"6.	c #F79F0C",
"7.	c #F69D0D",
"8.	c #F3980E",
"9.	c #E8880D",
"0.	c #FBBA1E",
"a.	c #E79817",
"b.	c #FFE778",
"c.	c #FFD744",
"d.	c #D07E00",
"e.	c #E7B60C",
"f.	c #F6D512",
"g.	c #FEE516",
"h.	c #FBC710",
"i.	c #FAB60E",
"j.	c #F8AB0B",
"k.	c #F49A0E",
"l.	c #F29710",
"m.	c #EA8C10",
"n.	c #FBB91C",
"o.	c #EB9C14",
"p.	c #F7E69B",
"q.	c #FFE268",
"r.	c #FFEF98",
"s.	c #D78D02",
"t.	c #ECBE0E",
"u.	c #F9DB14",
"v.	c #FDD413",
"w.	c #FABF0F",
"x.	c #F8AD0C",
"y.	c #EF9312",
"z.	c #EB8C13",
"A.	c #FCBA1B",
"B.	c #ED9D12",
"C.	c #9E6C10",
"D.	c #F8E598",
"E.	c #FEE063",
"F.	c #FFF3A6",
"G.	c #DA9203",
"H.	c #EFC30F",
"I.	c #FCDA13",
"J.	c #FDDA13",
"K.	c #FCCD11",
"L.	c #F9AD0C",
"M.	c #F9B110",
"N.	c #ED8F14",
"O.	c #E98B16",
"P.	c #FDB919",
"Q.	c #EC9B10",
"R.	c #CF7B0E",
"S.	c #F6DD89",
"T.	c #FEDF61",
"U.	c #FED239",
"V.	c #DC9203",
"W.	c #F0C10E",
"X.	c #FBD411",
"Y.	c #FCCD10",
"Z.	c #FBC510",
"`.	c #F9AE0C",
" +	c #F8A70C",
".+	c #EA8B16",
"++	c #E68718",
"@+	c #FBB516",
"#+	c #E8950E",
"$+	c #9D690C",
"%+	c #F6D36C",
"&+	c #FED242",
"*+	c #FECD32",
"=+	c #E49505",
"-+	c #F2AD09",
";+	c #F9B40A",
">+	c #E3821B",
",+	c #E07E1D",
"'+	c #FFFDBF",
")+	c #EC990D",
"!+	c #CE6604",
"~+	c #FCD44F",
"{+	c #FECB30",
"]+	c #DD8504",
"^+	c #EC9C07",
"/+	c #F7AA0A",
"(+	c #E3831B",
"_+	c #DC7920",
":+	c #F4A60F",
"<+	c #E38809",
"[+	c #F2C654",
"}+	c #FDCD3C",
"|+	c #FEC92D",
"1+	c #E38806",
"2+	c #F09B08",
"3+	c #F7A30B",
"4+	c #DC7820",
"5+	c #FEF4BE",
"6+	c #E78F0A",
"7+	c #CF6803",
"8+	c #F4C346",
"9+	c #FDC72D",
"0+	c #FDC629",
"a+	c #E68807",
"b+	c #F0940A",
"c+	c #F59C0D",
"d+	c #FFFFEA",
"e+	c #F2B541",
"f+	c #D67104",
"g+	c #F2BC3A",
"h+	c #FAC029",
"i+	c #FDC326",
"j+	c #E37F08",
"k+	c #EA8B0B",
"l+	c #DA751F",
"m+	c #F8B320",
"n+	c #EB950B",
"o+	c #DA7805",
"p+	c #ECAE2F",
"q+	c #F6B723",
"r+	c #FBBD21",
"s+	c #FDBF20",
"t+	c #E58314",
"u+	c #E18116",
"v+	c #DF7E19",
"w+	c #FFFDC0",
"x+	c #F9B013",
"y+	c #F1A10E",
"z+	c #E68D09",
"A+	c #D46F04",
"B+	c #E19927",
"C+	c #EAA423",
"D+	c #F0A719",
"E+	c #F8B017",
"F+	c #F5A913",
"G+	c #F3A712",
"H+	c #ED9B0E",
"I+	c #E7900B",
"J+	c #DA7906",
"K+	c #C95D01",
"L+	c #CA8A1E",
"M+	c #E38E10",
"N+	c #DE840C",
"O+	c #DB7D0B",
"P+	c #D16C05",
"Q+	c #784F06",
"                                                                ",
"                                                                ",
"                                                                ",
"                                                                ",
"                                                                ",
"                        . . . . . . . .                         ",
"                    . . . + @ # $ % & . . .                     ",
"                  . . * = - ; > , ' ) ! ~ . .                   ",
"                . . { ] ^ / ( _ : < [ } | 1 . .                 ",
"              . . 2 3 4 5 6 7 8 9 0 a b c d e . .               ",
"            . . 2 f g h i j k l m n o p q r s t . .             ",
"          . . u v w h x y z A B C D E F G H I J K .             ",
"          . L M N O P Q R S T U V W X Y Z `  ...+.. .           ",
"          . @.#.$.%.&.*.=.-.;.>.,.'.).!.~.{.].^./.(..           ",
"          . _.:.<.[.}.|.-.1.>.2.3.4.5.~.6.7.8.9.0.a..           ",
"        . . b.c.d.e.f.g.1.T h.3.i.j.~.6.7.k.l.m.n.o.. .         ",
"        . p.q.r.s.t.u.A T v.w.i.x.~.6.7.k.l.y.z.A.B.C..         ",
"        . D.E.F.G.H.I.J.v.K.i.L.M.6.7.k.l.y.N.O.P.Q.R..         ",
"        . S.T.U.V.W.X.C Y.Z.`. +6.7.k.l.y.N..+++@+#+$+.         ",
"          . %+&+*+=+-+;+Y Z 7.k.l.y.N.O.++>+,+'+)+!+.           ",
"          . . ~+{+]+^+/+!.~.k.l.y.N..+++(+,+_+:+<+. .           ",
"            . [+}+|+1+2+3+6.l.y.N.O.++>+,+4+5+6+7+.             ",
"            . . 8+9+0+a+b+c+y.N..+++(+,+_+d+e+f+. .             ",
"              . . g+h+i+j+k+N.O.++>+,+l+m+n+o+. .               ",
"                . . p+q+r+s+t+u+v+w+x+y+z+A+. .                 ",
"                  . . B+C+D+E+F+G+H+I+J+K+. .                   ",
"                    . . . L+M+N+O+P+Q+. . .                     ",
"                        . . . . . . . .                         ",
"                                                                ",
"                                                                ",
"                                                                ",
"                                                                "};
