/* XPM */
static char * key_xpm[] = {
"32 32 10 1",
" 	c #08FF00",
".	c #202020",
"+	c #000800",
"@	c #F6B252",
"#	c #000000",
"$	c #FFDAA4",
"%	c #F69518",
"&	c #313031",
"*	c #FFEEDE",
"=	c #EE8900",
"                                ",
"                         .+     ",
"                        .@@#    ",
"                       .$@%#    ",
"                      &*@%#     ",
"                     &*@%=$#    ",
"                    &*@%#$@%#   ",
"                   &*@%# #%%=#  ",
"                  &*@%#   #=#   ",
"                 &*@%=$#   #    ",
"                &*@%#$@%#       ",
"               &*@%# #%%=#      ",
"              .*@%#   #=#       ",
"             .*@%#     #        ",
"    &&...++ .$@%#               ",
"   &**$$$@$+@@%#                ",
"  &*@@@@@@@$@%#                 ",
" &*@%#####@@$#                  ",
"&*@%#     #@@@#                 ",
"&*@#       +@@#                 ",
".$@#       +$$#                 ",
".$@#       +*$#                 ",
".$@#       .*@#                 ",
"+@@#       &$@#                 ",
"+$@@#     &*@%#                 ",
" +@@@+++.&*@@#                  ",
" #@@@@$***@@@#                  ",
"  ##@@$$$@%##                   ",
"    #######                     ",
"                                ",
"                                ",
"                                "};
