/* XPM */
static char * key_shadow_xpm[] = {
"32 32 9 1",
" 	c #08FF00",
".	c #010101",
"+	c #000000",
"@	c #171717",
"#	c #1C1C1C",
"$	c #131313",
"%	c #020202",
"&	c #202020",
"*	c #121212",
"                                ",
"                          .+    ",
"                         .@@+   ",
"                        .#@$+   ",
"                       %&@$+    ",
"                      %&@$*#+   ",
"                     %&@$+#@$+  ",
"                    %&@$+ +$$*+ ",
"                   %&@$+   +*+  ",
"                  %&@$*#+   +   ",
"                 %&@$+#@$+      ",
"                %&@$+ +$$*+     ",
"               .&@$+   +*+      ",
"              .&@$+     +       ",
"     %%...++ .#@$+              ",
"    %&&###@#+@@$+               ",
"   %&@@@@@@@#@$+                ",
"  %&@$+++++@@#+                 ",
" %&@$+     +@@@+                ",
" %&@+       +@@+                ",
" .#@+       +##+                ",
" .#@+       +&#+                ",
" .#@+       .&@+                ",
" +@@+       %#@+                ",
" +#@@+     %&@$+                ",
"  +@@@+++.%&@@+                 ",
"  +@@@@#&&&@@@+                 ",
"   ++@@###@$++                  ",
"     +++++++                    ",
"                                ",
"                                ",
"                                "};
