/* XPM */
static char * level_xpm[] = {
"96 32 61 1",
" 	c #08FF00",
".	c #000000",
"+	c #000100",
"@	c #030300",
"#	c #020200",
"$	c #020400",
"%	c #030700",
"&	c #020500",
"*	c #030000",
"=	c #020000",
"-	c #010100",
";	c #020300",
">	c #030600",
",	c #030500",
"'	c #010200",
")	c #4F1200",
"!	c #A53B00",
"~	c #A43B00",
"{	c #A63C00",
"]	c #A83F00",
"^	c #4C0F00",
"/	c #030400",
"(	c #FF7F00",
"_	c #010000",
":	c #FA8900",
"<	c #FD8200",
"[	c #FC8100",
"}	c #A73F00",
"|	c #A63D00",
"1	c #FD8300",
"2	c #A93F00",
"3	c #A73D00",
"4	c #FE8100",
"5	c #FC8500",
"6	c #A84000",
"7	c #A73E00",
"8	c #000200",
"9	c #FD7E00",
"0	c #4E1100",
"a	c #A83E00",
"b	c #FE8000",
"c	c #AA4200",
"d	c #FC8400",
"e	c #A94300",
"f	c #4D1000",
"g	c #AB4300",
"h	c #AA4000",
"i	c #FE7F00",
"j	c #F35D00",
"k	c #FB8600",
"l	c #A94100",
"m	c #FE7E00",
"n	c #F45E00",
"o	c #010400",
"p	c #FC8200",
"q	c #FE8200",
"r	c #010300",
"s	c #A94000",
"t	c #FB8700",
"u	c #A33A00",
"v	c #A23A00",
"                                                                                                ",
"                                                                                                ",
"                                                                                                ",
"                                                                                                ",
"                                                                                                ",
"                                                                                                ",
" .++.........       ++..............   @#$$$$%%  @%&##&#@   ++..............   .++.........     ",
" ..*======*..       ................   @-#--;>,  @>'---#@   ................   ..*======*..     ",
" ..)!!!!!!)..       ..)~!!!!!!!!!)..   #-{{{]^////^]]]];@   ..)~!!!!!!!!!)..   ..)!!!!!!)..     ",
" ..!((((((!_.       ..!((((((((((!..   #-{:<[}>/>@|1<<2#@   ..!((((((((((!..   ..!((((((!_.     ",
" +.!((((((!=.       ..!((((((((((!..   #-3[456/@@/71<<2#@   ..!((((((((((!..   +.!((((((!=.     ",
" 8.~9(((((!=.       ..!((((((((((!..   ;'0abbc;//$cd1ef@@   ..!((((((((((!..   8.~9(((((!=.     ",
" +.~(((((({_.       ..!(((!!!!!!!)..   #''abbgf//fc<de#;@   ..!(((!!!!!!!)..   ..~(((((({_.     ",
" 88!((((((!..       ..!(((..........   #--hbb57//61<<e#;,   ..!(((..........   8.!((((((!..     ",
" 88!i(((((!..       ..!((((((!..----    #-)2b<c@;c<1ef;;    ..!((((((!..----   8.!i(((((!..     ",
" 8.~9(((((!..       ..!((((((!..        #--24bc;$c<<e-;/    ..!((((((!..       ..~9(((((!..     ",
" 8.!((((((!..       ..!i(((((!..        #--2b4c//cd1e'$/    ..!i(((((!..       ..!((((((!..     ",
" +.!9(((((!......   ..!9(((((!..----     #-02bjccjklf@$     ..!9(((((!..----   ..!9(((((!...... ",
" +.!m(((((n!!!)..   ..!(((..........     #--2<4[[d<lo;/     ..!(((..........   ..!m(((((n!!!).. ",
" ..!((((((((((!..   ..!(((!!!!!!!)..     @--hpq<1<plr;/     ..!(((!!!!!!!)..   ..!((((((((((!.. ",
" ..!((((((((((!..   ..!((((((((((!..      --024<ddsf@;      ..!((((((((((!..   ..!((((((((((!.. ",
" ..!((((((((((!..   ..!((((((((((!..      ---21<d<s-$/      ..!((((((((((!..   ..!((((((((((!.. ",
" ..!9999999999!..   ..!((((((((((!..      ---2<<tds';/      ..!((((((((((!..   ..!9999999999!.. ",
" ..)uuuuuuuuuv)..   ..)!!!!!!!!!!)..       --0sl2e0;;       ..)!!!!!!!!!!)..   ..)uuuuuuuuuv).. ",
" ................   ................       -------';;       ................   ................ ",
" .............---   ................       ----##;'&@       ................   .............--- ",
"                                                                                                ",
"                                                                                                ",
"                                                                                                ",
"                                                                                                ",
"                                                                                                ",
"                                                                                                "};
