/* XPM */
static char * star_xpm[] = {
"32 32 5 1",
" 	c #08FF00",
".	c #42252F",
"+	c #F0DD11",
"@	c #FFFFFF",
"#	c #C76904",
"                                ",
"                                ",
"               ...              ",
"              .+++.             ",
"              .+++.             ",
"              .+++.             ",
"             .+++++.            ",
"             .+++++.            ",
"             .+++++.            ",
"            .+++++++.           ",
"     ........+++++++........    ",
"     .+++++++++++++++++++++.    ",
"     .@+++++++++++++++++++@.    ",
"     .#@@+++++++++++++++@@#.    ",
"     .###@+++++++++++++@###.    ",
"      .###@+++++++++++@###.     ",
"       ..##+++++++++++##..      ",
"       ..##+++++++++++##..      ",
"         .#+++++++++++#.        ",
"          .+++++++++++.         ",
"         .+++++@@@+++++.        ",
"         .+++@@###@@+++.        ",
"       ..++@@#######@@++..      ",
"       ..@@####...####@@..      ",
"       ..####..   ..####..      ",
"       ..####..   ..####..      ",
"       ..##..       ..##..      ",
"       ....           ....      ",
"                                ",
"                                ",
"                                ",
"                                "};
