/* XPM */
static char *_sdark1739225559[] = {
/* columns rows colors chars-per-pixel */
"128 128 4 1 ",
"  c #5E562F",
". c #81753E",
"X c #A79148",
"o c #C9AA4F",
/* pixels */
"XXX. .XXXXXX.. ..XXXo.. .XXo ..XXXX. .XXXXXX.. ..XXXo.. .XXo ..XXXX. .XXXXXX.. ..XXXo.. .XXo ..XXXX. .XXXXXX.. ..XXXo.. .XXo ..X",
"XXXXo .XX. ..oo  ..Xoo ooooo .XXXXXXo .XX. ..oo  ..Xoo ooooo .XXXXXXo .XX. ..oo  ..Xoo ooooo .XXXXXXo .XX. ..oo  ..Xoo ooooo .XX",
"XXXXoo .. o.XXooo  .oo.XXXo ..XXXXXXoo .. o.XXooo  .oo.XXXo ..XXXXXXoo .. o.XXooo  .oo.XXXo ..XXXXXXoo .. o.XXooo  .oo.XXXo ..XX",
"XXXooXoo .. XXXoooo.X .XXXo .XXXXXXooXoo .. XXXoooo.X .XXXo .XXXXXXooXoo .. XXXoooo.X .XXXo .XXXXXXooXoo .. XXXoooo.X .XXXo .XXX",
"XXoo.XXoo .XXXXXXXooo ..XXo ..XXXXoo.XXoo .XXXXXXXooo ..XXo ..XXXXoo.XXoo .XXXXXXXooo ..XXo ..XXXXoo.XXoo .XXXXXXXooo ..XXo ..XX",
"Xo...XXX. .XXXXXXXooXo ...X ....Xo...XXX. .XXXXXXXooXo ...X ....Xo...XXX. .XXXXXXXooXo ...X ....Xo...XXX. .XXXXXXXooXo ...X ....",
"....XXXoo ..XXXXXooXXXo  ..o .......XXXoo ..XXXXXooXXXo  ..o .......XXXoo ..XXXXXooXXXo  ..o .......XXXoo ..XXXXXooXXXo  ..o ...",
"o.XXXXoooo  .XXooXXXXXXoo  oo  .o.XXXXoooo  .XXooXXXXXXoo  oo  .o.XXXXoooo  .XXooXXXXXXoo  oo  .o.XXXXoooo  .XXooXXXXXXoo  oo  .",
"o .XXXoXXXoo .oo ...XXXooo.ooo  o .XXXoXXXoo .oo ...XXXooo.ooo  o .XXXoXXXoo .oo ...XXXooo.ooo  o .XXXoXXXoo .oo ...XXXooo.ooo  ",
"oo .XXo.XXXooo..X...oooXXXXXXooooo .XXo.XXXooo..X...oooXXXXXXooooo .XXo.XXXooo..X...oooXXXXXXooooo .XXo.XXXooo..X...oooXXXXXXooo",
"Xoo .o..XXXXXooo  ...XXXXXXX oXXXoo .o..XXXXXooo  ...XXXXXXX oXXXoo .o..XXXXXooo  ...XXXXXXX oXXXoo .o..XXXXXooo  ...XXXXXXX oXX",
"XXo  ..X.XXXXXoo .  ..XXXXo .XXXXXo  ..X.XXXXXoo .  ..XXXXo .XXXXXo  ..X.XXXXXoo .  ..XXXXo .XXXXXo  ..X.XXXXXoo .  ..XXXXo .XXX",
"XXooo ....XXXXX .Xooo..XXo .XXXXXXooo ....XXXXX .Xooo..XXo .XXXXXXooo ....XXXXX .Xooo..XXo .XXXXXXooo ....XXXXX .Xooo..XXo .XXXX",
"XXX.oo    .. ...XXXooo.... .XXXXXXX.oo    .. ...XXXooo.... .XXXXXXX.oo    .. ...XXXooo.... .XXXXXXX.oo    .. ...XXXooo.... .XXXX",
"Xo ..Xoo .ooo .XXXXXXoo X ..XXXXXo ..Xoo .ooo .XXXXXXoo X ..XXXXXo ..Xoo .ooo .XXXXXXoo X ..XXXXXo ..Xoo .ooo .XXXXXXoo X ..XXXX",
"o .XXXXXoooXXo .XXXXooXXXo ..XXXo .XXXXXoooXXo .XXXXooXXXo ..XXXo .XXXXXoooXXo .XXXXooXXXo ..XXXo .XXXXXoooXXo .XXXXooXXXo ..XXX",
". .XXXXX..XXXXo ..Xo .XXXoo  .... .XXXXX..XXXXo ..Xo .XXXoo  .... .XXXXX..XXXXo ..Xo .XXXoo  .... .XXXXX..XXXXo ..Xo .XXXoo  ...",
"o .XXX.o.XXXXXXo  oo .XXooooooooo .XXX.o.XXXXXXo  oo .XXooooooooo .XXX.o.XXXXXXo  oo .XXooooooooo .XXX.o.XXXXXXo  oo .XXoooooooo",
"oo ..........XXoooo .XX .XXXXXXXoo ..........XXoooo .XX .XXXXXXXoo ..........XXoooo .XX .XXXXXXXoo ..........XXoooo .XX .XXXXXXX",
"Xooo oooo     o.XXoo .XX .XXXXXXXooo oooo     o.XXoo .XX .XXXXXXXooo oooo     o.XXoo .XX .XXXXXXXooo oooo     o.XXoo .XX .XXXXXX",
"XXXoooXXoooooX .XXXooo.Xo .XXXXXXXXoooXXoooooX .XXXooo.Xo .XXXXXXXXoooXXoooooX .XXXooo.Xo .XXXXXXXXoooXXoooooX .XXXooo.Xo .XXXXX",
"XXooXXXXXXooXo .XXXXXoooX  ..XXXXXooXXXXXXooXo .XXXXXoooX  ..XXXXXooXXXXXXooXo .XXXXXoooX  ..XXXXXooXXXXXXooXo .XXXXXoooX  ..XXX",
"oo .XXXXXXo Xo .XXXXXXXooo.   Xooo .XXXXXXo Xo .XXXXXXXooo.   Xooo .XXXXXXo Xo .XXXXXXXooo.   Xooo .XXXXXXo Xo .XXXXXXXooo.   Xo",
"X .XXXXXXo .Xo ...XXXXXXXoooooooX .XXXXXXo .Xo ...XXXXXXXoooooooX .XXXXXXo .Xo ...XXXXXXXoooooooX .XXXXXXo .Xo ...XXXXXXXooooooo",
"oo .XXXXo .XXXo   ..XXXooooX ..ooo .XXXXo .XXXo   ..XXXooooX ..ooo .XXXXo .XXXo   ..XXXooooX ..ooo .XXXXo .XXXo   ..XXXooooX ..o",
"Xoo .XX.o.XXXXoXXoo.o....o. .XXXXoo .XX.o.XXXXoXXoo.o....o. .XXXXoo .XX.o.XXXXoXXoo.o....o. .XXXXoo .XX.o.XXXXoXXoo.o....o. .XXX",
"XXoo ... ......oooo     Xo .XXXXXXoo ... ......oooo     Xo .XXXXXXoo ... ......oooo     Xo .XXXXXXoo ... ......oooo     Xo .XXXX",
"XXXoo   oooo   oXXoo.XXXXoo .XXXXXXoo   oooo   oXXoo.XXXXoo .XXXXXXoo   oooo   oXXoo.XXXXoo .XXXXXXoo   oooo   oXXoo.XXXXoo .XXX",
"XXXoo..ooXXooXX..XXo .XXXXoo .XXXXXoo..ooXXooXX..XXo .XXXXoo .XXXXXoo..ooXXooXX..XXo .XXXXoo .XXXXXoo..ooXXooXX..XXo .XXXXoo .XX",
"...oXooXXXXXXoo.XXXoo .XXXXoo .....oXooXXXXXXoo.XXXoo .XXXXoo .....oXooXXXXXXoo.XXXoo .XXXXoo .....oXooXXXXXXoo.XXXoo .XXXXoo ..",
"  oXooXXXXXXXX .XXXXo .XXXXXoo    oXooXXXXXXXX .XXXXo .XXXXXoo    oXooXXXXXXXX .XXXXo .XXXXXoo    oXooXXXXXXXX .XXXXo .XXXXXoo  ",
"XXooo.XXXXXXXX .XXXXoo .XXXXXooXXXooo.XXXXXXXX .XXXXoo .XXXXXooXXXooo.XXXXXXXX .XXXXoo .XXXXXooXXXooo.XXXXXXXX .XXXXoo .XXXXXooX",
"XXX. .XXXXXX.. ..XXXo.. .XXo ..XXXX. .XXXXXX.. ..XXXo.. .XXo ..XXXX. .XXXXXX.. ..XXXo.. .XXo ..XXXX. .XXXXXX.. ..XXXo.. .XXo ..X",
"XXXXo .XX. ..oo  ..Xoo ooooo .XXXXXXo .XX. ..oo  ..Xoo ooooo .XXXXXXo .XX. ..oo  ..Xoo ooooo .XXXXXXo .XX. ..oo  ..Xoo ooooo .XX",
"XXXXoo .. o.XXooo  .oo.XXXo ..XXXXXXoo .. o.XXooo  .oo.XXXo ..XXXXXXoo .. o.XXooo  .oo.XXXo ..XXXXXXoo .. o.XXooo  .oo.XXXo ..XX",
"XXXooXoo .. XXXoooo.X .XXXo .XXXXXXooXoo .. XXXoooo.X .XXXo .XXXXXXooXoo .. XXXoooo.X .XXXo .XXXXXXooXoo .. XXXoooo.X .XXXo .XXX",
"XXoo.XXoo .XXXXXXXooo ..XXo ..XXXXoo.XXoo .XXXXXXXooo ..XXo ..XXXXoo.XXoo .XXXXXXXooo ..XXo ..XXXXoo.XXoo .XXXXXXXooo ..XXo ..XX",
"Xo...XXX. .XXXXXXXooXo ...X ....Xo...XXX. .XXXXXXXooXo ...X ....Xo...XXX. .XXXXXXXooXo ...X ....Xo...XXX. .XXXXXXXooXo ...X ....",
"....XXXoo ..XXXXXooXXXo  ..o .......XXXoo ..XXXXXooXXXo  ..o .......XXXoo ..XXXXXooXXXo  ..o .......XXXoo ..XXXXXooXXXo  ..o ...",
"o.XXXXoooo  .XXooXXXXXXoo  oo  .o.XXXXoooo  .XXooXXXXXXoo  oo  .o.XXXXoooo  .XXooXXXXXXoo  oo  .o.XXXXoooo  .XXooXXXXXXoo  oo  .",
"o .XXXoXXXoo .oo ...XXXooo.ooo  o .XXXoXXXoo .oo ...XXXooo.ooo  o .XXXoXXXoo .oo ...XXXooo.ooo  o .XXXoXXXoo .oo ...XXXooo.ooo  ",
"oo .XXo.XXXooo..X...oooXXXXXXooooo .XXo.XXXooo..X...oooXXXXXXooooo .XXo.XXXooo..X...oooXXXXXXooooo .XXo.XXXooo..X...oooXXXXXXooo",
"Xoo .o..XXXXXooo  ...XXXXXXX oXXXoo .o..XXXXXooo  ...XXXXXXX oXXXoo .o..XXXXXooo  ...XXXXXXX oXXXoo .o..XXXXXooo  ...XXXXXXX oXX",
"XXo  ..X.XXXXXoo .  ..XXXXo .XXXXXo  ..X.XXXXXoo .  ..XXXXo .XXXXXo  ..X.XXXXXoo .  ..XXXXo .XXXXXo  ..X.XXXXXoo .  ..XXXXo .XXX",
"XXooo ....XXXXX .Xooo..XXo .XXXXXXooo ....XXXXX .Xooo..XXo .XXXXXXooo ....XXXXX .Xooo..XXo .XXXXXXooo ....XXXXX .Xooo..XXo .XXXX",
"XXX.oo    .. ...XXXooo.... .XXXXXXX.oo    .. ...XXXooo.... .XXXXXXX.oo    .. ...XXXooo.... .XXXXXXX.oo    .. ...XXXooo.... .XXXX",
"Xo ..Xoo .ooo .XXXXXXoo X ..XXXXXo ..Xoo .ooo .XXXXXXoo X ..XXXXXo ..Xoo .ooo .XXXXXXoo X ..XXXXXo ..Xoo .ooo .XXXXXXoo X ..XXXX",
"o .XXXXXoooXXo .XXXXooXXXo ..XXXo .XXXXXoooXXo .XXXXooXXXo ..XXXo .XXXXXoooXXo .XXXXooXXXo ..XXXo .XXXXXoooXXo .XXXXooXXXo ..XXX",
". .XXXXX..XXXXo ..Xo .XXXoo  .... .XXXXX..XXXXo ..Xo .XXXoo  .... .XXXXX..XXXXo ..Xo .XXXoo  .... .XXXXX..XXXXo ..Xo .XXXoo  ...",
"o .XXX.o.XXXXXXo  oo .XXooooooooo .XXX.o.XXXXXXo  oo .XXooooooooo .XXX.o.XXXXXXo  oo .XXooooooooo .XXX.o.XXXXXXo  oo .XXoooooooo",
"oo ..........XXoooo .XX .XXXXXXXoo ..........XXoooo .XX .XXXXXXXoo ..........XXoooo .XX .XXXXXXXoo ..........XXoooo .XX .XXXXXXX",
"Xooo oooo     o.XXoo .XX .XXXXXXXooo oooo     o.XXoo .XX .XXXXXXXooo oooo     o.XXoo .XX .XXXXXXXooo oooo     o.XXoo .XX .XXXXXX",
"XXXoooXXoooooX .XXXooo.Xo .XXXXXXXXoooXXoooooX .XXXooo.Xo .XXXXXXXXoooXXoooooX .XXXooo.Xo .XXXXXXXXoooXXoooooX .XXXooo.Xo .XXXXX",
"XXooXXXXXXooXo .XXXXXoooX  ..XXXXXooXXXXXXooXo .XXXXXoooX  ..XXXXXooXXXXXXooXo .XXXXXoooX  ..XXXXXooXXXXXXooXo .XXXXXoooX  ..XXX",
"oo .XXXXXXo Xo .XXXXXXXooo.   Xooo .XXXXXXo Xo .XXXXXXXooo.   Xooo .XXXXXXo Xo .XXXXXXXooo.   Xooo .XXXXXXo Xo .XXXXXXXooo.   Xo",
"X .XXXXXXo .Xo ...XXXXXXXoooooooX .XXXXXXo .Xo ...XXXXXXXoooooooX .XXXXXXo .Xo ...XXXXXXXoooooooX .XXXXXXo .Xo ...XXXXXXXooooooo",
"oo .XXXXo .XXXo   ..XXXooooX ..ooo .XXXXo .XXXo   ..XXXooooX ..ooo .XXXXo .XXXo   ..XXXooooX ..ooo .XXXXo .XXXo   ..XXXooooX ..o",
"Xoo .XX.o.XXXXoXXoo.o....o. .XXXXoo .XX.o.XXXXoXXoo.o....o. .XXXXoo .XX.o.XXXXoXXoo.o....o. .XXXXoo .XX.o.XXXXoXXoo.o....o. .XXX",
"XXoo ... ......oooo     Xo .XXXXXXoo ... ......oooo     Xo .XXXXXXoo ... ......oooo     Xo .XXXXXXoo ... ......oooo     Xo .XXXX",
"XXXoo   oooo   oXXoo.XXXXoo .XXXXXXoo   oooo   oXXoo.XXXXoo .XXXXXXoo   oooo   oXXoo.XXXXoo .XXXXXXoo   oooo   oXXoo.XXXXoo .XXX",
"XXXoo..ooXXooXX..XXo .XXXXoo .XXXXXoo..ooXXooXX..XXo .XXXXoo .XXXXXoo..ooXXooXX..XXo .XXXXoo .XXXXXoo..ooXXooXX..XXo .XXXXoo .XX",
"...oXooXXXXXXoo.XXXoo .XXXXoo .....oXooXXXXXXoo.XXXoo .XXXXoo .....oXooXXXXXXoo.XXXoo .XXXXoo .....oXooXXXXXXoo.XXXoo .XXXXoo ..",
"  oXooXXXXXXXX .XXXXo .XXXXXoo    oXooXXXXXXXX .XXXXo .XXXXXoo    oXooXXXXXXXX .XXXXo .XXXXXoo    oXooXXXXXXXX .XXXXo .XXXXXoo  ",
"XXooo.XXXXXXXX .XXXXoo .XXXXXooXXXooo.XXXXXXXX .XXXXoo .XXXXXooXXXooo.XXXXXXXX .XXXXoo .XXXXXooXXXooo.XXXXXXXX .XXXXoo .XXXXXooX",
"XXX. .XXXXXX.. ..XXXo.. .XXo ..XXXX. .XXXXXX.. ..XXXo.. .XXo ..XXXX. .XXXXXX.. ..XXXo.. .XXo ..XXXX. .XXXXXX.. ..XXXo.. .XXo ..X",
"XXXXo .XX. ..oo  ..Xoo ooooo .XXXXXXo .XX. ..oo  ..Xoo ooooo .XXXXXXo .XX. ..oo  ..Xoo ooooo .XXXXXXo .XX. ..oo  ..Xoo ooooo .XX",
"XXXXoo .. o.XXooo  .oo.XXXo ..XXXXXXoo .. o.XXooo  .oo.XXXo ..XXXXXXoo .. o.XXooo  .oo.XXXo ..XXXXXXoo .. o.XXooo  .oo.XXXo ..XX",
"XXXooXoo .. XXXoooo.X .XXXo .XXXXXXooXoo .. XXXoooo.X .XXXo .XXXXXXooXoo .. XXXoooo.X .XXXo .XXXXXXooXoo .. XXXoooo.X .XXXo .XXX",
"XXoo.XXoo .XXXXXXXooo ..XXo ..XXXXoo.XXoo .XXXXXXXooo ..XXo ..XXXXoo.XXoo .XXXXXXXooo ..XXo ..XXXXoo.XXoo .XXXXXXXooo ..XXo ..XX",
"Xo...XXX. .XXXXXXXooXo ...X ....Xo...XXX. .XXXXXXXooXo ...X ....Xo...XXX. .XXXXXXXooXo ...X ....Xo...XXX. .XXXXXXXooXo ...X ....",
"....XXXoo ..XXXXXooXXXo  ..o .......XXXoo ..XXXXXooXXXo  ..o .......XXXoo ..XXXXXooXXXo  ..o .......XXXoo ..XXXXXooXXXo  ..o ...",
"o.XXXXoooo  .XXooXXXXXXoo  oo  .o.XXXXoooo  .XXooXXXXXXoo  oo  .o.XXXXoooo  .XXooXXXXXXoo  oo  .o.XXXXoooo  .XXooXXXXXXoo  oo  .",
"o .XXXoXXXoo .oo ...XXXooo.ooo  o .XXXoXXXoo .oo ...XXXooo.ooo  o .XXXoXXXoo .oo ...XXXooo.ooo  o .XXXoXXXoo .oo ...XXXooo.ooo  ",
"oo .XXo.XXXooo..X...oooXXXXXXooooo .XXo.XXXooo..X...oooXXXXXXooooo .XXo.XXXooo..X...oooXXXXXXooooo .XXo.XXXooo..X...oooXXXXXXooo",
"Xoo .o..XXXXXooo  ...XXXXXXX oXXXoo .o..XXXXXooo  ...XXXXXXX oXXXoo .o..XXXXXooo  ...XXXXXXX oXXXoo .o..XXXXXooo  ...XXXXXXX oXX",
"XXo  ..X.XXXXXoo .  ..XXXXo .XXXXXo  ..X.XXXXXoo .  ..XXXXo .XXXXXo  ..X.XXXXXoo .  ..XXXXo .XXXXXo  ..X.XXXXXoo .  ..XXXXo .XXX",
"XXooo ....XXXXX .Xooo..XXo .XXXXXXooo ....XXXXX .Xooo..XXo .XXXXXXooo ....XXXXX .Xooo..XXo .XXXXXXooo ....XXXXX .Xooo..XXo .XXXX",
"XXX.oo    .. ...XXXooo.... .XXXXXXX.oo    .. ...XXXooo.... .XXXXXXX.oo    .. ...XXXooo.... .XXXXXXX.oo    .. ...XXXooo.... .XXXX",
"Xo ..Xoo .ooo .XXXXXXoo X ..XXXXXo ..Xoo .ooo .XXXXXXoo X ..XXXXXo ..Xoo .ooo .XXXXXXoo X ..XXXXXo ..Xoo .ooo .XXXXXXoo X ..XXXX",
"o .XXXXXoooXXo .XXXXooXXXo ..XXXo .XXXXXoooXXo .XXXXooXXXo ..XXXo .XXXXXoooXXo .XXXXooXXXo ..XXXo .XXXXXoooXXo .XXXXooXXXo ..XXX",
". .XXXXX..XXXXo ..Xo .XXXoo  .... .XXXXX..XXXXo ..Xo .XXXoo  .... .XXXXX..XXXXo ..Xo .XXXoo  .... .XXXXX..XXXXo ..Xo .XXXoo  ...",
"o .XXX.o.XXXXXXo  oo .XXooooooooo .XXX.o.XXXXXXo  oo .XXooooooooo .XXX.o.XXXXXXo  oo .XXooooooooo .XXX.o.XXXXXXo  oo .XXoooooooo",
"oo ..........XXoooo .XX .XXXXXXXoo ..........XXoooo .XX .XXXXXXXoo ..........XXoooo .XX .XXXXXXXoo ..........XXoooo .XX .XXXXXXX",
"Xooo oooo     o.XXoo .XX .XXXXXXXooo oooo     o.XXoo .XX .XXXXXXXooo oooo     o.XXoo .XX .XXXXXXXooo oooo     o.XXoo .XX .XXXXXX",
"XXXoooXXoooooX .XXXooo.Xo .XXXXXXXXoooXXoooooX .XXXooo.Xo .XXXXXXXXoooXXoooooX .XXXooo.Xo .XXXXXXXXoooXXoooooX .XXXooo.Xo .XXXXX",
"XXooXXXXXXooXo .XXXXXoooX  ..XXXXXooXXXXXXooXo .XXXXXoooX  ..XXXXXooXXXXXXooXo .XXXXXoooX  ..XXXXXooXXXXXXooXo .XXXXXoooX  ..XXX",
"oo .XXXXXXo Xo .XXXXXXXooo.   Xooo .XXXXXXo Xo .XXXXXXXooo.   Xooo .XXXXXXo Xo .XXXXXXXooo.   Xooo .XXXXXXo Xo .XXXXXXXooo.   Xo",
"X .XXXXXXo .Xo ...XXXXXXXoooooooX .XXXXXXo .Xo ...XXXXXXXoooooooX .XXXXXXo .Xo ...XXXXXXXoooooooX .XXXXXXo .Xo ...XXXXXXXooooooo",
"oo .XXXXo .XXXo   ..XXXooooX ..ooo .XXXXo .XXXo   ..XXXooooX ..ooo .XXXXo .XXXo   ..XXXooooX ..ooo .XXXXo .XXXo   ..XXXooooX ..o",
"Xoo .XX.o.XXXXoXXoo.o....o. .XXXXoo .XX.o.XXXXoXXoo.o....o. .XXXXoo .XX.o.XXXXoXXoo.o....o. .XXXXoo .XX.o.XXXXoXXoo.o....o. .XXX",
"XXoo ... ......oooo     Xo .XXXXXXoo ... ......oooo     Xo .XXXXXXoo ... ......oooo     Xo .XXXXXXoo ... ......oooo     Xo .XXXX",
"XXXoo   oooo   oXXoo.XXXXoo .XXXXXXoo   oooo   oXXoo.XXXXoo .XXXXXXoo   oooo   oXXoo.XXXXoo .XXXXXXoo   oooo   oXXoo.XXXXoo .XXX",
"XXXoo..ooXXooXX..XXo .XXXXoo .XXXXXoo..ooXXooXX..XXo .XXXXoo .XXXXXoo..ooXXooXX..XXo .XXXXoo .XXXXXoo..ooXXooXX..XXo .XXXXoo .XX",
"...oXooXXXXXXoo.XXXoo .XXXXoo .....oXooXXXXXXoo.XXXoo .XXXXoo .....oXooXXXXXXoo.XXXoo .XXXXoo .....oXooXXXXXXoo.XXXoo .XXXXoo ..",
"  oXooXXXXXXXX .XXXXo .XXXXXoo    oXooXXXXXXXX .XXXXo .XXXXXoo    oXooXXXXXXXX .XXXXo .XXXXXoo    oXooXXXXXXXX .XXXXo .XXXXXoo  ",
"XXooo.XXXXXXXX .XXXXoo .XXXXXooXXXooo.XXXXXXXX .XXXXoo .XXXXXooXXXooo.XXXXXXXX .XXXXoo .XXXXXooXXXooo.XXXXXXXX .XXXXoo .XXXXXooX",
"XXX. .XXXXXX.. ..XXXo.. .XXo ..XXXX. .XXXXXX.. ..XXXo.. .XXo ..XXXX. .XXXXXX.. ..XXXo.. .XXo ..XXXX. .XXXXXX.. ..XXXo.. .XXo ..X",
"XXXXo .XX. ..oo  ..Xoo ooooo .XXXXXXo .XX. ..oo  ..Xoo ooooo .XXXXXXo .XX. ..oo  ..Xoo ooooo .XXXXXXo .XX. ..oo  ..Xoo ooooo .XX",
"XXXXoo .. o.XXooo  .oo.XXXo ..XXXXXXoo .. o.XXooo  .oo.XXXo ..XXXXXXoo .. o.XXooo  .oo.XXXo ..XXXXXXoo .. o.XXooo  .oo.XXXo ..XX",
"XXXooXoo .. XXXoooo.X .XXXo .XXXXXXooXoo .. XXXoooo.X .XXXo .XXXXXXooXoo .. XXXoooo.X .XXXo .XXXXXXooXoo .. XXXoooo.X .XXXo .XXX",
"XXoo.XXoo .XXXXXXXooo ..XXo ..XXXXoo.XXoo .XXXXXXXooo ..XXo ..XXXXoo.XXoo .XXXXXXXooo ..XXo ..XXXXoo.XXoo .XXXXXXXooo ..XXo ..XX",
"Xo...XXX. .XXXXXXXooXo ...X ....Xo...XXX. .XXXXXXXooXo ...X ....Xo...XXX. .XXXXXXXooXo ...X ....Xo...XXX. .XXXXXXXooXo ...X ....",
"....XXXoo ..XXXXXooXXXo  ..o .......XXXoo ..XXXXXooXXXo  ..o .......XXXoo ..XXXXXooXXXo  ..o .......XXXoo ..XXXXXooXXXo  ..o ...",
"o.XXXXoooo  .XXooXXXXXXoo  oo  .o.XXXXoooo  .XXooXXXXXXoo  oo  .o.XXXXoooo  .XXooXXXXXXoo  oo  .o.XXXXoooo  .XXooXXXXXXoo  oo  .",
"o .XXXoXXXoo .oo ...XXXooo.ooo  o .XXXoXXXoo .oo ...XXXooo.ooo  o .XXXoXXXoo .oo ...XXXooo.ooo  o .XXXoXXXoo .oo ...XXXooo.ooo  ",
"oo .XXo.XXXooo..X...oooXXXXXXooooo .XXo.XXXooo..X...oooXXXXXXooooo .XXo.XXXooo..X...oooXXXXXXooooo .XXo.XXXooo..X...oooXXXXXXooo",
"Xoo .o..XXXXXooo  ...XXXXXXX oXXXoo .o..XXXXXooo  ...XXXXXXX oXXXoo .o..XXXXXooo  ...XXXXXXX oXXXoo .o..XXXXXooo  ...XXXXXXX oXX",
"XXo  ..X.XXXXXoo .  ..XXXXo .XXXXXo  ..X.XXXXXoo .  ..XXXXo .XXXXXo  ..X.XXXXXoo .  ..XXXXo .XXXXXo  ..X.XXXXXoo .  ..XXXXo .XXX",
"XXooo ....XXXXX .Xooo..XXo .XXXXXXooo ....XXXXX .Xooo..XXo .XXXXXXooo ....XXXXX .Xooo..XXo .XXXXXXooo ....XXXXX .Xooo..XXo .XXXX",
"XXX.oo    .. ...XXXooo.... .XXXXXXX.oo    .. ...XXXooo.... .XXXXXXX.oo    .. ...XXXooo.... .XXXXXXX.oo    .. ...XXXooo.... .XXXX",
"Xo ..Xoo .ooo .XXXXXXoo X ..XXXXXo ..Xoo .ooo .XXXXXXoo X ..XXXXXo ..Xoo .ooo .XXXXXXoo X ..XXXXXo ..Xoo .ooo .XXXXXXoo X ..XXXX",
"o .XXXXXoooXXo .XXXXooXXXo ..XXXo .XXXXXoooXXo .XXXXooXXXo ..XXXo .XXXXXoooXXo .XXXXooXXXo ..XXXo .XXXXXoooXXo .XXXXooXXXo ..XXX",
". .XXXXX..XXXXo ..Xo .XXXoo  .... .XXXXX..XXXXo ..Xo .XXXoo  .... .XXXXX..XXXXo ..Xo .XXXoo  .... .XXXXX..XXXXo ..Xo .XXXoo  ...",
"o .XXX.o.XXXXXXo  oo .XXooooooooo .XXX.o.XXXXXXo  oo .XXooooooooo .XXX.o.XXXXXXo  oo .XXooooooooo .XXX.o.XXXXXXo  oo .XXoooooooo",
"oo ..........XXoooo .XX .XXXXXXXoo ..........XXoooo .XX .XXXXXXXoo ..........XXoooo .XX .XXXXXXXoo ..........XXoooo .XX .XXXXXXX",
"Xooo oooo     o.XXoo .XX .XXXXXXXooo oooo     o.XXoo .XX .XXXXXXXooo oooo     o.XXoo .XX .XXXXXXXooo oooo     o.XXoo .XX .XXXXXX",
"XXXoooXXoooooX .XXXooo.Xo .XXXXXXXXoooXXoooooX .XXXooo.Xo .XXXXXXXXoooXXoooooX .XXXooo.Xo .XXXXXXXXoooXXoooooX .XXXooo.Xo .XXXXX",
"XXooXXXXXXooXo .XXXXXoooX  ..XXXXXooXXXXXXooXo .XXXXXoooX  ..XXXXXooXXXXXXooXo .XXXXXoooX  ..XXXXXooXXXXXXooXo .XXXXXoooX  ..XXX",
"oo .XXXXXXo Xo .XXXXXXXooo.   Xooo .XXXXXXo Xo .XXXXXXXooo.   Xooo .XXXXXXo Xo .XXXXXXXooo.   Xooo .XXXXXXo Xo .XXXXXXXooo.   Xo",
"X .XXXXXXo .Xo ...XXXXXXXoooooooX .XXXXXXo .Xo ...XXXXXXXoooooooX .XXXXXXo .Xo ...XXXXXXXoooooooX .XXXXXXo .Xo ...XXXXXXXooooooo",
"oo .XXXXo .XXXo   ..XXXooooX ..ooo .XXXXo .XXXo   ..XXXooooX ..ooo .XXXXo .XXXo   ..XXXooooX ..ooo .XXXXo .XXXo   ..XXXooooX ..o",
"Xoo .XX.o.XXXXoXXoo.o....o. .XXXXoo .XX.o.XXXXoXXoo.o....o. .XXXXoo .XX.o.XXXXoXXoo.o....o. .XXXXoo .XX.o.XXXXoXXoo.o....o. .XXX",
"XXoo ... ......oooo     Xo .XXXXXXoo ... ......oooo     Xo .XXXXXXoo ... ......oooo     Xo .XXXXXXoo ... ......oooo     Xo .XXXX",
"XXXoo   oooo   oXXoo.XXXXoo .XXXXXXoo   oooo   oXXoo.XXXXoo .XXXXXXoo   oooo   oXXoo.XXXXoo .XXXXXXoo   oooo   oXXoo.XXXXoo .XXX",
"XXXoo..ooXXooXX..XXo .XXXXoo .XXXXXoo..ooXXooXX..XXo .XXXXoo .XXXXXoo..ooXXooXX..XXo .XXXXoo .XXXXXoo..ooXXooXX..XXo .XXXXoo .XX",
"...oXooXXXXXXoo.XXXoo .XXXXoo .....oXooXXXXXXoo.XXXoo .XXXXoo .....oXooXXXXXXoo.XXXoo .XXXXoo .....oXooXXXXXXoo.XXXoo .XXXXoo ..",
"  oXooXXXXXXXX .XXXXo .XXXXXoo    oXooXXXXXXXX .XXXXo .XXXXXoo    oXooXXXXXXXX .XXXXo .XXXXXoo    oXooXXXXXXXX .XXXXo .XXXXXoo  ",
"XXooo.XXXXXXXX .XXXXoo .XXXXXooXXXooo.XXXXXXXX .XXXXoo .XXXXXooXXXooo.XXXXXXXX .XXXXoo .XXXXXooXXXooo.XXXXXXXX .XXXXoo .XXXXXooX"
};
