/* XPM */
static char * 1_xpm[] = {
"90 110 3 1",
" 	c #08FF00",
".	c #000000",
"+	c #FA7D00",
"                    ..................................................                    ",
"                    ..................................................                    ",
"                    ..................................................                    ",
"                    ..................................................                    ",
"                    ..................................................                    ",
"                    ..................................................                    ",
"                    ..................................................                    ",
"                    ..................................................                    ",
"                    ..................................................                    ",
"                    ..................................................                    ",
"          ....................++++++++++++++++++++++++++++++....................          ",
"          ....................++++++++++++++++++++++++++++++....................          ",
"          ....................++++++++++++++++++++++++++++++....................          ",
"          ....................++++++++++++++++++++++++++++++....................          ",
"          ....................++++++++++++++++++++++++++++++....................          ",
"          ....................++++++++++++++++++++++++++++++....................          ",
"          ....................++++++++++++++++++++++++++++++....................          ",
"          ....................++++++++++++++++++++++++++++++....................          ",
"          ....................++++++++++++++++++++++++++++++....................          ",
"          ....................++++++++++++++++++++++++++++++....................          ",
"          ..........++++++++++++++++++++++++++++++++++++++++....................          ",
"          ..........++++++++++++++++++++++++++++++++++++++++....................          ",
"          ..........++++++++++++++++++++++++++++++++++++++++....................          ",
"          ..........++++++++++++++++++++++++++++++++++++++++....................          ",
"          ..........++++++++++++++++++++++++++++++++++++++++....................          ",
"          ..........++++++++++++++++++++++++++++++++++++++++....................          ",
"          ..........++++++++++++++++++++++++++++++++++++++++....................          ",
"          ..........++++++++++++++++++++++++++++++++++++++++....................          ",
"          ..........++++++++++++++++++++++++++++++++++++++++....................          ",
"          ..........++++++++++++++++++++++++++++++++++++++++....................          ",
"          ..........++++++++++++++++++++++++++++++++++++++++....................          ",
"          ..........++++++++++++++++++++++++++++++++++++++++....................          ",
"          ..........++++++++++++++++++++++++++++++++++++++++....................          ",
"          ..........++++++++++++++++++++++++++++++++++++++++....................          ",
"          ..........++++++++++++++++++++++++++++++++++++++++....................          ",
"          ..........++++++++++++++++++++++++++++++++++++++++....................          ",
"          ..........++++++++++++++++++++++++++++++++++++++++....................          ",
"          ..........++++++++++++++++++++++++++++++++++++++++....................          ",
"          ..........++++++++++++++++++++++++++++++++++++++++....................          ",
"          ..........++++++++++++++++++++++++++++++++++++++++....................          ",
"          ....................++++++++++++++++++++++++++++++....................          ",
"          ....................++++++++++++++++++++++++++++++....................          ",
"          ....................++++++++++++++++++++++++++++++....................          ",
"          ....................++++++++++++++++++++++++++++++....................          ",
"          ....................++++++++++++++++++++++++++++++....................          ",
"          ....................++++++++++++++++++++++++++++++....................          ",
"          ....................++++++++++++++++++++++++++++++....................          ",
"          ....................++++++++++++++++++++++++++++++....................          ",
"          ....................++++++++++++++++++++++++++++++....................          ",
"          ....................++++++++++++++++++++++++++++++....................          ",
"                    ..........++++++++++++++++++++++++++++++....................          ",
"                    ..........++++++++++++++++++++++++++++++....................          ",
"                    ..........++++++++++++++++++++++++++++++....................          ",
"                    ..........++++++++++++++++++++++++++++++....................          ",
"                    ..........++++++++++++++++++++++++++++++....................          ",
"                    ..........++++++++++++++++++++++++++++++....................          ",
"                    ..........++++++++++++++++++++++++++++++....................          ",
"                    ..........++++++++++++++++++++++++++++++....................          ",
"                    ..........++++++++++++++++++++++++++++++....................          ",
"                    ..........++++++++++++++++++++++++++++++....................          ",
"..............................++++++++++++++++++++++++++++++..............................",
"..............................++++++++++++++++++++++++++++++..............................",
"..............................++++++++++++++++++++++++++++++..............................",
"..............................++++++++++++++++++++++++++++++..............................",
"..............................++++++++++++++++++++++++++++++..............................",
"..............................++++++++++++++++++++++++++++++..............................",
"..............................++++++++++++++++++++++++++++++..............................",
"..............................++++++++++++++++++++++++++++++..............................",
"..............................++++++++++++++++++++++++++++++..............................",
"..............................++++++++++++++++++++++++++++++..............................",
"..........++++++++++++++++++++++++++++++++++++++++++++++++++++++++++++....................",
"..........++++++++++++++++++++++++++++++++++++++++++++++++++++++++++++....................",
"..........++++++++++++++++++++++++++++++++++++++++++++++++++++++++++++....................",
"..........++++++++++++++++++++++++++++++++++++++++++++++++++++++++++++....................",
"..........++++++++++++++++++++++++++++++++++++++++++++++++++++++++++++....................",
"..........++++++++++++++++++++++++++++++++++++++++++++++++++++++++++++....................",
"..........++++++++++++++++++++++++++++++++++++++++++++++++++++++++++++....................",
"..........++++++++++++++++++++++++++++++++++++++++++++++++++++++++++++....................",
"..........++++++++++++++++++++++++++++++++++++++++++++++++++++++++++++....................",
"..........++++++++++++++++++++++++++++++++++++++++++++++++++++++++++++....................",
"..........++++++++++++++++++++++++++++++++++++++++++++++++++++++++++++....................",
"..........++++++++++++++++++++++++++++++++++++++++++++++++++++++++++++....................",
"..........++++++++++++++++++++++++++++++++++++++++++++++++++++++++++++....................",
"..........++++++++++++++++++++++++++++++++++++++++++++++++++++++++++++....................",
"..........++++++++++++++++++++++++++++++++++++++++++++++++++++++++++++....................",
"..........++++++++++++++++++++++++++++++++++++++++++++++++++++++++++++....................",
"..........++++++++++++++++++++++++++++++++++++++++++++++++++++++++++++....................",
"..........++++++++++++++++++++++++++++++++++++++++++++++++++++++++++++....................",
"..........++++++++++++++++++++++++++++++++++++++++++++++++++++++++++++....................",
"..........++++++++++++++++++++++++++++++++++++++++++++++++++++++++++++....................",
"..........................................................................................",
"..........................................................................................",
"..........................................................................................",
"..........................................................................................",
"..........................................................................................",
"..........................................................................................",
"..........................................................................................",
"..........................................................................................",
"..........................................................................................",
"..........................................................................................",
"          ................................................................................",
"          ................................................................................",
"          ................................................................................",
"          ................................................................................",
"          ................................................................................",
"          ................................................................................",
"          ................................................................................",
"          ................................................................................",
"          ................................................................................",
"          ................................................................................"};
