/* XPM */
static char * 5_xpm[] = {
"90 110 3 1",
" 	c #000000",
".	c #08FF00",
"+	c #FA7D00",
"                                                                                ..........",
"                                                                                ..........",
"                                                                                ..........",
"                                                                                ..........",
"                                                                                ..........",
"                                                                                ..........",
"                                                                                ..........",
"                                                                                ..........",
"                                                                                ..........",
"                                                                                ..........",
"          ++++++++++++++++++++++++++++++++++++++++++++++++++++++++++++                    ",
"          ++++++++++++++++++++++++++++++++++++++++++++++++++++++++++++                    ",
"          ++++++++++++++++++++++++++++++++++++++++++++++++++++++++++++                    ",
"          ++++++++++++++++++++++++++++++++++++++++++++++++++++++++++++                    ",
"          ++++++++++++++++++++++++++++++++++++++++++++++++++++++++++++                    ",
"          ++++++++++++++++++++++++++++++++++++++++++++++++++++++++++++                    ",
"          ++++++++++++++++++++++++++++++++++++++++++++++++++++++++++++                    ",
"          ++++++++++++++++++++++++++++++++++++++++++++++++++++++++++++                    ",
"          ++++++++++++++++++++++++++++++++++++++++++++++++++++++++++++                    ",
"          ++++++++++++++++++++++++++++++++++++++++++++++++++++++++++++                    ",
"          ++++++++++++++++++++++++++++++++++++++++++++++++++++++++++++                    ",
"          ++++++++++++++++++++++++++++++++++++++++++++++++++++++++++++                    ",
"          ++++++++++++++++++++++++++++++++++++++++++++++++++++++++++++                    ",
"          ++++++++++++++++++++++++++++++++++++++++++++++++++++++++++++                    ",
"          ++++++++++++++++++++++++++++++++++++++++++++++++++++++++++++                    ",
"          ++++++++++++++++++++++++++++++++++++++++++++++++++++++++++++                    ",
"          ++++++++++++++++++++++++++++++++++++++++++++++++++++++++++++                    ",
"          ++++++++++++++++++++++++++++++++++++++++++++++++++++++++++++                    ",
"          ++++++++++++++++++++++++++++++++++++++++++++++++++++++++++++                    ",
"          ++++++++++++++++++++++++++++++++++++++++++++++++++++++++++++                    ",
"          ++++++++++++++++++++                                                            ",
"          ++++++++++++++++++++                                                            ",
"          ++++++++++++++++++++                                                            ",
"          ++++++++++++++++++++                                                            ",
"          ++++++++++++++++++++                                                            ",
"          ++++++++++++++++++++                                                            ",
"          ++++++++++++++++++++                                                            ",
"          ++++++++++++++++++++                                                            ",
"          ++++++++++++++++++++                                                            ",
"          ++++++++++++++++++++                                                            ",
"          ++++++++++++++++++++++++++++++++++++++++++++++++++                              ",
"          ++++++++++++++++++++++++++++++++++++++++++++++++++                              ",
"          ++++++++++++++++++++++++++++++++++++++++++++++++++                              ",
"          ++++++++++++++++++++++++++++++++++++++++++++++++++                              ",
"          ++++++++++++++++++++++++++++++++++++++++++++++++++                              ",
"          ++++++++++++++++++++++++++++++++++++++++++++++++++                              ",
"          ++++++++++++++++++++++++++++++++++++++++++++++++++                              ",
"          ++++++++++++++++++++++++++++++++++++++++++++++++++                              ",
"          ++++++++++++++++++++++++++++++++++++++++++++++++++                              ",
"          ++++++++++++++++++++++++++++++++++++++++++++++++++                              ",
"          ++++++++++++++++++++++++++++++++++++++++++++++++++++++++++++                    ",
"          ++++++++++++++++++++++++++++++++++++++++++++++++++++++++++++                    ",
"          ++++++++++++++++++++++++++++++++++++++++++++++++++++++++++++                    ",
"          ++++++++++++++++++++++++++++++++++++++++++++++++++++++++++++                    ",
"          ++++++++++++++++++++++++++++++++++++++++++++++++++++++++++++                    ",
"          ++++++++++++++++++++++++++++++++++++++++++++++++++++++++++++                    ",
"          ++++++++++++++++++++++++++++++++++++++++++++++++++++++++++++                    ",
"          ++++++++++++++++++++++++++++++++++++++++++++++++++++++++++++                    ",
"          ++++++++++++++++++++++++++++++++++++++++++++++++++++++++++++                    ",
"          ++++++++++++++++++++++++++++++++++++++++++++++++++++++++++++                    ",
"                                                  ++++++++++++++++++++                    ",
"                                                  ++++++++++++++++++++                    ",
"                                                  ++++++++++++++++++++                    ",
"                                                  ++++++++++++++++++++                    ",
"                                                  ++++++++++++++++++++                    ",
"                                                  ++++++++++++++++++++                    ",
"                                                  ++++++++++++++++++++                    ",
"                                                  ++++++++++++++++++++                    ",
"                                                  ++++++++++++++++++++                    ",
"                                                  ++++++++++++++++++++                    ",
"          ++++++++++++++++++++++++++++++++++++++++++++++++++++++++++++                    ",
"          ++++++++++++++++++++++++++++++++++++++++++++++++++++++++++++                    ",
"          ++++++++++++++++++++++++++++++++++++++++++++++++++++++++++++                    ",
"          ++++++++++++++++++++++++++++++++++++++++++++++++++++++++++++                    ",
"          ++++++++++++++++++++++++++++++++++++++++++++++++++++++++++++                    ",
"          ++++++++++++++++++++++++++++++++++++++++++++++++++++++++++++                    ",
"          ++++++++++++++++++++++++++++++++++++++++++++++++++++++++++++                    ",
"          ++++++++++++++++++++++++++++++++++++++++++++++++++++++++++++                    ",
"          ++++++++++++++++++++++++++++++++++++++++++++++++++++++++++++                    ",
"          ++++++++++++++++++++++++++++++++++++++++++++++++++++++++++++                    ",
"          ++++++++++++++++++++++++++++++++++++++++++++++++++                              ",
"          ++++++++++++++++++++++++++++++++++++++++++++++++++                              ",
"          ++++++++++++++++++++++++++++++++++++++++++++++++++                              ",
"          ++++++++++++++++++++++++++++++++++++++++++++++++++                              ",
"          ++++++++++++++++++++++++++++++++++++++++++++++++++                              ",
"          ++++++++++++++++++++++++++++++++++++++++++++++++++                              ",
"          ++++++++++++++++++++++++++++++++++++++++++++++++++                              ",
"          ++++++++++++++++++++++++++++++++++++++++++++++++++                              ",
"          ++++++++++++++++++++++++++++++++++++++++++++++++++                              ",
"          ++++++++++++++++++++++++++++++++++++++++++++++++++                              ",
"                                                                                          ",
"                                                                                          ",
"                                                                                          ",
"                                                                                          ",
"                                                                                          ",
"                                                                                          ",
"                                                                                          ",
"                                                                                          ",
"                                                                                          ",
"                                                                                          ",
"..........                                                                      ..........",
"..........                                                                      ..........",
"..........                                                                      ..........",
"..........                                                                      ..........",
"..........                                                                      ..........",
"..........                                                                      ..........",
"..........                                                                      ..........",
"..........                                                                      ..........",
"..........                                                                      ..........",
"..........                                                                      .........."};
