/* XPM */
static char * 6_xpm[] = {
"90 110 3 1",
" 	c #000000",
".	c #08FF00",
"+	c #FA7D00",
"                                        ..................................................",
"                                        ..................................................",
"                                        ..................................................",
"                                        ..................................................",
"                                        ..................................................",
"                                        ..................................................",
"                                        ..................................................",
"                                        ..................................................",
"                                        ..................................................",
"                                        ..................................................",
"          ++++++++++++++++++++                    ........................................",
"          ++++++++++++++++++++                    ........................................",
"          ++++++++++++++++++++                    ........................................",
"          ++++++++++++++++++++                    ........................................",
"          ++++++++++++++++++++                    ........................................",
"          ++++++++++++++++++++                    ........................................",
"          ++++++++++++++++++++                    ........................................",
"          ++++++++++++++++++++                    ........................................",
"          ++++++++++++++++++++                    ........................................",
"          ++++++++++++++++++++                    ........................................",
"          ++++++++++++++++++++                    ........................................",
"          ++++++++++++++++++++                    ........................................",
"          ++++++++++++++++++++                    ........................................",
"          ++++++++++++++++++++                    ........................................",
"          ++++++++++++++++++++                    ........................................",
"          ++++++++++++++++++++                    ........................................",
"          ++++++++++++++++++++                    ........................................",
"          ++++++++++++++++++++                    ........................................",
"          ++++++++++++++++++++                    ........................................",
"          ++++++++++++++++++++                    ........................................",
"          ++++++++++++++++++++                                        ....................",
"          ++++++++++++++++++++                                        ....................",
"          ++++++++++++++++++++                                        ....................",
"          ++++++++++++++++++++                                        ....................",
"          ++++++++++++++++++++                                        ....................",
"          ++++++++++++++++++++                                        ....................",
"          ++++++++++++++++++++                                        ....................",
"          ++++++++++++++++++++                                        ....................",
"          ++++++++++++++++++++                                        ....................",
"          ++++++++++++++++++++                                        ....................",
"          ++++++++++++++++++++++++++++++++++++++++++++++++++                    ..........",
"          ++++++++++++++++++++++++++++++++++++++++++++++++++                    ..........",
"          ++++++++++++++++++++++++++++++++++++++++++++++++++                    ..........",
"          ++++++++++++++++++++++++++++++++++++++++++++++++++                    ..........",
"          ++++++++++++++++++++++++++++++++++++++++++++++++++                    ..........",
"          ++++++++++++++++++++++++++++++++++++++++++++++++++                    ..........",
"          ++++++++++++++++++++++++++++++++++++++++++++++++++                    ..........",
"          ++++++++++++++++++++++++++++++++++++++++++++++++++                    ..........",
"          ++++++++++++++++++++++++++++++++++++++++++++++++++                    ..........",
"          ++++++++++++++++++++++++++++++++++++++++++++++++++                    ..........",
"          ++++++++++++++++++++++++++++++++++++++++++++++++++++++++++++                    ",
"          ++++++++++++++++++++++++++++++++++++++++++++++++++++++++++++                    ",
"          ++++++++++++++++++++++++++++++++++++++++++++++++++++++++++++                    ",
"          ++++++++++++++++++++++++++++++++++++++++++++++++++++++++++++                    ",
"          ++++++++++++++++++++++++++++++++++++++++++++++++++++++++++++                    ",
"          ++++++++++++++++++++++++++++++++++++++++++++++++++++++++++++                    ",
"          ++++++++++++++++++++++++++++++++++++++++++++++++++++++++++++                    ",
"          ++++++++++++++++++++++++++++++++++++++++++++++++++++++++++++                    ",
"          ++++++++++++++++++++++++++++++++++++++++++++++++++++++++++++                    ",
"          ++++++++++++++++++++++++++++++++++++++++++++++++++++++++++++                    ",
"          ++++++++++++++++++++                    ++++++++++++++++++++                    ",
"          ++++++++++++++++++++                    ++++++++++++++++++++                    ",
"          ++++++++++++++++++++                    ++++++++++++++++++++                    ",
"          ++++++++++++++++++++                    ++++++++++++++++++++                    ",
"          ++++++++++++++++++++                    ++++++++++++++++++++                    ",
"          ++++++++++++++++++++                    ++++++++++++++++++++                    ",
"          ++++++++++++++++++++                    ++++++++++++++++++++                    ",
"          ++++++++++++++++++++                    ++++++++++++++++++++                    ",
"          ++++++++++++++++++++                    ++++++++++++++++++++                    ",
"          ++++++++++++++++++++                    ++++++++++++++++++++                    ",
"          ++++++++++++++++++++++++++++++++++++++++++++++++++++++++++++                    ",
"          ++++++++++++++++++++++++++++++++++++++++++++++++++++++++++++                    ",
"          ++++++++++++++++++++++++++++++++++++++++++++++++++++++++++++                    ",
"          ++++++++++++++++++++++++++++++++++++++++++++++++++++++++++++                    ",
"          ++++++++++++++++++++++++++++++++++++++++++++++++++++++++++++                    ",
"          ++++++++++++++++++++++++++++++++++++++++++++++++++++++++++++                    ",
"          ++++++++++++++++++++++++++++++++++++++++++++++++++++++++++++                    ",
"          ++++++++++++++++++++++++++++++++++++++++++++++++++++++++++++                    ",
"          ++++++++++++++++++++++++++++++++++++++++++++++++++++++++++++                    ",
"          ++++++++++++++++++++++++++++++++++++++++++++++++++++++++++++                    ",
"                    ++++++++++++++++++++++++++++++++++++++++++++++++++                    ",
"                    ++++++++++++++++++++++++++++++++++++++++++++++++++                    ",
"                    ++++++++++++++++++++++++++++++++++++++++++++++++++                    ",
"                    ++++++++++++++++++++++++++++++++++++++++++++++++++                    ",
"                    ++++++++++++++++++++++++++++++++++++++++++++++++++                    ",
"                    ++++++++++++++++++++++++++++++++++++++++++++++++++                    ",
"                    ++++++++++++++++++++++++++++++++++++++++++++++++++                    ",
"                    ++++++++++++++++++++++++++++++++++++++++++++++++++                    ",
"                    ++++++++++++++++++++++++++++++++++++++++++++++++++                    ",
"                    ++++++++++++++++++++++++++++++++++++++++++++++++++                    ",
"..........                                                                                ",
"..........                                                                                ",
"..........                                                                                ",
"..........                                                                                ",
"..........                                                                                ",
"..........                                                                                ",
"..........                                                                                ",
"..........                                                                                ",
"..........                                                                                ",
"..........                                                                                ",
"....................                                                            ..........",
"....................                                                            ..........",
"....................                                                            ..........",
"....................                                                            ..........",
"....................                                                            ..........",
"....................                                                            ..........",
"....................                                                            ..........",
"....................                                                            ..........",
"....................                                                            ..........",
"....................                                                            .........."};
