/* XPM */
static char * autumn_portal_xpm[] = {
"160 32 9 1",
" 	c #08FF00",
".	c #BAB0B0",
"+	c #8B8484",
"@	c #584B44",
"#	c #6D6666",
"$	c #A5A736",
"%	c #D6DF8A",
"&	c #8B9320",
"*	c #7F8814",
"               ...                             ...                             ...                             ...                             ...              ",
"          ++.@@+++.@@                     ++.@@+++.@@                     ++.@@+++.@@                     ++.@@+++.@@                     ++.@@+++.@@           ",
"       .@+++.@@+++.@++.@               .@+++.@@+++.@++.@               .@+++.@@+++.@++.@               .@+++.@@+++.@++.@               .@+++.@@+++.@++.@        ",
"     @++.@#++.@+++@@++.@@+           @++.@#++.@+++@@++.@@+           @++.@#++.@+++@@++.@@+           @++.@#++.@+++@@++.@@+           @++.@#++.@+++@@++.@@+      ",
"    @@#++@@#+.@###@++.@@++.         @@#++@@#+.@###@++.@@++.         @@#++@@#+.@###@++.@@++.         @@#++@@#+.@###@++.@@++.         @@#++@@#+.@###@++.@@++.     ",
"   +.@@#+.@@#$$$$$#+.@++++.@       +.@@#+.@@#%%%%%#+.@++++.@       +.@@#+.@@#$$$$$#+.@++++.@       +.@@#+.@@#&&&&&#+.@++++.@       +.@@#+.@@#$$$$$#+.@++++.@    ",
"  @+++.@++$$%%%%%%%$$@#+..@+.     @+++.@++%%$$$$$$$%%@#+..@+.     @+++.@++$$&&&&&&&$$@#+..@+.     @+++.@++&&$$$$$$$&&@#+..@+.     @+++.@++$$%%%%%%%$$@#+..@+.   ",
"  @##+.$$%%%$$$$$$$%%%$.@@+++.    @##+.%%$$$&&&&&&&$$$%.@@+++.    @##+.$$&&&$$$$$$$&&&$.@@+++.    @##+.&&$$$%%%%%%%$$$&.@@+++.    @##+.$$%%%$$$$$$$%%%$.@@+++.  ",
" @@@@#@$%$$$&&&&&&&$$$%$$#+++@   @@@@#@$$&&&$$$$$$$&&&$$%#+++@   @@@@#@&&$$$%%%%%%%$$$&&$#+++@   @@@@#@&$%%%$$$$$$$%%%$&&#+++@   @@@@#@$%$$$&&&&&&&$$$%$$#+++@  ",
" @@+.@%%$&&&$$$$$$$&&&$%%#++@@   @@+.@$$&&$$%%%%%%%$$&&$$#++@@   @@+.@&&$$%%$$$$$$$%%$$&&#++@@   @@+.@$$%$$$&&&&&&&$$$%$$#++@@   @@+.@%%$&&&&&&&&&&&&&$%%#++@@  ",
" @#++.$$&&$$%%%%%%%$$&&$$%#@@+.  @#++.&&$$%%$$$$$$$%%$$&&$#@@+.  @#++.&$%%$$&&&&&&&$$%%$&&#@@+.  @#++.$%$$&&&&&&&&&&&$$%$$#@@+.  @#++.$$&&&&$$$$$$$&&&&$$%#@@+. ",
" @##++$&&$%%$$$$$$$%%$&&$$@+++.  @##++&$$%$$&&&&&&&$$%$$&&@+++.  @##++$%$$&&*&&&&&*&&$$%$&@+++.  @##++%$&&&&&$$$$$&&&&&$%$@+++.  @##++$&*&$$$%%%%%$$$&*&$$@+++. ",
"++@@@@&$$%$$$&&&&&$$$%$$&$#+++@ ++@@@@$%%$&&&&&&&&&&&$%%$&#+++@ ++@@@@%$$&*&&$$$$$&&*&$$%$#+++@ ++@@@@$&&&&$$%%%%%$$&&&&$%#+++@ ++@@@@&&&$$%%$$$$$%%$$&&&$#+++@ ",
"#++@@&&$%$$&&&&&&&&&$$%$&&$#@@..#++@@$$%$&&&&$$$$$&&&&$%$$&#@@..#++@@%$$&&&$$%%%%%$$&&&$$%$#@@..#++@@$&&&$$%%$$$$$%%$$&&&$%#@@..#++@@&*&$%%$$&&&&&$$%%$&*&$#@@..",
"@#+..&$%$&&&&$$$$$&&&&$%$&&@+++.@#+..$%$&*&$$%%%%%$$&*&$%$&@+++.@#+..%$&&$$%%$$$$$%%$$&&$%$@+++.@#+..$&&$$%$$&&&&&$$%$$&&$$@+++.@#+..&&$%$$&&&&&&&&&$$%$&&&@+++.",
"@@#+.$%$$&&&$%%%%%$&&&$$%$&#+++@@@#+.%$&&&$$%$$$$$%$$&&&$%$#+++@@@#+.$&*&$%$$&&&&&$$%$&*&$%#+++@@@#+.&&&$%$&&&&&&&&&$%$&&&$#+++@@@#+.&$$%$&&&$$$$$&&&$%$$&&#+++@",
"@@@@@$%$&&&$%$$$$$%$&&&$%$&#++@@@@@@@%$&&$$%$&&&&&$%$$&&$%$#++@@@@@@@$&&$%$$&*&&&*&$$%$&&$%#++@@@@@@@&&$%$&*&&$$$&&*&$%$&&$#++@@@@@@@&$%$&&$$%%%%%$&&&$%$&&#++@@",
"#++.@%$$&&$%$$&&&$$%$&&$$%$@@@..#++.@$&&&$%$&&&&&&&$%$&&&$%@@@..#++.@&*&$%$&&&$$$&&&$%$&*&$@@@..#++.@&&$%&*&$$%%%$$&*&%$&&&@@@..#++.@$$%$&$$%$$$$$%$&&$%$$&@@@..",
"@+++.%$&&$%$$&*&*&$$%$&&$%$#+++.@+++.$&&$%$&&&$$$&&&$%$&&$%#+++.@+++.&&$%$&*&$%%%$&*&$%$&&$#+++.@+++.&$%$&&&$%$$$%$&&&$%$&&#+++.@+++.$%$&&$%$$&&&$$%$&&$%$&#+++.",
"@#++.%$&&$%$&*&$&*&$%$&&$%$#+++.@#++.$&&$%$&&$$%$$&&$%$&&$%#+++.@#++.&&$%$&&$%$$$%$&&$%$&&$#+++.@#++.&$%&*&$%$&&&$%$&*&%$&&#+++.@#++.$%$&&$%$&***&$%$&&$%$&#+++.",
"@#@#@%$&&$%$&&$%$&&$%$&&$%$@##@@@#@#@$&&$%$&&$%$%$&&$%$&&$%@##@@@#@#@&&$%$&&$%$$$%$&&$%$&&$@##@@@#@#@&$%&*&$%$&*&$%$&*&%$&&@##@@@#@#@$%$&&$%$&***&$%$&&$%$&@##@@",
"@@@@@%$&&$%$&*&$&*&$%$&&$%$+@@..@@@@@$&&$%$&&$$%$$&&$%$&&$%+@@..@@@@@&&$%$&&$%$$$%$&&$%$&&$+@@..@@@@@&$%&*&$%$&&&$%$&*&%$&&+@@..@@@@@$%$&&$%$&***&$%$&&$%$&+@@..",
"++..@%$&&$%$$&*&*&$$%$&&$%$++++.++..@$&&$%$&&&$$$&&&$%$&&$%++++.++..@&&$%$&*&$%%%$&*&$%$&&$++++.++..@&$%&*&&$%$$$%$&&*&%$&&++++.++..@$%$&&$%$$&&&&$%$&&$%$&++++.",
"#+++.%$$&&$%$$&&&$$%$&&$$%$##+@@#+++.$&&&$%$&&&&&&&$%$&&&$%##+@@#+++.&*&$%$&&&$$$&&&$%$&*&$##+@@#+++.&&$%&*&$$%%%$$&*&%$&&&##+@@#+++.$$%$&&$%$$$$$%$&&$%$$&##+@@",
"##+@@$%$&&&$%$$$$$%$&&&$%$&@@@@.##+@@%$&&$$%$&&&&&$%$$&&$%$@@@@.##+@@$&&$%$$&*&&&*&$$%$&&$%@@@@.##+@@&&$%&**&&$$$&&**&%$&&$@@@@.##+@@&$%$&&&$%%%%%$$&&$%$&&@@@@.",
"@#@@@$%$$&&&$%%%%%$&&&$$%$&++.@@@#@@@%$&&&$$%$$$$$%$$&&&$%$++.@@@#@@@$&*&$%$$&&&&&$$%$&*&$%++.@@@#@@@&&&$%&**&&&&&**&%$&&&$++.@@@#@@@&$$%$&&$$$$$$$&&$%$$&&++.@@",
"@@@..&$%$&&&&$$$$$&&&&$%$&&+++.@@@@..$%$&*&$$%%%%%$$&*&$%$&+++.@@@@..%$&&$$%%$$$$$%%$$&&$%$+++.@@@@..$&&$$%&&*****&&%$$&&$$+++.@@@@..&&$%$$&&&&&&&&&$$%$&&&+++.@",
"@+++.&&$%$$&&&&&&&&&$$%$&&$#+++.@+++.$$%$&&&&$$$$$&&&&$%$$&#+++.@+++.%$$&&&$$%%%%%$$&&&$$%$#+++.@+++.$&&&$$%%&&&&&%%$$&&&$%#+++.@+++.&*&$%%$$&&&&&$$%%$&*&$#+++.",
"@++++$&$$%$$$&&&&&$$$%$$&$%@#+@@@++++&$%%$&&&&&&&&&&&$%%$&&@#+@@@++++$%$$&*&&$$$$$&&*&$$%$&@#+@@@++++%$&&&&$$%%%%%$$&&&&$%$@#+@@@++++$&&&$$%%$$$$$%%$$&&&$%@#+@@",
"@@@@@$$&&$%%$$$$$$$%%$&&$$%@@@..@@@@@&&$$%$$&&&&&&&$$%$$&&$@@@..@@@@@&$%$$&&*&&&&&*&&$$%$&&@@@..@@@@@$%$&&&&&$$$$$&&&&&$%$$@@@..@@@@@$$&*&$$$%%%%%$$$&*&$$%@@@..",
"+++.@%$$&&$$%%%%%%%$$&&$$%$#+++.+++.@&&&$$%%$$$$$$$%%$$&&&$#+++.+++.@&&$%%$$&&&&&&&$$%%$&&$#+++.+++.@$$%$$&&&&&&&&&&&$$%$$&#+++.+++.@%$$&&&&$$$$$$$&&&&$$%$#+++.",
"##++@$%%$&&&$$$$$$$&&&$%%$&@#++@##++@$&&&&$$%%%%%%%$$&&&&$%@#++@##++@$&&$$%%$$$$$$$%%$$&&$$@#++@##++@&$$%$$$&&&&&&&$$$%$$&*@#++@##++@$%%$&&&&&&&&&&&&&$%%$&@#++@"};
