/* XPM */
static char * autumn_exit_xpm[] = {
"64 64 10 1",
" 	c #08FF00",
".	c #FFF083",
"+	c #FF8B2A",
"@	c #C85B24",
"#	c #AB9F9B",
"$	c #595656",
"%	c #9B928F",
"&	c #CEC7C2",
"*	c #798F3C",
"=	c #52632E",
"                                                                ",
"                                              .  .              ",
"                                              .  .              ",
"                                                     +     +    ",
"                                                  .  .+   +     ",
"                                               ++. ++....   +   ",
"                                           ++.+..   ......+     ",
"                                        ..@......+.....++...+   ",
"                                          .+......+.......+.++@ ",
"                                          .+......+.......+.++@ ",
"                                          .+.+.++.........+++++ ",
"                                          ................++++  ",
"                                           +...++....+.+++++@.@ ",
"                                        ++++.........+++++++@@@ ",
"                                          .+.+.++.++.+++++++@@@ ",
"                                      ++  @++++...+++++++++@@@@ ",
"                             @+@@@ +  +.  @+++++++++++.+++@@@@  ",
"                             @+@@@ +  +.  @+++++++++++.+++@@@@  ",
"                             +.++++  +..  @+++++++@@+++++@@@@@  ",
"       +                     ++++++ . ..  @@@@@@@@@@@++++@@#@#  ",
"        +                   ++..+++++.+...@@@@@@@@@@@@@@@@#@ #  ",
"                 @@          ++++++.......+ @@   # @@@@@@ #  @  ",
"            .                + @..+.+@.+.. @     # #$#$   #@#   ",
"           ... +              +@++++@+@+++++ @   # $$#$   # #   ",
"        ......          @@   @+++++@@+++++@+      # $##   # #   ",
"        ......          @@   @+++++@@+++++@+      # $##   # #   ",
"       @...+..     +  +.++@@  @@++@@@+@@@@@@      # %%@  #  #   ",
"     +  .++.. +@@  @++..++.@@  +@@@@@@@@@@@@@      #%&#%%# #    ",
"      ++...++ .+@  @+.@@++@+      @ @@ @@@@@@      #%&&%% #     ",
"       ..++@+++    @+.+....@        ### $$          %%%%% #     ",
"      ++++++++++   @+@@...@@@       $$$$$$#$&&&&&   %%%%%$#     ",
"       +++++.@+++   @@@...@@   #   $$$####&&######   %%##$#     ",
"    ++   @@@@+@+@   @@@.@@@   ##$$$$###&&&&&&&####%% %#$$$#     ",
"    ++   @@@@+@+@   @@@.@@@   ##$$$$###&&&&&&&####%% %#$$$#     ",
"     +     @@@@@+       ###   #$$$###&&&&&##%%#%%%%%%$$##$$     ",
"      @  ++@@@@@       ###$$ $$$####&&####%%%%%%%#$$$$#$$$$     ",
"            @@ #####  ####$$$#####&&&&%%%%%%###$$$$###$$$$      ",
"         ++ @   ################&&&##%%%%%##$$$####%%$$$$#      ",
"       +           ####$####$#########&###$$$####%%#$$$         ",
"      +@              #$$$$$$###%%%#&&#$$$####%%%##$$           ",
"                           $$##%###&#$$####%%%####$             ",
"                           $$##%###&#$$####%%%####$             ",
"                           $##%#&&&$$#&&%%%%##$$$$$             ",
"                          ###%#&&&$$#&#%##%$$$###$              ",
"                        ###%%##$$$###&%%%%$##%%##               ",
"                       ###%###$$###&&%%$###%%%%$$               ",
"                       ###%#$$##&&&%%$##%%%%%#$$$               ",
"                      ##%%#$$##&%%%$$#&%%%$$#$$$$               ",
"                     ##%##$$##&%$$$#&&%#$$$$$$###               ",
"                     ##%##$$##&%$$$#&&%#$$$$$$###               ",
"                    ##%#$$$#&&%$$$#&#%$$$$$###%##               ",
"                   ##%#$$$#&%%$#&&&%%$$$####%%###               ",
"                 ###%#$$##&%%$#&##%%$$$###%%#$$                 ",
"                ###%%$$###&$#&&###%#$$##%%#$$##                 ",
"  **           ##%%%$$#%&&$#&&##%%#$##%%##$##%%                 ",
"  **  *       ##%%%#$##&$$$###%%##$#%%%%$$$#%##                 ",
"      *      ##%%##$##&&$$####%#$$#%%%%$##*%#$$**               ",
"      *      ##%%##$##&&$$####%#$$#%%%%$##*%#$$**               ",
"        ====##%%%$$##%%$#####%%$##%%#%$####%$$$  *              ",
"     * =====####$$$##%$$####%%$#%%%$##$###%%$$*                 ",
"     ***===============####%%$$%%%$*$$$###%#$$$     * *         ",
"  ** *=*****============###%$$##$$#$$*####%#$$====    *         ",
"    *****************===============================            ",
"    ************************==========*******=******==*         "};
