/* XPM */
static char * chest2_xpm[] = {
"64 64 8 1",
" 	c #08FF00",
".	c #F5CE58",
"+	c #DEA700",
"@	c #570404",
"#	c #8E5C1D",
"$	c #710B0B",
"%	c #9A1818",
"&	c #C5750F",
"                                                                ",
"                                                                ",
"                                                                ",
"                                                                ",
"                                                                ",
"                                                                ",
"                                                                ",
"                                                                ",
"                                                                ",
"                                                                ",
"                                                                ",
"                                                                ",
"                                                                ",
"                                                                ",
"                                                                ",
"                                                                ",
"                                                                ",
"                                                                ",
"                                                                ",
"                                                                ",
"                                                                ",
"                                                                ",
"                                                                ",
"                                                                ",
"                                                                ",
"                                                                ",
"                                                                ",
"                                                                ",
"                                                                ",
"                                                                ",
"                                                                ",
"                                                                ",
"                                                                ",
"                                                                ",
"                                                                ",
"                                                                ",
"                                                                ",
"                                                                ",
"                                                                ",
"                                                                ",
"                                                                ",
"                                                                ",
"                                                                ",
"                                                                ",
"                                                                ",
"                                                                ",
"                                                                ",
"                                                                ",
"                                                                ",
"                       .+......@@+.++++                         ",
"                       +#$$$$$$%@.#@@@#+                        ",
"                      .#$%%%%%%$.#@@$$$@                        ",
"                     .+$$%%%%%$.+@@$$$$@#                       ",
"                     .+$$%%%%%$.+@@$$$$$#                       ",
"                     .+$$$$$$$$.+@@$$$$$#                       ",
"                     .+$$..+#$$.+@@@@@@@#                       ",
"                     .+&++&&++&+.#&&&&&##                       ",
"                     .###+&#+############                       ",
"                      ##$++#+##+#@@@@@@@                        ",
"                      +#@$$$$$+.#@@@@@@@                        ",
"                      +#@%%%%$+.#@@$$$$@                        ",
"                      +#@%%%%%#.#@@$$$$@                        ",
"                      +#@@@$$$#&#@@@@@@@                        ",
"                      +#################                        "};
