/* XPM */
static char * spring_exit_xpm[] = {
"64 64 12 1",
" 	c #08FF00",
".	c #FF7387",
"+	c #FFA3AA",
"@	c #CC5167",
"#	c #FFCACA",
"$	c #71334A",
"%	c #E79837",
"&	c #925F34",
"*	c #FFE1B6",
"=	c #798F3C",
"-	c #1FA732",
";	c #227330",
"                                                                ",
"                            .......                             ",
"                            .......                             ",
"       .    .......        ..+@+...@@.      ......              ",
"         ...+##++++..     ...@++...@@@.    ....###..            ",
"       @....+##..+++...   ....@....@@@....@@@######..           ",
"       .@@@...+$$..@@...  ...@..@@@@@@....@.@#.##.##.@          ",
"       ......++.$..$$.$.   @@@@@$$@@@@.@@@@...@##.#@@@          ",
"      .+.@@..++.$$$$$$$.      $$@@@@$@@$$....@@###..@@@@        ",
"      .+.@@..++.$$$$$$$.      $$@@@@$@@$$....@@###..@@@@        ",
"      .+@@@@@##+.$$$.$$$           $.$@.....@@@@@#.@@ $$  .     ",
"      .#+@@@@$$....$@@@@@@   .....@ $$........@..@.@$           ",
"      .#@@@@@@...$$.@@@.@@@ ...#..$@@$$$$...@@.@@@@.$       .   ",
"    . .+@@@@@$$@.$$$@.@@@@@ .@$@@@$@@$$##@...@@@@$.. .          ",
"  @@@ @.@...@@@@@..@@@@@@@      $$$$$$.@@@@.@$$$$$  ......      ",
"      @.@@@@@@@@@@@@@@@@    .   $$$$$@@@@..$@$$......###...     ",
"    @  @.@@@@$$$@@@@@@$$   .....  %$.$$$$.@   ...##.##..@#..    ",
"    @  @.@@@@$$$@@@@@@$$   .....  %$.$$$$.@   ...##.##..@#..    ",
"      @@@@@@@@%$$@@@$$$ ....#..@%%%  @   @  @....####.@@..@@    ",
"    @ @@.@@@@$%%$$$$    ..##.&%%%%     @@@@ @..@@..@@@$$$$$$$   ",
"        @$$$$$ %%%%%%   ###..&%%     @      @@@..@...$$$$$$$$   ",
"            @@  %%%%%  .@@@@&&%.%%%%@%%     .@@$$@.#.$$$$$$$ .  ",
"      @          %%%%  @@@.&&&.%%%%***%%%%&  $@$$$.#.$$$$@.$ @  ",
"                   &%% $$$$$&&%%%%%&*****%%@&&&@@$$$@$@@.$$     ",
"                   &&%****%%%%%%%%%&&&%***%  .@@@@@.@$$$$   @   ",
"                   &&%****%%%%%%%%%&&&%***%  .@@@@@.@$$$$   @   ",
"                   %&&%%%%*%%%&&&&&&&&&%%*%%  $@@@.##...        ",
"        ......     & &&&&&&&&&&&$$@@&&&&&**%.  $$@@@#@@@@  .    ",
"        ......  &&&&  &&&&%&&&@&@@$$ &&&&**%%    @@$.$$$$       ",
"         ..@$.%&&    %%&&&&&@$@@$$$$ &&&&***% @    $$$$$$$      ",
"           $@       %&&&&&$@@$ $$$   &&&&***@                   ",
"           @   .    &&    $$$$        &&&**** .                 ",
"           @   .    &&    $$$$        &&&**** .                 ",
"            @ ...  &&&                &&&%***%                  ",
"    . ...    .@@@@@&&                &&&&****%                  ",
"    ....#....@@@%&&&                 &&%%*%*%%                  ",
"  ...####@@#.@@%%..$                %&&%%*%*%%                  ",
"     ....@@...$.@..$               %%&%***%*%                   ",
"    @@@.....@..@...@@              %&&%**%%%%                   ",
"     $@@.@@@@$@..@@@$              &&&%**%%%%                   ",
"     $@@.@@@@$@..@@@$              &&&%**%%%%                   ",
"      @$$@@@@$ $$$$$$$            &&&%***%%&%                   ",
"           $$@@@$$$$              &&&%*%%%&&%                   ",
"      @@    $.$                 &&&&&%*%%%=&%                   ",
"            .   .               &&&&%%%%%&=&-                   ",
"               @               ===&&&%%%%&=&-                   ",
"                               ===%&&--%%=&&-                   ",
"                               =%%=&=-%%%=&--=                  ",
"                               =%%=&=-%%%=&--=                  ",
"             .              =-=====%=%-&&&=-=-=                 ",
"                           ====-===%=%%--%===-=                 ",
"                          ===;=---====%%%%=%=--==               ",
"                        ;;;;;;;=--%====%%--===-===              ",
"                        ;;;;;;;;==-==%------==---=              ",
"                       ;;;;;;;;;==--=%-------====--             ",
"                     ;=;;;;;;;;;;;;----------========           ",
"                     ;=;;;;;;;;;;;;----------========           ",
"                    ;;;;;;;;;;;;;;;;---=====--==========        ",
"                 ;;;;;;;;;;;;;;;;;;;--------=-==============    ",
"                ;;;;;;;;;;;;;;;;;;;;;-=======================   ",
"              ;;;;;;;;;;;;;;=========----=================      ",
"              ;;;   ===;;;======-----===============            ",
"                           === ========      ======             ",
"                                                                "};
