/* XPM */
static char * spring_exit_xpm[] = {
"64 64 12 1",
" 	c #08FF00",
".	c #477238",
"+	c #8FD032",
"@	c #61A53F",
"#	c #D480BB",
"$	c #293F21",
"%	c #FAD6FF",
"&	c #B9451D",
"*	c #612721",
"=	c #822E25",
"-	c #586335",
";	c #7F8E44",
"                                                                ",
"                                                                ",
"                                                                ",
"                                                                ",
"                                                                ",
"                                                                ",
"                        .      .                                ",
"                         ..                                     ",
"                  ..        .                                   ",
"                        .                   +                   ",
"                        .                   +                   ",
"                        .  .  .    ..++++@                      ",
"                  ..   @@..@@@..  ..+++++++@.                   ",
"                     ..@@@@@@......@#@@@@@@@@@..                ",
"                  ..@@##@..+@.##..@@##@@@+.$$$++.               ",
"                 .@@.@#@#..+@.+#..#.#..@@.+..$$$.$.             ",
"           ..   ..@@+@.+#++..+#.+++#@@...$$...$$$$...           ",
"           ..   ..@@+@.+#++..+#.+++#@@...$$...$$$$...           ",
"               .......+++..@.@.+...$@@@@@$$.++++$$+....         ",
"              ........+.....@@..$$$..@@...$.++..+++++..         ",
"          .  .@.@....$.+.......$$$$$..$...$.+...+######.        ",
"         .   .@@@$..$$.$.++...$.$$$$$$$$$$$++#..+++++++.        ",
"           ..+++@@$$$.$$..........$$$$$$$..@+$$$@++++@@.        ",
"           @@%++@$$$$$$.@@@..$$$$$$$$$$$$@$@@.@@@@##.@@#        ",
"           @@%++@$$$$$$.@@@..$$$$$$$$$$$$@$@@.@@@@##.@@#        ",
"         #+@@@++@$$$$.@@@@@@.$$$$$@$$$$$$$.$..$$.@@#.@@.        ",
"          @@@%#+@.$$.@@#@@@@@.$$...$$$$$$$..$$$$#@#.....        ",
"         @.@@##..$..@@@@@%%@@@.$@@@.$$$$$$....##.@.....+        ",
"  .     .@@@@@@.$...%++++++@@@@.@@@@$$$$$$.$..##$+.$.  .        ",
"      +#+@@###@$$.@@++++@%%@@@@@@@@@.$$$$$$$$$$$.$.. +++        ",
"       +..@###.$$...@+++@@@@@@#+##@+..$$$$$$$$$$$.. .    +      ",
"       +..@###.$$...@+++@@@@@@#+##@+..$$$$$$$$$$$.. .    +      ",
"       +@@@@@@.#$$++.@@#@##@@@@#++@...$$$$$$$$$$$$$...... +     ",
"   .##+@@.@....$$$@@+@@@###@@+@++++.@.$$$$$$$@@@@....@@@+@+     ",
"      ..........$$$$@@@##@@%+++%++@+..$$$$$$@+++++@....##+.     ",
"      +....$$#$$$$....+@@++%+++@%%%...$$$$$@.+@@#@#.$$$@++.+    ",
"    ++$$+$$$$$$.$$$$...@.++++%%%++%@@.$$$$@@....+#+#$##.+@@+    ",
"      $$$++##$$$$$$$...@.++++%%%%%@@@$$$$$......++@+#..$++++    ",
"      $$$++##$$$$$$$...@.++++%%%%%@@@$$$$$......++@+#..$++++    ",
"    ..@@+++$$@$@@.$$$....+++++%@%%@@.+$$$.......+@+#.$$##+$...  ",
"   ....@+..####++...&$...@@@+@@@@@.++$$$$....$$$.@###$$+$#$@..  ",
"  .......++++%%+@...... ....@@+@@@..+$+$$..+ .$$@@#@$$$...#@@@  ",
" .$.....$@+%%%%.+.....* +.....@...+.          $$....$..@$#.#@@$ ",
" .@#..$.@$#%%%%.....  .*    ......       &&**   $..$$.....$.@@$ ",
" .++...$@+#@@@.. .++  +**   ..&       &&&&===***    *  ...$#@@##",
" .++...$@+#@@@.. .++  +**   ..&       &&&&===***    *  ...$#@@##",
" .%%%%.$@@+...         ****  =**   +*+===*======*****  *&$#.@@.$",
" .+%%%$.@@...           **** = *   +==*** ==*=  =&*  ***  $$... ",
" .+#++$$@@...&=+=        ***== ****&**    &======&*****    #... ",
" .@#%%@#@..   &&=====    **==  ***&**        ***   **       ... ",
" ...##@$..          ****   ==***&&=**                       ... ",
" # ...@$$     .        ****==&&&===*                            ",
" # .##..$                &&===&===**                            ",
" # .##..$                &&===&===**                            ",
"      ..      .             &&====**                     #      ",
"      ..                     =====**                            ",
"         #                   =====**                            ",
"                             ==*****                            ",
"                           - ******* -                          ",
"                      -------**--------;;-----                  ",
"                      -------**--------;;-----                  ",
"                  ;;;;;;;;;;----;;;;;;;;;;;;-;;;                ",
"                           ;;;;;;;;;;;;;;;;;;;;;                ",
"                                                                "};
