/* XPM */
static char * summer_exit_xpm[] = {
"64 64 15 1",
" 	c #08FF00",
".	c #FF640F",
"+	c #EA4100",
"@	c #B11000",
"#	c #7F0700",
"$	c #FFA76D",
"%	c #972A1F",
"&	c #70221B",
"*	c #FFE1B6",
"=	c #E6AA49",
"-	c #133D19",
";	c #AB9F9B",
">	c #837C7B",
",	c #595656",
"'	c #798F3C",
"                             .                                  ",
"                             .                                  ",
"                         +                                      ",
"                 +                .@@@@@@. #@@@@+@@             ",
"                          +  @..@..$$+..+@@##@..++@@@@@@@.      ",
"                     +    +@@@@@+.....@@@.@###+++++@.$...+      ",
"                         + @@@@@+++@@@@@@.###+@@#@@+.$$$...     ",
"                   @@@@@@@@+++###+++@@@@@##.+######+++++$..     ",
"              @@@+++++@@@+@+@#######++####++@+######++++++.@    ",
"              @@@+++++@@@+@+@#######++####++@+######++++++.@    ",
"     +      @@$$$$...++++.+++@@@+@+@@+###+@@@#+++####@++.++.    ",
"       ++ @+@.$..$+...+++.@$++++++@@.@+++@@@@@@@++@#####+$+ @   ",
"         @@.@@.....$.@@$$.$+@+@@$@@$@@++@@@@@...@@###.##++$$+   ",
"       @@$@@......$$$.@..$$......@...++++##@.@...@+@#####+$$+   ",
"         $@.......$$.....$....$$...$$$@@@####.@@@.@+@.###$+$+@  ",
"       @@@.#.....@@$.....$........@$$@$$$@####..@@.+@++++@.+++  ",
"     @@++@@.@$++++@.+##..@@@@.##@.$$$$..$$.###.....++@@@@.#+++  ",
"     @@++@@.@$++++@.+##..@@@@.##@.$$$$..$$.###.....++@@@@.#+++  ",
"     @@@@@@.@@@##.+++#+@@@..@@###++$$.@@.@@.####..#++@@@####++  ",
"   + @@@@..+@@#..@.+##+@@@@@@@@@#@+.$$@@.@..@@###.$+++++..##+@  ",
"   .@$@$$..#+@++++++###++++@@@@@@#+..$@@.+..@@###..+.+@@.$$##+  ",
"    #.+@@...++++++++###++++++@++@##..$...+..++++@#+.+@..@.$.#   ",
"    $@.....@@++++@@@@##++++++@++@###@......@@++++#+.@.@@@.$$@   ",
"  + @.###..@.++@@@+###@##%@+++++%@@##@@@+...@++++#@#@#@@@@@$$   ",
"    @@$$$.@.+++@@##########@++++&&&%#+##+.@@..++.@+###+++@$$$   ",
"    @@$$$.@.+++@@##########@++++&&&%#+##+.@@..++.@+###+++@$$$   ",
"   @@#.$$...+#@#############+++++&&&#.##%@...$+++@######++@.@   ",
"   @..$$$+.+++############+%####&&&%&###%@.@.+++########+...@   ",
"   @.$.$$$.@+@##############%&@@&&%%%&##%+++++@@######++#+..$   ",
"   @$$...@++@####+######### %&&&+#+*.%##++.+++++#########+@ @   ",
"   @$+.@@+@.@#############    &&+&%**=%%##++++++########++@ @   ",
"   @$.+...++#############       #%%%*=..##+@@+@@#####.##++.     ",
"   @#$.@@@++###########   #   ++&%%%%=%%##+@@+$$#########+. .   ",
"   @#$.@@@++###########   #   ++&%%%%=%%##+@@+$$#########+. .   ",
"   +.$.@@++@#+#########          &%%%=%%#.+@@+++####@ ###+@@    ",
"   @...@@#+### #######      +    %%%%%%%###@@@@@@#.#@ ####@@    ",
"##  #..@@++####++#####            %%%%%%&@#@@@@@+###@ ###+.@    ",
"    @..@@++##    #####            +%**%%&##@@++++###  ##+#@@    ",
"    @..@@++##    #####             %%*%%&##+@++++### #++##@.    ",
"    @..+++@#      ####             &%%%%&#++++++@##@+   +#@@    ",
"    @#++++@# #    ####             &%%%%&#++++@@ ##@  ++#.+@    ",
"    @#++++@# #    ####             &%%%%&#++++@@ ##@  ++#.+@    ",
"    +.@+++##      ####             &%%%%&&#+++   @#  .++##@@    ",
"    +.@++++#   ## @###            %&%%%%%&#++@      .   ##@     ",
"     .@++@#@       ###            &&%%%%%&#++        +  ##+ +   ",
"     .+++@#        ###            &%%*%%%&##+            #@     ",
"    +.+++@#        ###            &%%*==%&##@            @      ",
"     @+++@#         #             &&==**=%##@            @      ",
"     @+++#          @            &&&==***%&#@                   ",
"     @+++#          @            &&&==***%&#@                   ",
"   + @+++#                       &&%%%==**&#                    ",
"      +++#                      %&&&%%%%=*&&                    ",
"      @@@#                    %%&&&&%&%%==%&--                  ",
"                       -- ;;;;;;&&&&%&&&%=%%-----               ",
"                     -----;;>;,,;;;>>%&&%%%%&-----              ",
"               '''------->>,,,,,;;;;>%&&%%&&------''            ",
"               ''''-'--------,;;>>>;;&&&&&------'''''           ",
"               ''''-'--------,;;>>>;;&&&&&------'''''           ",
"              '''''''''''----->>>>,,,&&&-----'''''''''          ",
"              ''''''--'''''-''--,,,,,'------''''''''''''        ",
"                  '''----'''''--''''''''''''''''''''''''        ",
"                  ''''''''''''''-'''''''''''''''''--''''        ",
"                   '''''''''''''''''''''''''''''---'''''        ",
"                      ''''''''''''''''''''''''---'''            "};
