/* XPM */
static char * winter_exit_xpm[] = {
"64 64 10 1",
" 	c #08FF00",
".	c #214240",
"+	c #4161A9",
"@	c #AFEBFF",
"#	c #75BCDE",
"$	c #575757",
"%	c #261C18",
"&	c #4D4C4C",
"*	c #E1E7E2",
"=	c #7D7D7D",
"                                       .                        ",
"                                       .                        ",
"                                       .                        ",
"               ..++++++.    .           +                       ",
"              .+++...++..............            +              ",
"             ..+@@@@#+++++..@#@@###++..+                        ",
"          ...++@@@@.@+++++.@@@@####++...+....++..               ",
"           ..++@@@@@+..@.+.+@@@#+++....++@@..@@++.              ",
"           ..++@+@@#+++.++@++##++++@..+#@@.@@.+++@@+.           ",
"       .   ...++++++.++@++++##+......+@.@@@@@@++@@.@@+++        ",
"          ...++++.+++++...++.++......+@@++@@@@@.@#@+@@@++       ",
"           ..++@+++.....+++.++@.....++@++@@@@@.++#+#++++++      ",
"           ..++@+++.....+++.++@.....++@++@@@@@.++#+#++++++      ",
"          ....+...++.......++...++++++++@@@@@@++.++++++++.      ",
"        +.......++++++++++++...+++++++###++@@@@+....+..++..     ",
"         .....+++++##++@@@@+++++....++#+++++++++....++++...     ",
"        @+.@@++@+@###++@@@@@+++.@@@+@@@@++++++++..............  ",
"   @+   ..+@@++@@+++++++++++..++@@@@@@@@++...++++++.@.....++++  ",
"       +@@+@@+@@@#+++++.+++++++++++...++.++++.+..++++++.+.++@@@ ",
"...  ...+@@+++@@@@++#..+....+++.....+++++.....++++@@@@@+..@+##@ ",
"     ++++@@@@+++++++#++++....+.+.....+.......+..@@#.@@@@++..++#.",
"   +  .@+@++++++++#+++++++...+..................+.+##@@@@++.....",
"   +  .@+@++++++++#+++++++...+..................+.+##@@@@++.....",
"      .++@+++#++###++++.+..+.............    ....+++#..@@+++....",
"     ..@.#+++###++@.++++.... .  $$$%%%   + ++ &...++.+++++++..+.",
"     ..++++++++....+++++.. ++   %%%%&$       %%+....+++@+++.@ ..",
"     ..++++..@.+..+++..+. +%+% %%%%%&$$$$$   %%%  +..........   ",
"    .##++................+  %%.%%%%$$$$$+$$$$&%$+    ....@..+   ",
"   .###.........@@..... + . + &$$$$$$$&&&&%$$$$$$       ....    ",
"####@@++..+....@..@.       .    $$$$$&%%%%%++&&$$$$       ..    ",
"####@++.+..++++ .  +    +     $$$$$$%%       %%%%$$$$           ",
"   .@++..+   ..%             $$$$$$%           %%&$$$$$$        ",
"   ##+++.+.@@  %%      +    %$$$                %&&&$$$$$       ",
"   ##+++.+.@@  %%      +    %$$$                %&&&$$$$$       ",
"   ##+++.+.@@  %%      +    %$$$                %&&&$$$$$       ",
"   ++++.%% ..  %&%%      %%$$$%%                  &&&$$$$       ",
"   ...+ .$%%%+%%.&%%   %%%$$$%%                   %%&&&$$$      ",
"   ....  $$$$$&&&&$$$$$$$$$%%                     %%&&&$$$      ",
"    ..    %%%%%$$$$$$$$$$$&                      %%&&$$$$$      ",
"                 %%%%%%&&%                       %%&$$$$$$      ",
"    +                                           %&$$$$$$$       ",
"                                               %&$$$$$$$        ",
"                                              %$&&$$$$$         ",
"                                              %&&$$$            ",
"                                              %&&$$$            ",
"                                             %&$$$$%            ",
"                                           %%&$$$$%             ",
"                                          %&&$$$$%              ",
"                                   $$$  % $$$&&$&               ",
"                                   & &$%%&$$$&&$&               ",
"                               $&&&%%%%%$$$$$&&$&               ",
"                              &&$$$    &$$$&&&&&$               ",
"                             $&%   %%$$$$$$&&&%&$$              ",
"                            $$%****$$&%%$$*&&%%&$$              ",
"                            $$%****$$&%%$$*&&%%&$$              ",
"                           $&***&&&$&%%$$**%%*******            ",
"                         **&%==&$$$&%*%%$*%*********            ",
"                     ====**%*=*$$$$***$%$**************         ",
"                   ====****===*$****=*$%*******=*==****         ",
"                  == ****====***===***=%*****============       ",
"                  ==================**=%===**=============      ",
"                  ==================**=%==================      ",
"                 === =============================== ===        ",
"                           =======================              "};
